<svg id="Layer_1" data-name="Layer 1" xmlns="http://www.w3.org/2000/svg" xmlns:xlink="http://www.w3.org/1999/xlink" viewBox="0 0 2011.92556 2193.62383">
  <defs>
    <style>
      .cls-1, .cls-2, .cls-3, .cls-4, .cls-5, .cls-6, .cls-7, .cls-8, .cls-9 {
        stroke-miterlimit: 10;
      }

      .cls-1, .cls-2, .cls-3, .cls-4, .cls-5, .cls-6, .cls-7 {
        stroke-width: 57.02778px;
      }

      .cls-1 {
        fill: url(#linear-gradient);
        stroke: url(#linear-gradient-2);
      }

      .cls-2 {
        fill: #734dff;
        stroke: #734dff;
      }

      .cls-3 {
        fill: #6604df;
        stroke: url(#linear-gradient-3);
      }

      .cls-4 {
        fill: url(#linear-gradient-4);
        stroke: url(#linear-gradient-5);
      }

      .cls-5 {
        fill: #015998;
        stroke: url(#linear-gradient-6);
      }

      .cls-6 {
        fill: #9c83f7;
      }

      .cls-6, .cls-9 {
        stroke: #846fef;
      }

      .cls-7 {
        fill: #1cd8de;
      }

      .cls-7, .cls-8 {
        stroke: #1ccfde;
      }

      .cls-8 {
        stroke-width: 47.79806px;
        fill: url(#radial-gradient);
      }

      .cls-9 {
        stroke-width: 47.68293px;
        fill: url(#radial-gradient-2);
      }
    </style>
    <linearGradient id="linear-gradient" x1="1387.97108" y1="1074.26077" x2="1387.97108" y2="1074.26077" gradientTransform="matrix(1, 0, 0, -1, -397.1945, 2294.73024)" gradientUnits="userSpaceOnUse">
      <stop offset="0" stop-color="#9516fe"/>
      <stop offset="0.11" stop-color="#911cfc"/>
      <stop offset="0.27" stop-color="#862df6"/>
      <stop offset="0.44" stop-color="#7449ed"/>
      <stop offset="0.63" stop-color="#5b6fe0"/>
      <stop offset="0.83" stop-color="#3aa0d0"/>
      <stop offset="0.99" stop-color="#1ccfc0"/>
    </linearGradient>
    <linearGradient id="linear-gradient-2" x1="1387.97108" y1="1074.26077" x2="1387.97108" y2="1074.26077" gradientTransform="matrix(1, 0, 0, -1, -397.1945, 2294.73024)" gradientUnits="userSpaceOnUse">
      <stop offset="0" stop-color="#9516fe"/>
      <stop offset="0.18" stop-color="#8332f5"/>
      <stop offset="0.56" stop-color="#5579dd"/>
      <stop offset="0.99" stop-color="#1ccfc0"/>
    </linearGradient>
    <linearGradient id="linear-gradient-3" x1="1093.90085" y1="2211.7603" x2="293.09572" y2="1749.41524" gradientUnits="userSpaceOnUse">
      <stop offset="0" stop-color="#6604df"/>
      <stop offset="0.14314" stop-color="#6a0ee1"/>
      <stop offset="0.38652" stop-color="#7629e6"/>
      <stop offset="0.69828" stop-color="#8854ee"/>
      <stop offset="0.99" stop-color="#9c83f7"/>
    </linearGradient>
    <linearGradient id="linear-gradient-4" x1="1859.50303" y1="852.36333" x2="1859.50303" y2="852.36333" xlink:href="#linear-gradient"/>
    <linearGradient id="linear-gradient-5" x1="1859.50303" y1="852.36333" x2="1859.50303" y2="852.36333" xlink:href="#linear-gradient-2"/>
    <linearGradient id="linear-gradient-6" x1="1621.52937" y1="1647.65714" x2="820.49056" y2="1185.17717" gradientUnits="userSpaceOnUse">
      <stop offset="0" stop-color="#015998"/>
      <stop offset="0.14662" stop-color="#03649e"/>
      <stop offset="0.40093" stop-color="#0980ad"/>
      <stop offset="0.73005" stop-color="#13adc7"/>
      <stop offset="1" stop-color="#1cd8de"/>
    </linearGradient>
    <radialGradient id="radial-gradient" cx="1781.88768" cy="836.80169" r="499.94638" gradientTransform="matrix(0.99713, -0.00117, -0.00117, 0.95894, 3.94591, 29.89355)" gradientUnits="userSpaceOnUse">
      <stop offset="0" stop-color="silver"/>
      <stop offset="0.12965" stop-color="#bbbebf"/>
      <stop offset="0.27329" stop-color="#aeb6bc"/>
      <stop offset="0.42362" stop-color="#98aab8"/>
      <stop offset="0.57859" stop-color="#799ab1"/>
      <stop offset="0.73718" stop-color="#5184a9"/>
      <stop offset="0.89642" stop-color="#216a9f"/>
      <stop offset="0.99" stop-color="#015998"/>
    </radialGradient>
    <radialGradient id="radial-gradient-2" cx="1237.72231" cy="1410.54754" r="499.28881" gradientTransform="matrix(0.99644, -0.02575, 0.02467, 0.95435, -23.57619, 75.7675)" gradientUnits="userSpaceOnUse">
      <stop offset="0" stop-color="silver"/>
      <stop offset="0.13077" stop-color="#bebbc1"/>
      <stop offset="0.27565" stop-color="#b7aec3"/>
      <stop offset="0.42727" stop-color="#ad98c7"/>
      <stop offset="0.58355" stop-color="#9e79cc"/>
      <stop offset="0.74352" stop-color="#8b51d2"/>
      <stop offset="0.90417" stop-color="#7421da"/>
      <stop offset="0.99" stop-color="#6604df"/>
    </radialGradient>
  </defs>
  <title>flowity-logo</title>
  <path class="cls-1" d="M990.77659,1220.46947" transform="translate(-485.1047 -394.68429)"/>
  <path class="cls-2" d="M959.3739,1268.777" transform="translate(-485.1047 -394.68429)"/>
  <path class="cls-3" d="M611.91589,1256.07031c-45.62687,61.76588-59.52281,182.12448,13.677,604.20017,39.55423,228.46241,60.617,290.93947,36.81877,401.99764C637.027,2381.095,578.43424,2470.9808,530.61913,2530.3394a344.70861,344.70861,0,0,0,236.94226,15.373,336.67694,336.67694,0,0,0,158.98274-107.885c77.6311-97.05283,74.13-213.36288,67.67431-364.03017-4.869-113.30111-21.88335-199.57646-52.95779-354.51072-27.35425-138.08406-47.32277-205.48482-47.54169-268.07127" transform="translate(-485.1047 -394.68429)"/>
  <path class="cls-4" d="M1462.30853,1442.36691" transform="translate(-485.1047 -394.68429)"/>
  <path class="cls-5" d="M1139.29579,691.87649c-45.68157,61.76582-59.57777,182.12442,13.56776,604.20011,39.66356,228.5171,60.67157,290.93947,36.87354,401.99777-25.38474,118.82672-83.97747,208.71267-131.62824,268.07127a344.37208,344.37208,0,0,0,236.94226,15.373,336.12919,336.12919,0,0,0,159.25629-107.93984c77.46719-97.05271,74.02055-213.36289,67.565-363.97523-4.86925-113.35594-21.8834-199.631-52.95784-354.56541-27.3542-138.02937-47.32272-205.48483-47.54163-268.07128" transform="translate(-485.1047 -394.68429)"/>
  <path class="cls-6" d="M545.57824,1288.48479c-33.48159,123.42224,7.71391,227.96989,23.68877,263.85876,39.33532-41.57845,103.946-97.49041,195.85621-123.31285,90.5972-25.38474,148.58813-5.03321,338.09823,23.19638,156.24734,23.25107,243.28869,36.21692,356.69895,35.66983,150.77643-.82057,267.08661-3.22773,360.30968-85.34513a336.56588,336.56588,0,0,0,100.007-164.12541,344.77,344.77,0,0,0-26.91662-235.95748,642.78322,642.78322,0,0,1-261.28752,144.70386c-109.7999,29.2145-173.15223,11.21519-403.31074-17.23307-468.24952-57.82684-565.79463-28.06587-620.66717,31.51189C568.33692,1204.83563,552.85433,1261.73238,545.57824,1288.48479Z" transform="translate(-485.1047 -394.68429)"/>
  <path class="cls-7" d="M1084.11209,727.15725c-33.48147,123.42217,7.71385,227.97014,23.68877,263.85876,39.33538-41.52375,103.94611-97.49048,195.91091-123.31285,90.54243-25.43944,148.58819-5.08785,338.0981,23.19637,156.24722,23.30577,243.23362,36.27181,356.64425,35.67,150.94053-.82064,267.14144-3.22779,360.30956-85.39989a334.97915,334.97915,0,0,0,100.0072-164.12529,344.208,344.208,0,0,0-26.91674-235.90284A642.037,642.037,0,0,1,2170.5665,585.84539c-109.74508,29.15962-173.09754,11.21525-403.25592-17.23313-468.304-57.77208-565.79463-28.06537-620.72193,31.45732C1106.92559,643.67218,1091.38837,700.56893,1084.11209,727.15725Z" transform="translate(-485.1047 -394.68429)"/>
  <path class="cls-8" d="M1450.26866,829.75131a873.04367,873.04367,0,0,0-175.44074,8.11791c-48.89772,7.27533-83.58586,16.94826-115.232,35.03039-18.98062,11.08-49.9581,29.61391-59.54754,62.13418a77.76433,77.76433,0,0,0,13.91652,67.488,438.58029,438.58029,0,0,1,177.85415-96.5766c70.36253-19.21885,119.021-14.73012,363.77507,3.73213,118.16465,8.91475,202.87273,14.29026,306.16012,16.83861,134.85272,3.15326,200.82284-.91988,273.70289-21.68579,96.03287-27.51255,140.85275-66.25849,150.89461-75.17446a225.30172,225.30172,0,0,0,62.73394-89.89155c10.7656-29.7747,19.7-78.28276,5.78855-81.63434-20.89769-5.13153-40.10156,105.30925-156.69765,154.55239-43.10679,18.11913-123.47981,38.38021-206.61441,46.9171-26.55,2.75738-112.42862,10.80116-306.31886-4.23751,0,0-118.94929-11.357-327.54583-25.419l-6.88834-.36575" transform="translate(-485.1047 -394.68429)"/>
  <path class="cls-9" d="M914.73985,1387.94206a872.31874,872.31874,0,0,0-175.41015,7.19815c-48.91237,7.0634-83.63422,16.52919-115.3586,34.329-19.02791,10.941-50.08593,29.194-59.833,61.52477a77.49537,77.49537,0,0,0,13.52236,67.309,439.06949,439.06949,0,0,1,178.31377-95.35961c70.43043-18.748,119.04531-14.10057,363.6081,5.49242,118.07034,9.383,202.66355,15.19018,305.95024,18.21556,134.78274,3.83086,200.74457.03617,273.69789-20.29235,96.13-26.93558,141.124-65.29752,151.20578-74.12648a223.86174,223.86174,0,0,0,63.15589-89.14413c10.85434-29.59037,20.0808-77.84282,6.19036-81.29778-20.86211-5.15581-40.6082,104.653-157.45552,153.127-43.179,17.83477-123.56462,37.62361-206.761,45.78217-26.49815,2.6179-112.38269,10.16688-306.11836-5.72428,0,0-118.84375-11.87062-327.28317-26.80717l-6.93947-.44758" transform="translate(-485.1047 -394.68429)"/>
</svg>
