<?xml version="1.0" encoding="UTF-8"?>
<svg id="katman_1" xmlns="http://www.w3.org/2000/svg" version="1.1" viewBox="0 0 841.9 595.3">
  <!-- Generator: Adobe Illustrator 29.0.0, SVG Export Plug-In . SVG Version: 2.1.0 Build 186)  -->
  <defs>
    <style>
      .st0 {
        fill: #424147;
      }

      .st1 {
        fill: #424147;
      }
    </style>
  </defs>
  <path id="_256" class="st0" d="M225,283.5h-26.7c-2.4,0-4.5-1.4-5.5-3.5l-29-67.8c-.2-.7-.9-1.1-1.6-.9-.4.1-.7.4-.9.8l-18.1,43.1c-.3.8,0,1.7.8,2,.2,0,.4.1.6.1h19.9c1.2,0,2.3.7,2.8,1.9l8.7,19.4c.8,1.8,0,3.9-1.9,4.7-.4.2-.9.3-1.4.3h-72.3c-1.8,0-3.3-1.5-3.3-3.3,0-.4,0-.9.3-1.3l46-109.6c1-2.4,3.3-3.9,5.8-3.9h26.5c2.6,0,4.9,1.5,5.8,3.9l46.3,109.6c.7,1.7,0,3.6-1.7,4.3-.4.2-.8.3-1.3.3Z"/>
  <g>
    <path class="st0" d="M273.5,283.5c-14.5,0-25.8-3.8-34-11.5-8.1-7.7-12.2-18-12.2-31s4.2-24.7,12.6-33.1c8.4-8.4,19.3-12.6,32.7-12.6s5,.2,7.5.5v-31.4l27.8-1.3v113.9c-10.5,4.4-22,6.5-34.5,6.5ZM273.4,260.6c2.7,0,5-.4,6.9-1.1v-40.4c-2.4-.5-4.4-.8-5.9-.8-12.4,0-18.7,7.1-18.7,21.3s5.9,21.1,17.7,21.1Z"/>
    <path class="st0" d="M389.7,271.5c-7.6,8-17.9,12-30.9,12s-23.3-4-31-12c-7.7-8-11.5-18.7-11.5-32.2s3.8-24,11.5-32,18-12,31-12,23.3,4,30.9,12c7.6,8,11.5,18.7,11.5,32s-3.8,24.1-11.5,32.2ZM348.3,255c2.5,3.8,6,5.6,10.5,5.6s7.9-1.9,10.4-5.6,3.7-9,3.7-15.6-1.3-11.8-3.8-15.5c-2.5-3.7-5.9-5.6-10.3-5.6s-8,1.9-10.5,5.6c-2.5,3.7-3.8,8.9-3.8,15.5s1.3,11.9,3.8,15.6Z"/>
    <path class="st0" d="M445.2,283.5c-16.4,0-28.3-2.1-35.8-6.2v-112.9l27.8-1.3v32.7c2.3-.3,5.3-.5,9.2-.5,13.2,0,23.8,3.9,31.7,11.6,8,7.7,11.9,18.3,11.9,31.6s-4,24.8-12.1,32.9-19,12.1-32.7,12.1ZM443.9,260.6c11.9,0,17.8-7,17.8-21.1s-1.4-12.3-4.2-15.9c-2.8-3.6-7.3-5.4-13.7-5.4s-3.8.3-6.7.8v40.6c2,.7,4.2,1,6.7,1Z"/>
    <path class="st0" d="M572.5,233.3c0,4.7-.2,9.2-.7,13.6h-48.3c2.2,8.9,8.5,13.4,18.8,13.4s14.2-1.5,21.8-4.4l4.3,22.1c-8.2,3.7-17.9,5.6-29.1,5.6s-24.3-4-32.6-12.1c-8.3-8.1-12.5-18.8-12.5-32.1s3.9-23.8,11.7-31.9c7.8-8.1,17.9-12.1,30.2-12.1s19.4,3.5,26.3,10.5c6.8,7,10.2,16.1,10.2,27.5ZM546,230.5v-1.3c0-3.7-.9-6.6-2.8-8.7-1.9-2.1-4.3-3.1-7.2-3.1s-6.4,1.1-8.6,3.4c-2.2,2.3-3.7,5.5-4.5,9.7h23.1Z"/>
  </g>
  <g>
    <path class="st1" d="M112.4,317.6h28.5v112.6h-28.5v-112.6Z"/>
    <path class="st1" d="M180.3,397.3c0,8.3,2.6,12.4,7.7,12.4s3.1-.2,4.8-.5l1.9,21.6c-4.4,1-8.9,1.4-13.4,1.4-19,0-28.5-11.5-28.5-34.6v-82.5l27.4-1.6v83.8Z"/>
    <path class="st1" d="M224.6,397.3c0,8.3,2.6,12.4,7.7,12.4s3.1-.2,4.8-.5l1.9,21.6c-4.4,1-8.9,1.4-13.4,1.4-19,0-28.5-11.5-28.5-34.6v-82.5l27.4-1.6v83.8Z"/>
    <path class="st1" d="M282,432.2c-14.2,0-24.2-3.2-30.1-9.6-5.9-6.4-8.9-15.6-8.9-27.6v-47.6h27.4v47.8c0,9.7,4.1,14.5,12.4,14.5s6.6-.5,9.5-1.6v-60.7h27.4v78.2c-12.4,4.4-25,6.6-37.7,6.6Z"/>
    <path class="st1" d="M385.6,372.6c-10.2-3.1-18-4.7-23.3-4.7s-8.4,1.2-8.4,3.5.7,2.5,2.1,3.2c1.4.8,4.4,1.8,9.2,3.1,10,2.6,17.1,5.8,21.2,9.8,4.2,4,6.3,9.7,6.3,17.2s-3.2,15.7-9.7,20.4c-6.5,4.7-15.2,7-26,7s-21.4-1.9-30.1-5.6l3.5-22.2c8.7,3.5,17.4,5.3,26.1,5.3s9.5-1.4,9.5-4.2-.8-3.1-2.5-3.9c-1.7-.8-5.9-2.1-12.6-3.9-8-2-14-5.1-17.9-9.1-3.9-4-5.8-9.5-5.8-16.3s2.9-15,8.7-19.7c5.8-4.7,13.8-7,24.1-7s19.6,1.7,28.3,5l-2.7,22.2Z"/>
    <path class="st1" d="M445.8,409l1.4,21.9c-4.3.9-9.3,1.3-15.1,1.3-20.9,0-31.4-11.5-31.4-34.6v-28.5h-10.5v-21.7h10.5v-17.2l27.4-1.3v18.5h15.9v21.7h-15.9v28.2c0,8.3,3.3,12.4,9.8,12.4s5.7-.2,7.9-.6Z"/>
    <path class="st1" d="M486.7,345.4c7.5,0,13.2.6,17.1,1.9l-3.9,22.2c-2.9-1.1-6.5-1.6-10.8-1.6s-6.4.5-8.9,1.4v60.8h-27.4v-78.2c9.5-4.4,20.8-6.6,33.8-6.6Z"/>
    <path class="st1" d="M538,432.2c-11,0-19.5-2.4-25.4-7.2-5.9-4.8-8.9-11.1-8.9-18.8s2.9-13.8,8.9-18.5c5.9-4.7,13.8-7.1,23.8-7.1s8.5.3,11.9.8v-1.3c0-8-4.7-12.1-14-12.1s-15,1.2-21.2,3.7l-4.7-21.2c8.5-3.3,18.2-5,29.1-5s21.6,3.2,27.9,9.5,9.4,15.3,9.4,26.9v43.6c-9.8,4.5-22,6.8-36.8,6.8ZM548.3,411.7v-13.7c-2.9-.6-5.6-1-8-1s-5.1.7-6.8,2c-1.8,1.3-2.7,3.3-2.7,5.9,0,5.3,3.4,7.9,10.1,7.9s5.6-.4,7.4-1.1Z"/>
    <path class="st1" d="M634.4,409l1.4,21.9c-4.3.9-9.3,1.3-15.1,1.3-20.9,0-31.4-11.5-31.4-34.6v-28.5h-10.5v-21.7h10.5v-17.2l27.4-1.3v18.5h15.9v21.7h-15.9v28.2c0,8.3,3.3,12.4,9.8,12.4s5.7-.2,7.9-.6Z"/>
    <path class="st1" d="M708.9,420.3c-7.5,7.9-17.6,11.8-30.4,11.8s-22.9-3.9-30.5-11.8c-7.6-7.9-11.3-18.4-11.3-31.6s3.8-23.6,11.3-31.5c7.6-7.9,17.7-11.8,30.5-11.8s22.9,3.9,30.4,11.8c7.5,7.9,11.3,18.4,11.3,31.5s-3.8,23.7-11.3,31.6ZM668.2,404.1c2.5,3.7,5.9,5.6,10.3,5.6s7.8-1.9,10.2-5.6c2.4-3.7,3.6-8.8,3.6-15.4s-1.2-11.6-3.7-15.3c-2.5-3.6-5.8-5.5-10.1-5.5s-7.8,1.8-10.3,5.5c-2.5,3.6-3.7,8.7-3.7,15.3s1.2,11.7,3.7,15.4Z"/>
    <path class="st1" d="M762,345.4c7.5,0,13.2.6,17.1,1.9l-3.9,22.2c-2.9-1.1-6.5-1.6-10.8-1.6s-6.4.5-8.8,1.4v60.8h-27.4v-78.2c9.5-4.4,20.8-6.6,33.8-6.6Z"/>
  </g>
</svg>