<?xml version="1.0" encoding="utf-8"?>
<!-- Generator: Adobe Illustrator 27.8.0, SVG Export Plug-In . SVG Version: 6.00 Build 0)  -->
<svg version="1.0" id="katman_1" xmlns="http://www.w3.org/2000/svg" xmlns:xlink="http://www.w3.org/1999/xlink" x="0px" y="0px"
	 viewBox="0 0 841.89 595.28" style="enable-background:new 0 0 841.89 595.28;" xml:space="preserve">
<style type="text/css">
	.st0{fill:#424147;}
</style>
<path class="st0" d="M261.15,310.53c-0.3-0.31-0.09-0.84,0.35-0.84h1.86c0,0,0.09,0,0.13,0c16.25-1.65,29.83-12.15,29.83-30.78
	c0-21.46-17.32-31.38-37.15-31.38h-92.91c-1.25,0-2.26,1.01-2.26,2.26v95.24c0,1.25,1.01,2.26,2.26,2.26h29.67
	c1.25,0,2.26-1.01,2.26-2.26v-30.41c0-1.25,1.01-2.26,2.26-2.26h19.29c2.67,0,5.22,1.15,7,3.15l27.47,31.02
	c0.59,0.27,1.1,0.49,1.69,0.76h39.16c2.01,0,3.01-2.42,1.61-3.85L261.15,310.53L261.15,310.53z M248.77,290.01h-51.32
	c-1.25,0-2.26-1.01-2.26-2.26v-14.43c0-1.25,1.01-2.26,2.26-2.26h50.58c7.26,0,11.99,3.56,11.99,9.18
	C260.02,286.75,255.58,290,248.77,290.01L248.77,290.01z"/>
<path class="st0" d="M636.15,247.53h-29.66c-1.25,0-2.26,1.01-2.26,2.26v63.22c0,1.25,1.01,2.26,2.26,2.26h29.66
	c1.25,0,2.26-1.01,2.26-2.26V249.8C638.41,248.55,637.4,247.53,636.15,247.53z"/>
<path class="st0" d="M636.15,328.75h-29.66c-1.25,0-2.26,1.01-2.26,2.26v14.03c0,1.25,1.01,2.26,2.26,2.26h29.66
	c1.25,0,2.26-1.01,2.26-2.26v-14.03C638.41,329.76,637.4,328.75,636.15,328.75z"/>
<path class="st0" d="M758.32,344.31l-38.17-50.54c-0.86-1.13-0.78-2.7,0.17-3.75l36.05-39.54c1.03-1.13,0.23-2.95-1.3-2.95h-31.19
	c-0.83,0-1.62,0.35-2.17,0.96l-34.81,38.26h-0.02c-0.11,0.12-0.27,0.22-0.46,0.22h-1.26c-0.33,0-0.59-0.27-0.6-0.59v-36.76
	c0-1.15-0.93-2.08-2.08-2.08h-28.52c-1.15,0-2.08,0.93-2.08,2.08v95.48c0,1.06,0.86,1.91,1.91,1.91h28.85
	c1.06,0,1.91-0.86,1.91-1.91v-17.77c0-0.74,0.29-1.46,0.79-2.01l12.67-13.55c0,0,0.11-0.17,0.37-0.17h1.71
	c0.21,0,0.33,0.17,0.33,0.17l25.52,34.06c0.55,0.74,1.43,1.18,2.35,1.18h28.66C758.36,347,759.16,345.42,758.32,344.31
	L758.32,344.31z"/>
<path class="st0" d="M339.48,270.33h29.01c1.25,0,2.26-1.01,2.26-2.26v-18.28c0-1.25-1.01-2.26-2.26-2.26h-60.02
	c-1.25,0-2.26,1.01-2.26,2.26v95.24c0,1.25,1.01,2.26,2.26,2.26h60.02c1.25,0,2.26-1.01,2.26-2.26v-18.28
	c0-1.25-1.01-2.26-2.26-2.26h-29.22c-1.25,0-2.26-1.01-2.26-2.26v-11.85c0-1.36,1.1-2.47,2.47-2.47h29.01
	c1.25,0,2.26-1.01,2.26-2.26v-17.83c0-1.25-1.01-2.26-2.26-2.26h-29.01c-1.36,0-2.47-1.1-2.47-2.47v-10.31
	c0-1.36,1.1-2.47,2.47-2.47V270.33z"/>
<path class="st0" d="M417.47,270.33h29.01c1.25,0,2.26-1.01,2.26-2.26v-18.28c0-1.25-1.01-2.26-2.26-2.26h-60.02
	c-1.25,0-2.26,1.01-2.26,2.26v95.24c0,1.25,1.01,2.26,2.26,2.26h60.02c1.25,0,2.26-1.01,2.26-2.26v-18.28
	c0-1.25-1.01-2.26-2.26-2.26h-29.22c-1.25,0-2.26-1.01-2.26-2.26v-11.85c0-1.36,1.1-2.47,2.47-2.47h29.01
	c1.25,0,2.26-1.01,2.26-2.26v-17.83c0-1.25-1.01-2.26-2.26-2.26h-29.01c-1.36,0-2.47-1.1-2.47-2.47v-10.31
	c0-1.36,1.1-2.47,2.47-2.47V270.33z"/>
<path class="st0" d="M116.27,270.33h29.01c1.25,0,2.26-1.01,2.26-2.26v-18.28c0-1.25-1.01-2.26-2.26-2.26H85.27
	c-1.25,0-2.26,1.01-2.26,2.26v95.24c0,1.25,1.01,2.26,2.26,2.26h26.26c1.25,0,2.26-1.01,2.26-2.26l0.02-34.64
	c0-1.36,1.1-2.47,2.47-2.47h29.01c1.25,0,2.26-1.01,2.26-2.26v-17.83c0-1.25-1.01-2.26-2.26-2.26h-29.01c-1.36,0-2.47-1.1-2.47-2.47
	v-10.31c0-1.36,1.1-2.47,2.47-2.47L116.27,270.33z"/>
<path class="st0" d="M554.31,247.53h-89.83c-1.25,0-2.26,1.01-2.26,2.26v95.24c0,1.25,1.01,2.26,2.26,2.26h29.67
	c1.25,0,2.26-1.01,2.26-2.26v-31.52c0-0.64,0.51-1.15,1.15-1.15h56.9c22.8,0,40.08-11.89,40.08-32.87
	C594.54,258.5,577.27,247.53,554.31,247.53L554.31,247.53z M549.99,290.01h-51.32c-1.25,0-2.26-1.01-2.26-2.26v-14.43
	c0-1.25,1.01-2.25,2.26-2.25h50.58c7.26,0,11.99,3.55,11.99,9.18C561.24,286.76,556.8,290.01,549.99,290.01z"/>
</svg>
