<?xml version="1.0" encoding="utf-8"?>
<!-- Generator: Adobe Illustrator 24.0.1, SVG Export Plug-In . SVG Version: 6.00 Build 0)  -->
<svg version="1.1" id="Layer_1" xmlns="http://www.w3.org/2000/svg" xmlns:xlink="http://www.w3.org/1999/xlink" x="0px" y="0px"
	 viewBox="0 0 2063.6 1780.2" style="enable-background:new 0 0 2063.6 1780.2;" xml:space="preserve">
<style type="text/css">
	.st0{fill:#1CD8DE;}
	.st1{opacity:0.5;fill:url(#SVGID_1_);enable-background:new    ;}
	.st2{opacity:0.5;fill:url(#SVGID_2_);enable-background:new    ;}
	.st3{opacity:0.4;fill:#1CD8DE;enable-background:new    ;}
	.st4{fill:url(#SVGID_3_);}
	.st5{fill:url(#SVGID_4_);}
	.st6{fill:#9C83F7;}
	.st7{opacity:0.51;}
	.st8{fill:#464193;}
	.st9{fill:url(#SVGID_5_);}
	.st10{fill:#FFFFFF;}
	.st11{opacity:0.15;}
	.st12{clip-path:url(#SVGID_7_);}
	.st13{fill:url(#SVGID_8_);}
	.st14{fill:url(#SVGID_9_);}
	.st15{opacity:0.5;}
	.st16{fill:#2C2661;}
	.st17{opacity:0.8;}
	.st18{fill:#6604DF;}
	.st19{fill:#6DC4CB;}
	.st20{opacity:0.5;fill:url(#SVGID_10_);enable-background:new    ;}
</style>
<g>
	<path class="st0" d="M1285.3,1772.3c-7,0-14.5-1.7-20.3-5.1l-930.7-537.3c-5.9-3.4-9.2-8-9.2-12.6c0-3.9,2.4-7.5,6.7-10
		l555.4-320.6c9.2-5.3,25.4-4.7,36,1.4l930.8,537.4c5.9,3.4,9.2,8,9.2,12.6c0,3.9-2.4,7.5-6.7,10l-555.4,320.6
		C1296.9,1771.1,1291.2,1772.3,1285.3,1772.3z M335.9,1227.2l930.8,537.4c9.8,5.6,24.4,6.3,32.9,1.4l555.4-320.6
		c3.3-1.9,5.2-4.5,5.1-7.2c0-3.4-2.8-7.1-7.7-9.9L921.7,890.8c-9.8-5.6-24.4-6.3-32.9-1.4L333.4,1210c-3.3,1.9-5.2,4.5-5.2,7.2
		C328.3,1220.8,331,1224.4,335.9,1227.2L335.9,1227.2z"/>
	<g>
		<g>
			<g>
				<path class="st0" d="M124.4,1205.7l-1-1.8c23.1-12.9,43.4-41.4,50.6-71l91.2-376.7c6-25.1,19.5-46,34.8-60l-14-43
					c-4.5-13.8-13.6-20.7-26.5-20.2c-25.5,1-61.4,33.2-72.2,77.8l-91.2,376.7c-7.3,30.1-28,59.1-51.5,72.3l-1-1.8
					c23.1-12.9,43.4-41.4,50.6-71l91.2-376.7c11.2-46.2,47.3-78.4,74.1-79.3c13.7-0.6,23.8,7.2,28.5,21.6l13.7,42.1
					c12.4-11,26-17.3,37.7-17.8c13.8-0.5,23.8,7.2,28.5,21.6l13.5,41.6l2-1.1c21.5-12.4,41.1-39.4,48.9-67.1
					c12.3-44,46.6-73.6,71.4-75.7c12.6-1,22.8,4.9,28.4,16.8l20.3,43c10.6-8.2,21.6-13.1,31.1-13.9c12.7-1,22.8,4.9,28.4,16.8
					l9.3,19.6l9.9-5.7c23-13.3,43.6-43,50.1-72.3l91.1-406.9c10.2-45.6,47-79.3,73.6-81.1c13.5-0.8,23.9,6.3,29,20.1l15.6,42.6
					c11.8-10.1,24.4-16.1,35.3-16.9c13.7-0.8,23.9,6.3,29,20.1l132.1,361l59.8-34.5l81.9,47.1l-76.4,44.1
					c-12.4,7.2-24.6,9.1-34.3,5.6c-7.9-2.9-13.8-9.2-17.1-18.3l-15-41l-13.5,7.8c-12.4,7.2-24.5,9.1-34.3,5.6
					c-7.9-2.9-13.8-9.2-17.1-18.3L889.6,178.8c-15.7,14.3-29.6,35.8-35.3,61.2l-91.1,406.9c-6.7,30.3-27.3,59.8-51.1,73.6L690.3,733
					c-11.9,6.9-23.6,9-33.1,6c-7.4-2.3-13.3-7.7-16.9-15.5l-19.9-42.2l-9.9,5.8c-11.9,6.8-23.7,9-33.1,6
					c-7.4-2.3-13.3-7.7-16.9-15.5l-8.8-18.5c-15.7,13-30.4,33.6-37.5,59.1c-7.9,28.2-27.9,55.6-49.8,68.3l-19,11
					c-12.6,7.3-24.9,9.2-34.7,5.5c-8.1-3.1-14-9.9-17.2-19.6l-13.1-40.4l-14.9,8.6c-12.6,7.3-24.9,9.2-34.7,5.5
					c-8.1-3.1-14-9.9-17.2-19.6l-12.7-39c-14.8,13.9-27.7,34.2-33.5,58.2l-91.1,376.7C168.6,1163.5,147.9,1192.6,124.4,1205.7z
					 M381.9,742.1l13.3,40.8c3,9.1,8.5,15.4,15.9,18.3c9.2,3.5,20.9,1.6,32.9-5.3l19-11c21.5-12.4,41.1-39.4,48.9-67.1
					c7.3-26.2,22.4-47.3,38.6-60.5l-20.5-43.5c-5.3-11.2-14.4-16.6-26.4-15.7c-24.1,2-57.5,31-69.6,74.2
					c-7.9,28.2-27.9,55.6-49.9,68.3L381.9,742.1z M302.3,697l13,40c3,9.1,8.5,15.4,15.9,18.3c9.2,3.5,20.9,1.6,32.9-5.3l15.2-8.8
					l-13.7-42c-4.5-13.8-13.7-20.7-26.5-20.2C328,679.3,314.6,685.9,302.3,697z M621.9,680.5l20,42.4c3.4,7.2,8.8,12.2,15.7,14.3
					c8.9,2.8,20.1,0.7,31.5-5.8l21.8-12.6c23-13.3,43.6-43,50.1-72.3l91.1-406.9c5.8-26.1,20.3-48.2,36.6-62.7l-15.9-43.4
					c-4.8-13.1-14-19.7-26.9-18.8c-25.8,1.7-61.7,34.8-71.7,79.5l-91.1,406.9c-6.7,30.3-27.3,59.8-51.1,73.6L621.9,680.5z
					 M553.1,657.9l9,19c3.4,7.2,8.8,12.2,15.7,14.3c8.9,2.8,20.1,0.7,31.5-5.8l10-5.8l-9.3-19.7c-5.3-11.2-14.5-16.6-26.4-15.6
					C574.2,645,563.4,649.8,553.1,657.9z M1087.5,541.6l15.2,41.4c3.1,8.5,8.6,14.4,15.9,17.1c9.1,3.3,20.7,1.3,32.5-5.5l73.2-42.3
					l-77.8-44.7L1087.5,541.6z M891.1,177.4l131.6,359.6c3.1,8.5,8.6,14.4,15.9,17.1c9.1,3.3,20.7,1.3,32.5-5.5l13.8-7.9
					L952.7,179.4c-4.8-13.1-14.2-19.7-26.9-18.8C915.1,161.3,902.7,167.4,891.1,177.4z"/>
				
					<rect x="900.1" y="93.6" transform="matrix(0.4984 -0.8669 0.8669 0.4984 330.5718 851.4514)" class="st0" width="2" height="92.9"/>
				<polygon class="st0" points="601.2,648.7 519.6,601.7 520.7,600 602.2,646.9 				"/>
				
					<rect x="312.4" y="609.4" transform="matrix(0.4977 -0.8673 0.8673 0.4977 -413.591 602.5317)" class="st0" width="2" height="97.9"/>
				<path class="st0" d="M124.4,1205.7l-1-1.8c23.1-12.9,43.4-41.4,50.6-71l91.2-376.7c6-25.1,19.5-46,34.8-60l-14-43
					c-4.5-13.8-13.6-20.7-26.5-20.2c-25.5,1-61.4,33.2-72.2,77.8l-91.2,376.7c-7.3,30.1-28,59.1-51.5,72.3l-1-1.8
					c23.1-12.9,43.4-41.4,50.6-71l91.2-376.7c11.2-46.2,47.3-78.4,74.1-79.3c13.7-0.6,23.8,7.2,28.5,21.6l13.7,42.1
					c12.4-11,26-17.3,37.7-17.8c13.8-0.5,23.8,7.2,28.5,21.6l13.5,41.6l2-1.1c21.5-12.4,41.1-39.4,48.9-67.1
					c12.3-44,46.6-73.6,71.4-75.7c12.6-1,22.8,4.9,28.4,16.8l20.3,43c10.6-8.2,21.6-13.1,31.1-13.9c12.7-1,22.8,4.9,28.4,16.8
					l9.3,19.6l9.9-5.7c23-13.3,43.6-43,50.1-72.3l91.1-406.9c10.2-45.6,47-79.3,73.6-81.1c13.5-0.8,23.9,6.3,29,20.1l15.6,42.6
					c11.8-10.1,24.4-16.1,35.3-16.9c13.7-0.8,23.9,6.3,29,20.1l132.1,361l59.8-34.5l81.9,47.1l-76.4,44.1
					c-12.4,7.2-24.6,9.1-34.3,5.6c-7.9-2.9-13.8-9.2-17.1-18.3l-15-41l-13.5,7.8c-12.4,7.2-24.5,9.1-34.3,5.6
					c-7.9-2.9-13.8-9.2-17.1-18.3L889.6,178.8c-15.7,14.3-29.6,35.8-35.3,61.2l-91.1,406.9c-6.7,30.3-27.3,59.8-51.1,73.6L690.3,733
					c-11.9,6.9-23.6,9-33.1,6c-7.4-2.3-13.3-7.7-16.9-15.5l-19.9-42.2l-9.9,5.8c-11.9,6.8-23.7,9-33.1,6
					c-7.4-2.3-13.3-7.7-16.9-15.5l-8.8-18.5c-15.7,13-30.4,33.6-37.5,59.1c-7.9,28.2-27.9,55.6-49.8,68.3l-19,11
					c-12.6,7.3-24.9,9.2-34.7,5.5c-8.1-3.1-14-9.9-17.2-19.6l-13.1-40.4l-14.9,8.6c-12.6,7.3-24.9,9.2-34.7,5.5
					c-8.1-3.1-14-9.9-17.2-19.6l-12.7-39c-14.8,13.9-27.7,34.2-33.5,58.2l-91.1,376.7C168.6,1163.5,147.9,1192.6,124.4,1205.7z
					 M381.9,742.1l13.3,40.8c3,9.1,8.5,15.4,15.9,18.3c9.2,3.5,20.9,1.6,32.9-5.3l19-11c21.5-12.4,41.1-39.4,48.9-67.1
					c7.3-26.2,22.4-47.3,38.6-60.5l-20.5-43.5c-5.3-11.2-14.4-16.6-26.4-15.7c-24.1,2-57.5,31-69.6,74.2
					c-7.9,28.2-27.9,55.6-49.9,68.3L381.9,742.1z M302.3,697l13,40c3,9.1,8.5,15.4,15.9,18.3c9.2,3.5,20.9,1.6,32.9-5.3l15.2-8.8
					l-13.7-42c-4.5-13.8-13.7-20.7-26.5-20.2C328,679.3,314.6,685.9,302.3,697z M621.9,680.5l20,42.4c3.4,7.2,8.8,12.2,15.7,14.3
					c8.9,2.8,20.1,0.7,31.5-5.8l21.8-12.6c23-13.3,43.6-43,50.1-72.3l91.1-406.9c5.8-26.1,20.3-48.2,36.6-62.7l-15.9-43.4
					c-4.8-13.1-14-19.7-26.9-18.8c-25.8,1.7-61.7,34.8-71.7,79.5l-91.1,406.9c-6.7,30.3-27.3,59.8-51.1,73.6L621.9,680.5z
					 M553.1,657.9l9,19c3.4,7.2,8.8,12.2,15.7,14.3c8.9,2.8,20.1,0.7,31.5-5.8l10-5.8l-9.3-19.7c-5.3-11.2-14.5-16.6-26.4-15.6
					C574.2,645,563.4,649.8,553.1,657.9z M1087.5,541.6l15.2,41.4c3.1,8.5,8.6,14.4,15.9,17.1c9.1,3.3,20.7,1.3,32.5-5.5l73.2-42.3
					l-77.8-44.7L1087.5,541.6z M891.1,177.4l131.6,359.6c3.1,8.5,8.6,14.4,15.9,17.1c9.1,3.3,20.7,1.3,32.5-5.5l13.8-7.9
					L952.7,179.4c-4.8-13.1-14.2-19.7-26.9-18.8C915.1,161.3,902.7,167.4,891.1,177.4z"/>
			</g>
			
				<linearGradient id="SVGID_1_" gradientUnits="userSpaceOnUse" x1="-430.9203" y1="754.7009" x2="671.5296" y2="754.7009" gradientTransform="matrix(-1 0 0 1 715.5296 -118.4253)">
				<stop  offset="0" style="stop-color:#6DC4CB"/>
				<stop  offset="0.1055" style="stop-color:#39B7BF"/>
				<stop  offset="0.2197" style="stop-color:#2D88A1"/>
				<stop  offset="0.338" style="stop-color:#256088"/>
				<stop  offset="0.4587" style="stop-color:#1C4072"/>
				<stop  offset="0.5824" style="stop-color:#242D5C"/>
				<stop  offset="0.7105" style="stop-color:#24254F"/>
				<stop  offset="0.8458" style="stop-color:#212147"/>
				<stop  offset="1" style="stop-color:#202045"/>
			</linearGradient>
			<path class="st1" d="M1146.4,506.4l-74.8,43.2c-22.5,13-42.5,8.2-49.9-12.1l-148-404.3c-16.9-46.2-86-4.4-100.6,60.8l-91.1,406.9
				c-6.7,29.7-27.3,59.4-50.6,72.9l-21.8,12.6c-21.1,12.2-40.2,8.7-48.6-8.9L531,613.5c-18.7-39.6-81-2.3-97.9,58.7l0,0
				c-7.9,28.2-27.5,55.1-49.4,67.7l-19,11c-23,13.3-43.5,7.9-50.4-13.5L286.8,653c-15.5-47.6-84.8-7.9-100.6,57.7L95,1087.3
				c-7.2,29.6-27.9,58.6-51,71.6L1146.4,506.4z"/>
			
				<linearGradient id="SVGID_2_" gradientUnits="userSpaceOnUse" x1="40.3946" y1="799.4354" x2="40.3946" y2="1901.8979" gradientTransform="matrix(-1 0 0 1 715.5296 -118.4253)">
				<stop  offset="0" style="stop-color:#00FFFB"/>
				<stop  offset="0.1055" style="stop-color:#39B7BF"/>
				<stop  offset="0.2197" style="stop-color:#2D88A1"/>
				<stop  offset="0.338" style="stop-color:#256088"/>
				<stop  offset="0.4587" style="stop-color:#1C4072"/>
				<stop  offset="0.5824" style="stop-color:#242D5C"/>
				<stop  offset="0.7105" style="stop-color:#24254F"/>
				<stop  offset="0.8458" style="stop-color:#212147"/>
				<stop  offset="1" style="stop-color:#202045"/>
			</linearGradient>
			<path class="st2" d="M1226.4,551.1l-74.8,43.2c-22.5,13-42.5,8.2-49.9-12.1l-148-404.3c-16.9-46.2-86-4.4-100.6,60.8L762,645.6
				c-6.7,29.7-27.3,59.4-50.6,72.9l-21.8,12.6c-21.1,12.2-40.2,8.7-48.6-8.9l-30.1-63.9c-18.7-39.6-81-2.3-97.9,58.7l0,0
				c-7.9,28.2-27.5,55.1-49.4,67.7l-19,11c-23,13.3-43.5,7.9-50.4-13.5l-27.5-84.4c-15.5-47.6-84.8-8-100.6,57.7L175,1132
				c-7.2,29.6-27.9,58.6-51.1,71.6L1226.4,551.1z"/>
		</g>
		<g>
			<path class="st3" d="M360.7,591.7c0,11.7,9.5,21.2,21.2,21.2s21.2-9.5,21.2-21.2s-9.5-21.2-21.2-21.2
				C370.2,570.5,360.7,580,360.7,591.7z"/>
			<path class="st3" d="M372.7,591.7c0,5.1,4.1,9.2,9.2,9.2s9.2-4.1,9.2-9.2s-4.1-9.2-9.2-9.2C376.9,582.5,372.7,586.6,372.7,591.7z
				"/>
		</g>
		<g>
			<path class="st3" d="M682,221.8c0,11.7,9.5,21.2,21.2,21.2s21.2-9.5,21.2-21.2s-9.5-21.2-21.2-21.2S682,210,682,221.8z"/>
			<path class="st3" d="M693.9,221.8c0,5.1,4.1,9.2,9.2,9.2s9.2-4.1,9.2-9.2s-4.1-9.2-9.2-9.2S693.9,216.6,693.9,221.8z"/>
		</g>
		<g>
			<path class="st3" d="M80.5,665.7c0,11.7,9.5,21.2,21.2,21.2s21.2-9.5,21.2-21.2s-9.5-21.2-21.2-21.2S80.5,654,80.5,665.7z"/>
			<path class="st3" d="M92.4,665.7c0,5.1,4.1,9.2,9.2,9.2s9.2-4.1,9.2-9.2s-4.1-9.2-9.2-9.2C96.6,656.5,92.4,660.7,92.4,665.7z"/>
		</g>
	</g>
	<g>
		<g>
			<g>
				<g>
					<g>
						<linearGradient id="SVGID_3_" gradientUnits="userSpaceOnUse" x1="923.5702" y1="654.2724" x2="2009.8497" y2="654.2724">
							<stop  offset="0" style="stop-color:#9C83F7"/>
							<stop  offset="0.2938" style="stop-color:#C5C2E2"/>
							<stop  offset="0.6399" style="stop-color:#D4D1EA"/>
							<stop  offset="1" style="stop-color:#E9E8F5"/>
						</linearGradient>
						<path class="st4" d="M923.8,721.9l117.6-698l-9.5-4l14.2-8.1v0.1c2.7-1.8,6.7-1.8,11,0.8l940.4,542.8
							c7.7,4.4,13.6,15.9,12.2,23.9L1891,1282.9c-0.6,3.7-2.5,6.1-5,7.2l0,0l-13.9,8l-2.4-13l0.8,0.2L935.9,745.6
							C928.3,741.3,922.4,729.9,923.8,721.9z"/>
						
							<linearGradient id="SVGID_4_" gradientUnits="userSpaceOnUse" x1="-1298.7202" y1="1051.3202" x2="-1112.1318" y2="1051.3202" gradientTransform="matrix(-1 0 0 1 711.138 -118.4253)">
							<stop  offset="0" style="stop-color:#515DA7"/>
							<stop  offset="0.1779" style="stop-color:#5562AA"/>
							<stop  offset="0.3876" style="stop-color:#656EB2"/>
							<stop  offset="0.6134" style="stop-color:#7E85C0"/>
							<stop  offset="0.849" style="stop-color:#A3A5D3"/>
							<stop  offset="1" style="stop-color:#BCBCDF"/>
						</linearGradient>
						<path class="st5" d="M1992.2,574.5l15.4-6.8c1.8,3.9,2.6,8.2,2,11.7L1891,1282.9c-0.6,3.7-2.5,6.1-5,7.2l0,0l-13.9,8l-2.4-13
							l0.8,0.2l-47.3-27.3L1992.2,574.5z"/>
						<path class="st6" d="M921.2,754.2l940.3,542.9c7.2,4.2,13.5,1.8,14.8-5.8l118.6-703.6c1.3-8-4.5-19.5-12.2-23.9L1042.4,21
							c-7.2-4.2-13.5-1.8-14.8,5.8L909,730.3C907.7,738.3,913.5,749.8,921.2,754.2z"/>
						<g class="st7">
							<polygon class="st8" points="1039.2,34.1 1983.9,579.3 1864.6,1284.7 920.5,739.8 							"/>
						</g>
					</g>
					<g>
						<path class="st6" d="M330.2,1087.3l51.3,26.8L896,817.1c8.6-5,23.7-4.3,33.6,1.4l887.5,512.4c8.5-4.8,47.2-23.4,47.2-23.4
							l-18.8,30.6l-0.1-0.1c-0.8,2.2-2.5,4.2-5.3,5.8l-541.9,312.9c-8.6,5-23.7,4.3-33.6-1.4l-908.1-524.4c-4.1-2.4-6.6-5.2-7.6-8.1
							l-0.1,0.1L330.2,1087.3z"/>
						<linearGradient id="SVGID_5_" gradientUnits="userSpaceOnUse" x1="329.6644" y1="1194.8999" x2="1864.6295" y2="1194.8999">
							<stop  offset="0" style="stop-color:#9C83F7"/>
							<stop  offset="0.2938" style="stop-color:#C5C2E2"/>
							<stop  offset="0.6399" style="stop-color:#D4D1EA"/>
							<stop  offset="1" style="stop-color:#E9E8F5"/>
						</linearGradient>
						<path class="st9" d="M338.1,1095.8l930.8,537.4c10.2,5.9,25.6,6.5,34.4,1.4l555.4-320.6c8.8-5.1,7.7-14-2.5-19.9L925.5,756.7
							c-10.2-5.9-25.6-6.5-34.4-1.4l-555.4,320.6C326.8,1081,327.9,1089.9,338.1,1095.8z"/>
						<path class="st10" d="M338.1,1091.6l930.8,537.4c10.2,5.9,25.6,6.5,34.4,1.4l555.4-320.6c3.1-1.8,4.9-4.1,5.6-6.5
							c1,3.9-0.8,7.9-5.6,10.7l-555.4,320.6c-8.8,5.1-24.2,4.4-34.4-1.4l-930.8-537.4c-6.6-3.8-9.3-8.8-8.1-13.3
							C330.8,1085.7,333.5,1089,338.1,1091.6z"/>
					</g>
				</g>
				<g class="st11">
					<g>
						<g>
							<defs>
								<polygon id="SVGID_6_" points="1983.9,579.3 1039.2,34.1 920.5,739.8 1864.6,1284.7 								"/>
							</defs>
							<clipPath id="SVGID_7_">
								<use xlink:href="#SVGID_6_"  style="overflow:visible;"/>
							</clipPath>
							<g class="st12">
								<g>
									
										<linearGradient id="SVGID_8_" gradientUnits="userSpaceOnUse" x1="-1743.022" y1="1017.6503" x2="-208.902" y2="1017.6503" gradientTransform="matrix(-1 0 0 1 711.138 -118.4253)">
										<stop  offset="0" style="stop-color:#515DA7"/>
										<stop  offset="0.1779" style="stop-color:#5562AA"/>
										<stop  offset="0.3876" style="stop-color:#656EB2"/>
										<stop  offset="0.6134" style="stop-color:#7E85C0"/>
										<stop  offset="0.849" style="stop-color:#A3A5D3"/>
										<stop  offset="1" style="stop-color:#BCBCDF"/>
									</linearGradient>
									<path class="st13" d="M920,749.7l51.3,26.8l514.5-297.1c8.6-5,23.7-4.4,33.6,1.4L2407,993.2c8.5-4.8,47.2-23.4,47.2-23.4
										l-18.8,30.5l-0.1-0.1c-0.8,2.2-2.5,4.2-5.3,5.8L1888.1,1319c-8.6,5-23.7,4.3-33.6-1.4L946.5,793.2
										c-4.1-2.4-6.6-5.2-7.6-8.1l-0.1,0.1L920,749.7z"/>
									
										<linearGradient id="SVGID_9_" gradientUnits="userSpaceOnUse" x1="-1227.6172" y1="975.6902" x2="307.3123" y2="975.6902" gradientTransform="matrix(-1 0 0 1 711.138 -118.4253)">
										<stop  offset="0" style="stop-color:#C1BEE0"/>
										<stop  offset="0.2938" style="stop-color:#C5C2E2"/>
										<stop  offset="0.6399" style="stop-color:#D4D1EA"/>
										<stop  offset="1" style="stop-color:#E9E8F5"/>
									</linearGradient>
									<path class="st14" d="M928,758.1l930.8,537.4c10.2,5.9,25.6,6.5,34.4,1.4l555.4-320.6c8.9-5.1,7.7-14-2.5-19.9L1515.4,419
										c-10.2-5.9-25.6-6.5-34.4-1.4L925.6,738.3C916.7,743.3,917.8,752.2,928,758.1z"/>
									<path class="st10" d="M2446.2,956.4L1515.4,419c-6.5-3.8-15.2-5.3-23-4.7c5.7,0.4,11.4,2,16.2,4.7l930.7,537.4
										c10.2,5.9,11.3,14.8,2.5,19.9l-555.4,320.6c-3.2,1.8-7.2,2.9-11.4,3.2c6.7,0.6,13.5-0.5,18.3-3.2l555.4-320.6
										C2457.5,971.2,2456.3,962.3,2446.2,956.4z"/>
								</g>
								<g class="st15">
									<path class="st16" d="M1415.6,665.6l-29.8-17.2c-2.4-1.4-6.5-1.3-9.1,0.3l-33.2,19.4c-2.6,1.5-2.7,3.9-0.3,5.3l29.8,17.2
										c2.4,1.4,6.5,1.3,9.1-0.3l33.2-19.4C1417.8,669.4,1417.9,667,1415.6,665.6z"/>
									<path class="st16" d="M1461.6,692.2l-29.8-17.2c-2.4-1.4-6.5-1.3-9.1,0.3l-33.2,19.4c-2.6,1.5-2.7,3.9-0.3,5.3l29.8,17.2
										c2.4,1.4,6.5,1.3,9.1-0.3l33.2-19.4C1463.9,696,1464,693.6,1461.6,692.2z"/>
									<path class="st16" d="M1507.7,718.8l-29.8-17.2c-2.4-1.4-6.5-1.3-9.1,0.3l-33.2,19.4c-2.6,1.5-2.8,3.9-0.3,5.3l29.8,17.2
										c2.4,1.4,6.5,1.3,9.1-0.3l33.2-19.4C1509.9,722.5,1510.1,720.2,1507.7,718.8z"/>
									<path class="st16" d="M1472.6,754.2l-29.8-17.2c-2.4-1.4-6.5-1.3-9.1,0.3l-27.8,16.3c-2.6,1.5-2.8,3.9-0.3,5.3l29.8,17.2
										c2.4,1.4,6.5,1.3,9.1-0.3l27.8-16.3C1474.8,758,1475,755.6,1472.6,754.2z"/>
									<path class="st16" d="M1518.7,780.8l-29.8-17.2c-2.4-1.4-6.5-1.3-9.1,0.3l-27.8,16.3c-2.6,1.5-2.8,3.9-0.3,5.3l29.8,17.2
										c2.4,1.4,6.5,1.3,9.1-0.3l27.8-16.3C1520.9,784.5,1521.1,782.2,1518.7,780.8z"/>
									<path class="st16" d="M1564.8,807.4l-29.8-17.2c-2.4-1.4-6.5-1.3-9.1,0.3l-27.8,16.3c-2.6,1.5-2.8,3.9-0.3,5.3l29.8,17.2
										c2.4,1.4,6.5,1.3,9.1-0.3l27.8-16.3C1567,811.2,1567.2,808.8,1564.8,807.4z"/>
									<path class="st16" d="M1610.8,834l-29.8-17.2c-2.4-1.4-6.5-1.3-9.1,0.3l-27.8,16.3c-2.6,1.5-2.7,3.9-0.3,5.3l29.8,17.2
										c2.4,1.4,6.5,1.3,9.1-0.3l27.8-16.3C1613.1,837.8,1613.2,835.4,1610.8,834z"/>
									<path class="st16" d="M1656.9,860.7l-29.8-17.2c-2.4-1.4-6.5-1.3-9.1,0.3l-27.8,16.3c-2.6,1.5-2.7,3.9-0.3,5.3l29.8,17.2
										c2.4,1.4,6.5,1.3,9.1-0.3l27.8-16.3C1659.2,864.4,1659.3,862,1656.9,860.7z"/>
									<path class="st16" d="M1703,887.2l-29.8-17.2c-2.4-1.4-6.5-1.3-9.1,0.3l-27.8,16.3c-2.6,1.5-2.8,3.9-0.3,5.3l29.8,17.2
										c2.4,1.4,6.5,1.3,9.1-0.3l27.8-16.3C1705.2,891,1705.4,888.6,1703,887.2z"/>
									<path class="st16" d="M1749,913.8l-29.8-17.2c-2.4-1.4-6.5-1.3-9.1,0.3l-27.8,16.3c-2.6,1.5-2.8,3.9-0.3,5.3l29.8,17.2
										c2.4,1.4,6.5,1.3,9.1-0.3l27.8-16.3C1751.3,917.5,1751.4,915.2,1749,913.8z"/>
									<path class="st16" d="M1795.1,940.4l-29.8-17.2c-2.4-1.4-6.5-1.3-9.1,0.3l-27.8,16.3c-2.6,1.5-2.8,3.9-0.3,5.3l29.8,17.2
										c2.4,1.4,6.5,1.3,9.1-0.3l27.8-16.3C1797.4,944.2,1797.5,941.8,1795.1,940.4z"/>
									<path class="st16" d="M1841.2,967.1l-29.8-17.2c-2.4-1.4-6.5-1.3-9.1,0.3l-27.8,16.3c-2.6,1.5-2.8,3.9-0.3,5.3l29.8,17.2
										c2.4,1.4,6.5,1.3,9.1-0.3l27.8-16.3C1843.4,970.8,1843.6,968.4,1841.2,967.1z"/>
									<path class="st16" d="M1887.3,993.7l-29.8-17.2c-2.4-1.4-6.5-1.3-9.1,0.3l-27.8,16.3c-2.6,1.5-2.7,3.9-0.3,5.3l29.8,17.2
										c2.4,1.4,6.5,1.3,9.1-0.3l27.8-16.3C1889.5,997.4,1889.7,995,1887.3,993.7z"/>
									<path class="st16" d="M1453.4,792.2l-29.8-17.2c-2.4-1.4-6.5-1.3-9.1,0.3l-27.8,16.3c-2.6,1.5-2.7,3.9-0.3,5.3l29.8,17.2
										c2.4,1.4,6.5,1.3,9.1-0.3l27.8-16.3C1455.6,795.9,1455.8,793.6,1453.4,792.2z"/>
									<path class="st16" d="M1406.6,765.2l-29.8-17.2c-2.4-1.4-6.5-1.3-9.1,0.3l-27.8,16.3c-2.6,1.5-2.7,3.9-0.3,5.3l29.8,17.2
										c2.4,1.4,6.5,1.3,9.1-0.3l27.8-16.3C1408.9,768.9,1409.1,766.6,1406.6,765.2z"/>
									<path class="st16" d="M1359.8,738.2l-64.3-37.1c-2.4-1.4-6.5-1.3-9.1,0.3l-27.8,16.3c-2.6,1.5-2.7,3.9-0.3,5.3l64.3,37.1
										c2.4,1.4,6.5,1.3,9.1-0.3l27.8-16.3C1362,741.9,1362.3,739.5,1359.8,738.2z"/>
									<path class="st16" d="M1305.5,755.8l-52.2-30.1c-2.4-1.4-6.5-1.3-9.1,0.3l-27.8,16.3c-2.6,1.5-2.7,3.9-0.3,5.3l52.2,30.1
										c2.4,1.4,6.5,1.3,9.1-0.3l27.8-16.3C1307.7,759.6,1307.9,757.2,1305.5,755.8z"/>
									<path class="st16" d="M1499.5,818.8l-29.8-17.2c-2.4-1.4-6.5-1.3-9.1,0.3l-27.8,16.3c-2.6,1.5-2.8,3.9-0.3,5.3l29.8,17.2
										c2.4,1.4,6.5,1.3,9.1-0.3l27.8-16.3C1501.7,822.5,1501.9,820.2,1499.5,818.8z"/>
									<path class="st16" d="M1545.5,845.4l-29.8-17.2c-2.4-1.4-6.5-1.3-9.1,0.3l-27.8,16.3c-2.6,1.5-2.8,3.9-0.3,5.3l29.8,17.2
										c2.4,1.4,6.5,1.3,9.1-0.3l27.8-16.3C1547.8,849.1,1548,846.8,1545.5,845.4z"/>
									<path class="st16" d="M1591.7,872l-29.8-17.2c-2.4-1.4-6.5-1.3-9.1,0.3l-27.8,16.3c-2.6,1.5-2.8,3.9-0.3,5.3l29.8,17.2
										c2.4,1.4,6.5,1.3,9.1-0.3l27.8-16.3C1593.8,875.8,1594.1,873.4,1591.7,872z"/>
									<path class="st16" d="M1637.7,898.6l-29.8-17.2c-2.4-1.4-6.5-1.3-9.1,0.3L1571,898c-2.6,1.5-2.7,3.9-0.3,5.3l29.8,17.2
										c2.4,1.4,6.5,1.3,9.1-0.3l27.8-16.3C1639.9,902.4,1640.1,900,1637.7,898.6z"/>
									<path class="st16" d="M1683.8,925.2L1654,908c-2.4-1.4-6.5-1.3-9.1,0.3l-27.8,16.3c-2.6,1.5-2.7,3.9-0.3,5.3l29.8,17.2
										c2.4,1.4,6.5,1.3,9.1-0.3l27.8-16.3C1686,928.9,1686.2,926.6,1683.8,925.2z"/>
									<path class="st16" d="M1729.9,951.8l-29.8-17.2c-2.4-1.4-6.5-1.3-9.1,0.3l-27.8,16.3c-2.6,1.5-2.7,3.9-0.3,5.3l29.8,17.2
										c2.4,1.4,6.5,1.3,9.1-0.3l27.8-16.3C1732.1,955.5,1732.3,953.2,1729.9,951.8z"/>
									<path class="st16" d="M1775.9,978.4l-29.8-17.2c-2.4-1.4-6.5-1.3-9.1,0.3l-27.8,16.3c-2.6,1.5-2.8,3.9-0.3,5.3l29.8,17.2
										c2.4,1.4,6.5,1.3,9.1-0.3l27.8-16.3C1778.2,982.1,1778.3,979.8,1775.9,978.4z"/>
									<path class="st16" d="M1822,1005l-29.8-17.2c-2.4-1.4-6.5-1.3-9.1,0.3l-27.8,16.3c-2.6,1.5-2.7,3.9-0.3,5.3l29.8,17.2
										c2.4,1.4,6.5,1.3,9.1-0.3l27.8-16.3C1824.3,1008.8,1824.4,1006.4,1822,1005z"/>
									<path class="st16" d="M1868.1,1031.6l-29.8-17.2c-2.4-1.4-6.5-1.3-9.1,0.3l-27.8,16.3c-2.6,1.6-2.7,3.9-0.3,5.3l29.8,17.2
										c2.4,1.4,6.5,1.3,9.1-0.3l27.8-16.3C1870.3,1035.4,1870.5,1033,1868.1,1031.6z"/>
									<path class="st16" d="M1950,1078.9l-65.1-37.6c-2.4-1.4-6.5-1.3-9.1,0.3l-27.8,16.3c-2.6,1.5-2.8,3.9-0.3,5.3l65.1,37.6
										c2.4,1.4,6.5,1.3,9.1-0.3l27.8-16.3C1952.2,1082.7,1952.4,1080.3,1950,1078.9z"/>
									<path class="st16" d="M1865.5,1128.2l-54.9-31.7c-2.4-1.4-6.5-1.3-9.1,0.3l-27.8,16.3c-2.6,1.5-2.7,3.9-0.3,5.3l54.9,31.7
										c2.4,1.4,6.5,1.3,9.1-0.3l27.8-16.3C1867.8,1132,1867.9,1129.6,1865.5,1128.2z"/>
									<path class="st16" d="M1493.1,864.2l-29.8-17.2c-2.4-1.4-6.5-1.3-9.1,0.3l-27.8,16.3c-2.6,1.5-2.7,3.9-0.3,5.3l29.8,17.2
										c2.4,1.4,6.5,1.3,9.1-0.3l27.8-16.3C1495.3,867.9,1495.5,865.6,1493.1,864.2z"/>
									<path class="st16" d="M1445.9,836.9l-29.8-17.2c-2.4-1.4-6.5-1.3-9.1,0.3l-27.8,16.3c-2.6,1.5-2.7,3.9-0.3,5.3l29.8,17.2
										c2.4,1.4,6.5,1.3,9.1-0.3l27.8-16.3C1448.1,840.6,1448.3,838.3,1445.9,836.9z"/>
									<path class="st16" d="M1398.6,809.6l-29.8-17.2c-2.4-1.4-6.5-1.3-9.1,0.3l-27.8,16.3c-2.6,1.5-2.8,3.9-0.3,5.3l29.8,17.2
										c2.4,1.4,6.5,1.3,9.1-0.3l27.8-16.3C1400.9,813.4,1401.1,811,1398.6,809.6z"/>
									<path class="st16" d="M1351.4,782.4l-29.8-17.2c-2.4-1.4-6.5-1.3-9.1,0.3l-27.8,16.3c-2.6,1.5-2.7,3.9-0.3,5.3l29.8,17.2
										c2.4,1.4,6.5,1.3,9.1-0.3l27.8-16.3C1353.7,786.1,1353.8,783.8,1351.4,782.4z"/>
									<path class="st16" d="M1539.1,890.8l-29.8-17.2c-2.4-1.4-6.5-1.3-9.1,0.3l-27.8,16.3c-2.6,1.5-2.7,3.9-0.3,5.3l29.8,17.2
										c2.4,1.4,6.5,1.3,9.1-0.3l27.8-16.3C1541.4,894.5,1541.6,892.1,1539.1,890.8z"/>
									<path class="st16" d="M1585.3,917.3l-29.8-17.2c-2.4-1.4-6.5-1.3-9.1,0.3l-27.8,16.3c-2.6,1.5-2.8,3.9-0.3,5.3l29.8,17.2
										c2.4,1.4,6.5,1.3,9.1-0.3l27.8-16.3C1587.5,921.1,1587.7,918.7,1585.3,917.3z"/>
									<path class="st16" d="M1631.3,943.9l-29.8-17.2c-2.4-1.4-6.5-1.3-9.1,0.3l-27.8,16.3c-2.6,1.5-2.8,3.9-0.3,5.3l29.8,17.2
										c2.4,1.4,6.5,1.3,9.1-0.3l27.8-16.3C1633.5,947.7,1633.7,945.4,1631.3,943.9z"/>
									<path class="st16" d="M1677.4,970.6l-29.8-17.2c-2.4-1.4-6.5-1.3-9.1,0.3l-27.8,16.3c-2.6,1.5-2.7,3.9-0.3,5.3l29.8,17.2
										c2.4,1.4,6.5,1.3,9.1-0.3l27.8-16.3C1679.6,974.3,1679.8,972,1677.4,970.6z"/>
									<path class="st16" d="M1723.5,997.2l-29.8-17.2c-2.4-1.4-6.5-1.3-9.1,0.3l-27.8,16.3c-2.6,1.5-2.7,3.9-0.3,5.3l29.8,17.2
										c2.4,1.4,6.5,1.3,9.1-0.3l27.8-16.3C1725.7,1000.9,1725.9,998.6,1723.5,997.2z"/>
									<path class="st16" d="M1769.6,1023.8l-29.8-17.2c-2.4-1.4-6.5-1.3-9.1,0.3l-27.8,16.3c-2.6,1.5-2.7,3.9-0.3,5.3l29.8,17.2
										c2.4,1.4,6.5,1.3,9.1-0.3l27.8-16.3C1771.8,1027.5,1771.9,1025.1,1769.6,1023.8z"/>
									<path class="st16" d="M1815.6,1050.3l-29.8-17.2c-2.4-1.4-6.5-1.3-9.1,0.3l-27.8,16.3c-2.6,1.5-2.8,3.9-0.3,5.3l29.8,17.2
										c2.4,1.4,6.5,1.3,9.1-0.3l27.8-16.3C1817.9,1054.1,1818,1051.8,1815.6,1050.3z"/>
									<path class="st16" d="M1861.7,1077l-29.8-17.2c-2.4-1.4-6.5-1.3-9.1,0.3l-27.8,16.3c-2.6,1.5-2.7,3.9-0.3,5.3l29.8,17.2
										c2.4,1.4,6.5,1.3,9.1-0.3l27.8-16.3C1863.9,1080.8,1864.1,1078.4,1861.7,1077z"/>
									<path class="st16" d="M1907.8,1103.6l-29.8-17.2c-2.4-1.4-6.5-1.3-9.1,0.3l-27.8,16.3c-2.6,1.5-2.7,3.9-0.3,5.3l29.8,17.2
										c2.4,1.4,6.5,1.3,9.1-0.3l27.8-16.3C1910,1107.3,1910.1,1105,1907.8,1103.6z"/>
									<path class="st16" d="M1381.8,848.9l-29.8-17.2c-2.4-1.4-6.5-1.3-9.1,0.3l-27.8,16.3c-2.6,1.5-2.8,3.9-0.3,5.3l29.8,17.2
										c2.4,1.4,6.5,1.3,9.1-0.3l27.8-16.3C1383.9,852.7,1384.2,850.3,1381.8,848.9z"/>
									<path class="st16" d="M1335.9,822.5l-29.8-17.2c-2.4-1.4-6.5-1.3-9.1,0.3l-27.8,16.3c-2.6,1.5-2.8,3.9-0.3,5.3l29.8,17.2
										c2.4,1.4,6.5,1.3,9.1-0.3l27.8-16.3C1338.2,826.2,1338.3,823.9,1335.9,822.5z"/>
									<path class="st16" d="M1290.1,796l-29.8-17.2c-2.4-1.4-6.5-1.3-9.1,0.3l-27.8,16.3c-2.6,1.5-2.8,3.9-0.3,5.3l29.8,17.2
										c2.4,1.4,6.5,1.3,9.1-0.3l27.8-16.3C1292.3,799.7,1292.4,797.4,1290.1,796z"/>
									<path class="st16" d="M1244.2,769.5l-29.8-17.2c-2.4-1.4-6.5-1.3-9.1,0.3l-27.8,16.3c-2.6,1.5-2.7,3.9-0.3,5.3l29.8,17.2
										c2.4,1.4,6.5,1.3,9.1-0.3l27.8-16.3C1246.4,773.2,1246.6,770.9,1244.2,769.5z"/>
									<path class="st16" d="M1199.8,795.5l-29.8-17.2c-2.4-1.4-6.5-1.3-9.1,0.3l-9.2,5.4c-2.6,1.5-2.8,3.9-0.3,5.3l29.8,17.2
										c2.4,1.4,6.5,1.3,9.1-0.3l9.2-5.4C1202.1,799.2,1202.2,796.8,1199.8,795.5z"/>
									<path class="st16" d="M1259.7,830l-29.8-17.2c-2.4-1.4-6.5-1.3-9.1,0.3l-9.2,5.4c-2.6,1.5-2.7,3.9-0.3,5.3l29.8,17.2
										c2.4,1.4,6.5,1.3,9.1-0.3l9.2-5.4C1261.9,833.8,1262,831.4,1259.7,830z"/>
									<path class="st16" d="M1305.3,856.4l-29.8-17.2c-2.4-1.4-6.5-1.3-9.1,0.3l-9.2,5.4c-2.6,1.5-2.8,3.9-0.3,5.3l29.8,17.2
										c2.4,1.4,6.5,1.3,9.1-0.3l9.2-5.4C1307.5,860.1,1307.7,857.7,1305.3,856.4z"/>
									<path class="st16" d="M1350.9,882.7l-29.8-17.2c-2.4-1.4-6.5-1.3-9.1,0.3l-9.2,5.4c-2.6,1.5-2.7,3.9-0.3,5.3l29.8,17.2
										c2.4,1.4,6.5,1.3,9.1-0.3l9.2-5.4C1353.2,886.4,1353.3,884.1,1350.9,882.7z"/>
									<path class="st16" d="M1396.6,909l-29.8-17.2c-2.4-1.4-6.5-1.3-9.1,0.3l-9.2,5.4c-2.6,1.5-2.8,3.9-0.3,5.3L1378,920
										c2.4,1.4,6.5,1.3,9.1-0.3l9.2-5.4C1398.8,912.8,1399,910.5,1396.6,909z"/>
									<path class="st16" d="M1651.5,1056.2l-29.8-17.2c-2.4-1.4-6.5-1.3-9.1,0.3l-9.2,5.4c-2.6,1.6-2.7,3.9-0.3,5.3l29.8,17.2
										c2.4,1.4,6.5,1.3,9.1-0.3l9.2-5.4C1653.8,1060,1653.9,1057.7,1651.5,1056.2z"/>
									<path class="st16" d="M1697.2,1082.6l-29.8-17.2c-2.4-1.4-6.5-1.3-9.1,0.3l-9.2,5.4c-2.6,1.5-2.8,3.9-0.3,5.3l29.8,17.2
										c2.4,1.4,6.5,1.3,9.1-0.3l9.2-5.4C1699.4,1086.4,1699.5,1084,1697.2,1082.6z"/>
									<path class="st16" d="M1742.8,1109l-29.8-17.2c-2.4-1.4-6.5-1.3-9.1,0.3l-9.2,5.4c-2.6,1.6-2.8,3.9-0.3,5.3l29.8,17.2
										c2.4,1.4,6.5,1.3,9.1-0.3l9.2-5.4C1745,1112.7,1745.2,1110.3,1742.8,1109z"/>
									<path class="st16" d="M1788.4,1135.3l-29.8-17.2c-2.4-1.4-6.5-1.3-9.1,0.3l-9.2,5.4c-2.6,1.5-2.7,3.9-0.3,5.3l29.8,17.2
										c2.4,1.4,6.5,1.3,9.1-0.3l9.2-5.4C1790.7,1139,1790.8,1136.7,1788.4,1135.3z"/>
									<path class="st16" d="M1427.8,875.5l-29.8-17.2c-2.4-1.4-6.5-1.3-9.1,0.3l-27.8,16.3c-2.6,1.5-2.7,3.9-0.3,5.3l29.8,17.2
										c2.4,1.4,6.5,1.3,9.1-0.3l27.8-16.3C1430.1,879.3,1430.2,877,1427.8,875.5z"/>
									<path class="st16" d="M1473.9,902.2l-29.8-17.2c-2.4-1.4-6.5-1.3-9.1,0.3l-27.8,16.3c-2.6,1.5-2.7,3.9-0.3,5.3l29.8,17.2
										c2.4,1.4,6.5,1.3,9.1-0.3l27.8-16.3C1476.2,905.9,1476.3,903.5,1473.9,902.2z"/>
									<path class="st16" d="M1520,928.7l-29.8-17.2c-2.4-1.4-6.5-1.3-9.1,0.3l-27.8,16.3c-2.6,1.5-2.8,3.9-0.3,5.3l29.8,17.2
										c2.4,1.4,6.5,1.3,9.1-0.3l27.8-16.3C1522.2,932.5,1522.4,930.1,1520,928.7z"/>
									<path class="st16" d="M1566,955.3l-29.8-17.2c-2.4-1.4-6.5-1.3-9.1,0.3l-27.8,16.3c-2.6,1.5-2.7,3.9-0.3,5.3l29.8,17.2
										c2.4,1.4,6.5,1.3,9.1-0.3l27.8-16.3C1568.3,959,1568.4,956.7,1566,955.3z"/>
									<path class="st16" d="M1612.1,981.9l-29.8-17.2c-2.4-1.4-6.5-1.3-9.1,0.3l-27.8,16.3c-2.6,1.5-2.7,3.9-0.3,5.3l29.8,17.2
										c2.4,1.4,6.5,1.3,9.1-0.3l27.8-16.3C1614.3,985.7,1614.5,983.3,1612.1,981.9z"/>
									<path class="st16" d="M1658.2,1008.6l-29.8-17.2c-2.4-1.4-6.5-1.3-9.1,0.3l-27.8,16.3c-2.6,1.5-2.7,3.9-0.3,5.3l29.8,17.2
										c2.4,1.4,6.5,1.3,9.1-0.3l27.8-16.3C1660.4,1012.3,1660.6,1010,1658.2,1008.6z"/>
									<path class="st16" d="M1704.3,1035.2l-29.8-17.2c-2.4-1.4-6.5-1.3-9.1,0.3l-27.8,16.3c-2.6,1.5-2.8,3.9-0.3,5.3l29.8,17.2
										c2.4,1.4,6.5,1.3,9.1-0.3l27.8-16.3C1706.5,1038.9,1706.7,1036.5,1704.3,1035.2z"/>
									<path class="st16" d="M1750.4,1061.7l-29.8-17.2c-2.4-1.4-6.5-1.3-9.1,0.3l-27.8,16.3c-2.6,1.6-2.8,3.9-0.3,5.3l29.8,17.2
										c2.4,1.4,6.5,1.3,9.1-0.3l27.8-16.3C1752.6,1065.5,1752.8,1063.1,1750.4,1061.7z"/>
									<path class="st16" d="M1796.4,1088.3l-29.8-17.2c-2.4-1.4-6.5-1.3-9.1,0.3l-27.8,16.3c-2.6,1.5-2.7,3.9-0.3,5.3l29.8,17.2
										c2.4,1.4,6.5,1.3,9.1-0.3l27.8-16.3C1798.6,1092.1,1798.8,1089.7,1796.4,1088.3z"/>
									<path class="st16" d="M1425.7,727.1l-87.8-50.7c-2.4-1.4-6.5-1.3-9.1,0.3l-27.8,16.3c-2.6,1.5-2.7,3.9-0.3,5.3l87.8,50.7
										c2.4,1.4,6.5,1.3,9.1-0.3l27.8-16.3C1427.9,730.9,1428.1,728.5,1425.7,727.1z"/>
									<path class="st16" d="M1991.7,1053.9l-87.8-50.7c-2.4-1.4-6.5-1.3-9.1,0.3l-27.8,16.3c-2.6,1.5-2.8,3.9-0.3,5.3l87.8,50.7
										c2.4,1.4,6.5,1.3,9.1-0.3l27.8-16.3C1993.9,1057.7,1994.1,1055.3,1991.7,1053.9z"/>
									<path class="st16" d="M1906.2,948.9l-29.8-17.2c-2.4-1.4-6.5-1.3-9.1,0.3l-33.2,19.4c-2.6,1.5-2.8,3.9-0.3,5.3l29.8,17.2
										c2.4,1.4,6.5,1.3,9.1-0.3l33.2-19.4C1908.4,952.7,1908.7,950.3,1906.2,948.9z"/>
									<path class="st16" d="M1571.7,755.7l-47.7-27.5c-2.4-1.4-6.5-1.3-9.1,0.3l-33.2,19.4c-2.6,1.5-2.8,3.9-0.3,5.3l47.7,27.5
										c2.4,1.4,6.5,1.3,9.1-0.3l33.2-19.4C1573.9,759.5,1574,757.2,1571.7,755.7z"/>
									<path class="st16" d="M1861.8,923.3l-47.7-27.5c-2.4-1.4-6.5-1.3-9.1,0.3l-33.2,19.4c-2.6,1.5-2.8,3.9-0.3,5.3l47.7,27.5
										c2.4,1.4,6.5,1.3,9.1-0.3l33.2-19.4C1864.1,927,1864.2,924.7,1861.8,923.3z"/>
									<path class="st16" d="M1638.1,794.2l-47.7-27.5c-2.4-1.4-6.5-1.3-9.1,0.3l-33.2,19.4c-2.6,1.5-2.8,3.9-0.3,5.3l47.7,27.5
										c2.4,1.4,6.5,1.3,9.1-0.3l33.2-19.4C1640.3,797.9,1640.6,795.5,1638.1,794.2z"/>
									<path class="st16" d="M1548.1,791.6l207.4,119.8c2.6,1.5,6.6,1.5,9.1,0.1l33.8-19.7c2.5-1.4,2.3-3.8-0.3-5.3l-207.4-119.8
										L1548.1,791.6z"/>
									<path class="st16" d="M1991.1,1022.7l33.2,19.2c2,1.1,5.3,1.1,7.4-0.2l13.6-7.9c2.1-1.3,2.3-3.2,0.3-4.3l-33.2-19.2
										c-2-1.1-5.3-1-7.4,0.2l-13.6,7.9C1989.3,1019.6,1989.1,1021.5,1991.1,1022.7z"/>
									<path class="st16" d="M1944.6,995.8l33.2,19.2c2,1.1,5.3,1,7.4-0.2l13.6-7.9c2.1-1.3,2.3-3.2,0.3-4.3l-33.2-19.2
										c-2-1.1-5.3-1-7.4,0.2l-13.6,7.9C1942.8,992.8,1942.7,994.7,1944.6,995.8z"/>
									<path class="st16" d="M1898.6,969.2l33.2,19.2c2,1.1,5.3,1,7.4-0.2l13.6-7.9c2.1-1.3,2.3-3.2,0.3-4.3l-33.2-19.2
										c-2-1.1-5.3-1-7.4,0.2l-13.6,7.9C1896.7,966.1,1896.6,968.1,1898.6,969.2z"/>
									<path class="st16" d="M1920.7,1009.8l33.2,19.2c2,1.1,5.3,1.1,7.4-0.2l13.6-7.9c2.1-1.3,2.3-3.2,0.3-4.3l-33.2-19.2
										c-2-1.1-5.3-1-7.4,0.2l-13.6,7.9C1918.8,1006.8,1918.7,1008.7,1920.7,1009.8z"/>
								</g>
							</g>
						</g>
					</g>
				</g>
			</g>
			<g class="st17">
				<path class="st18" d="M766.2,1036.3l-29.6-17.1c-2.4-1.3-2.1-3.8,0.6-5.3l34.9-20.2c2.7-1.6,6.9-1.8,9.3-0.3l29.6,17.1
					c2.4,1.4,2.1,3.8-0.6,5.3l-34.9,20.2C772.7,1037.5,768.6,1037.6,766.2,1036.3z"/>
				<path class="st18" d="M811.8,1062.6l-29.6-17.1c-2.4-1.4-2.1-3.8,0.6-5.3l34.9-20.2c2.7-1.6,6.9-1.8,9.3-0.3l29.6,17.1
					c2.4,1.4,2.1,3.8-0.6,5.3l-34.9,20.2C818.4,1063.8,814.2,1064,811.8,1062.6z"/>
				<path class="st18" d="M857.5,1089l-29.6-17.1c-2.4-1.3-2.1-3.8,0.6-5.3l34.9-20.2c2.7-1.6,6.9-1.8,9.3-0.3l29.6,17.1
					c2.4,1.4,2.1,3.8-0.6,5.3l-34.9,20.2C864,1090.2,859.9,1090.3,857.5,1089z"/>
				<path class="st18" d="M920.6,1067.2l-29.6-17.1c-2.4-1.4-2.1-3.8,0.6-5.3l29.3-16.9c2.7-1.6,6.9-1.8,9.3-0.3l29.6,17.1
					c2.4,1.4,2.1,3.8-0.6,5.3l-29.3,16.9C927.1,1068.4,922.9,1068.6,920.6,1067.2z"/>
				<path class="st18" d="M966.2,1093.5l-29.6-17.1c-2.4-1.4-2.1-3.8,0.6-5.3l29.3-16.9c2.7-1.6,6.9-1.8,9.3-0.3l29.6,17.1
					c2.4,1.3,2.1,3.8-0.6,5.3l-29.3,16.9C972.7,1094.7,968.6,1094.9,966.2,1093.5z"/>
				<path class="st18" d="M1011.8,1119.9l-29.6-17.1c-2.4-1.4-2.1-3.8,0.6-5.3l29.3-16.9c2.7-1.6,6.9-1.8,9.3-0.3l29.6,17.1
					c2.4,1.4,2.1,3.8-0.6,5.3l-29.3,16.9C1018.4,1121.1,1014.2,1121.3,1011.8,1119.9z"/>
				<path class="st18" d="M1057.5,1146.2l-29.6-17.1c-2.4-1.4-2.1-3.8,0.6-5.3l29.3-16.9c2.7-1.6,6.9-1.8,9.3-0.3l29.6,17.1
					c2.4,1.4,2.1,3.8-0.6,5.3l-29.3,16.9C1064,1147.5,1059.9,1147.6,1057.5,1146.2z"/>
				<path class="st18" d="M1103.1,1172.6l-29.6-17.1c-2.4-1.4-2.1-3.8,0.6-5.3l29.3-16.9c2.7-1.6,6.9-1.8,9.3-0.3l29.6,17.1
					c2.4,1.4,2.1,3.8-0.6,5.3l-29.3,16.9C1109.7,1173.8,1105.5,1173.9,1103.1,1172.6z"/>
				<path class="st18" d="M1148.8,1198.9l-29.6-17.1c-2.4-1.4-2.1-3.8,0.6-5.3l29.3-16.9c2.7-1.6,6.9-1.8,9.3-0.3l29.6,17.1
					c2.4,1.4,2.1,3.8-0.6,5.3l-29.3,16.9C1155.2,1200.1,1151.1,1200.3,1148.8,1198.9z"/>
				<path class="st18" d="M1194.3,1225.3l-29.6-17.1c-2.4-1.3-2.1-3.8,0.6-5.3l29.3-16.9c2.7-1.6,6.9-1.8,9.3-0.3l29.6,17.1
					c2.4,1.3,2.1,3.8-0.6,5.3l-29.3,16.9C1200.9,1226.5,1196.7,1226.6,1194.3,1225.3z"/>
				<path class="st18" d="M1240,1251.6l-29.6-17.1c-2.4-1.4-2.1-3.8,0.6-5.3l29.3-16.9c2.7-1.6,6.9-1.8,9.3-0.3l29.6,17.1
					c2.4,1.3,2.1,3.8-0.6,5.3l-29.3,16.9C1246.5,1252.8,1242.4,1253,1240,1251.6z"/>
				<path class="st18" d="M1285.6,1277.9l-29.6-17.1c-2.4-1.4-2.1-3.8,0.6-5.3l29.3-16.9c2.7-1.6,6.9-1.8,9.3-0.3l29.6,17.1
					c2.4,1.4,2.1,3.8-0.6,5.3l-29.3,16.9C1292.2,1279.1,1288,1279.3,1285.6,1277.9z"/>
				<path class="st18" d="M1331.3,1304.3l-29.6-17.1c-2.4-1.4-2.1-3.8,0.6-5.3l29.3-16.9c2.7-1.6,6.9-1.8,9.3-0.3l29.6,17.1
					c2.4,1.4,2.1,3.8-0.6,5.3l-29.3,16.9C1337.7,1305.5,1333.6,1305.7,1331.3,1304.3z"/>
				<path class="st18" d="M987.8,1054.7l-29.6-17.1c-2.4-1.3-2.1-3.8,0.6-5.3l29.3-16.9c2.7-1.6,6.9-1.8,9.3-0.3l29.6,17.1
					c2.4,1.3,2.1,3.8-0.6,5.3l-29.3,16.9C994.3,1055.9,990.2,1056.1,987.8,1054.7z"/>
				<path class="st18" d="M941.5,1028l-29.6-17.1c-2.4-1.3-2.1-3.8,0.6-5.3l29.3-16.9c2.7-1.6,6.9-1.8,9.3-0.3l29.6,17.1
					c2.4,1.4,2.1,3.8-0.6,5.3l-29.3,16.9C948,1029.2,943.8,1029.3,941.5,1028z"/>
				<path class="st18" d="M895.1,1001.2l-63.6-36.7c-2.4-1.4-2.1-3.8,0.6-5.3l29.3-16.9c2.7-1.6,6.9-1.8,9.3-0.3l63.6,36.7
					c2.4,1.3,2.1,3.8-0.6,5.3l-29.3,16.9C901.6,1002.4,897.5,1002.6,895.1,1001.2z"/>
				<path class="st18" d="M927.6,968.6L876,938.7c-2.4-1.4-2.1-3.8,0.6-5.3l29.3-16.9c2.7-1.6,6.9-1.8,9.3-0.3l51.6,29.8
					c2.4,1.4,2.1,3.8-0.6,5.3l-29.3,16.9C934.1,969.9,929.9,970,927.6,968.6z"/>
				<path class="st18" d="M1033.4,1081.1l-29.6-17.1c-2.4-1.4-2.1-3.8,0.6-5.3l29.3-16.9c2.7-1.6,6.9-1.8,9.3-0.3l29.6,17.1
					c2.4,1.4,2.1,3.8-0.6,5.3l-29.3,16.9C1040,1082.3,1035.8,1082.4,1033.4,1081.1z"/>
				<path class="st18" d="M1079.1,1107.4l-29.6-17.1c-2.4-1.4-2.1-3.8,0.6-5.3l29.3-16.9c2.7-1.6,6.9-1.8,9.3-0.3l29.6,17.1
					c2.4,1.4,2.1,3.8-0.6,5.3l-29.3,16.9C1085.6,1108.6,1081.4,1108.8,1079.1,1107.4z"/>
				<path class="st18" d="M1124.7,1133.8l-29.6-17.1c-2.4-1.4-2.1-3.8,0.6-5.3l29.3-16.9c2.7-1.6,6.9-1.8,9.3-0.3l29.6,17.1
					c2.4,1.4,2.1,3.8-0.6,5.3l-29.3,16.9C1131.2,1135,1127.1,1135.1,1124.7,1133.8z"/>
				<path class="st18" d="M1170.3,1160.1l-29.6-17.1c-2.4-1.4-2.1-3.8,0.6-5.3l29.3-16.9c2.7-1.6,6.9-1.8,9.3-0.3l29.6,17.1
					c2.4,1.4,2.1,3.8-0.6,5.3l-29.3,16.9C1176.8,1161.3,1172.7,1161.4,1170.3,1160.1z"/>
				<path class="st18" d="M1216,1186.4l-29.6-17.1c-2.4-1.3-2.1-3.8,0.6-5.3l29.3-16.9c2.7-1.6,6.9-1.8,9.3-0.3l29.6,17.1
					c2.4,1.4,2.1,3.8-0.6,5.3l-29.3,16.9C1222.5,1187.6,1218.4,1187.8,1216,1186.4z"/>
				<path class="st18" d="M1261.6,1212.8l-29.6-17.1c-2.4-1.4-2.1-3.8,0.6-5.3l29.3-16.9c2.7-1.6,6.9-1.8,9.3-0.3l29.6,17.1
					c2.4,1.4,2.1,3.8-0.6,5.3l-29.3,16.9C1268.1,1214,1263.9,1214.2,1261.6,1212.8z"/>
				<path class="st18" d="M1307.2,1239.1l-29.6-17.1c-2.4-1.3-2.1-3.8,0.6-5.3l29.3-16.9c2.7-1.6,6.9-1.8,9.3-0.3l29.6,17.1
					c2.4,1.4,2.1,3.8-0.6,5.3l-29.3,16.9C1313.7,1240.4,1309.6,1240.5,1307.2,1239.1z"/>
				<path class="st18" d="M1352.8,1265.5l-29.6-17.1c-2.4-1.3-2.1-3.8,0.6-5.3l29.3-16.9c2.7-1.6,6.9-1.8,9.3-0.3l29.6,17.1
					c2.4,1.3,2.1,3.8-0.6,5.3l-29.3,16.9C1359.4,1266.7,1355.2,1266.8,1352.8,1265.5z"/>
				<path class="st18" d="M1398.5,1291.8l-29.6-17.1c-2.4-1.4-2.1-3.8,0.6-5.3l29.3-16.9c2.7-1.6,6.9-1.8,9.3-0.3l29.6,17.1
					c2.4,1.3,2.1,3.8-0.6,5.3l-29.3,16.9C1405,1293,1400.9,1293.2,1398.5,1291.8z"/>
				<path class="st18" d="M1479.6,1338.7l-64.5-37.2c-2.4-1.4-2.1-3.8,0.6-5.3l29.3-16.9c2.7-1.6,6.9-1.8,9.3-0.3l64.5,37.2
					c2.4,1.4,2.1,3.8-0.6,5.3l-29.3,16.9C1486.1,1339.9,1482,1340,1479.6,1338.7z"/>
				<path class="st18" d="M1568.4,1287.3L1514,1256c-2.4-1.3-2.1-3.8,0.6-5.3l29.3-16.9c2.7-1.6,6.9-1.8,9.3-0.3l54.4,31.4
					c2.4,1.3,2.1,3.8-0.6,5.3l-29.3,16.9C1575,1288.5,1570.8,1288.8,1568.4,1287.3z"/>
				<path class="st18" d="M1113.4,1075.9l-29.6-17.1c-2.4-1.4-2.1-3.8,0.6-5.3l29.3-16.9c2.7-1.6,6.9-1.8,9.3-0.3l29.6,17.1
					c2.4,1.4,2.1,3.8-0.6,5.3l-29.3,16.9C1119.9,1077.1,1115.8,1077.3,1113.4,1075.9z"/>
				<path class="st18" d="M1066.6,1048.9l-29.6-17.1c-2.4-1.4-2.1-3.8,0.6-5.3l29.3-16.9c2.7-1.6,6.9-1.8,9.3-0.3l29.6,17.1
					c2.4,1.4,2.1,3.8-0.6,5.3l-29.3,16.9C1073.1,1050.1,1069,1050.3,1066.6,1048.9z"/>
				<path class="st18" d="M1019.8,1021.9l-29.6-17.1c-2.4-1.4-2.1-3.8,0.6-5.3l29.3-16.9c2.7-1.6,6.9-1.8,9.3-0.3l29.6,17.1
					c2.4,1.4,2.1,3.8-0.6,5.3l-29.3,16.9C1026.4,1023.1,1022.2,1023.3,1019.8,1021.9z"/>
				<path class="st18" d="M973.1,994.9l-29.6-17.1c-2.4-1.3-2.1-3.8,0.6-5.3l29.3-16.9c2.7-1.6,6.9-1.8,9.3-0.3l29.6,17.1
					c2.4,1.4,2.1,3.8-0.6,5.3l-29.3,16.9C979.6,996.1,975.5,996.3,973.1,994.9z"/>
				<path class="st18" d="M1158.9,1102.2l-29.6-17.1c-2.4-1.4-2.1-3.8,0.6-5.3l29.3-16.9c2.7-1.6,6.9-1.8,9.3-0.3l29.6,17.1
					c2.4,1.4,2.1,3.8-0.6,5.3l-29.3,16.9C1165.5,1103.4,1161.3,1103.6,1158.9,1102.2z"/>
				<path class="st18" d="M1204.6,1128.6l-29.6-17.1c-2.4-1.4-2.1-3.8,0.6-5.3l29.3-16.9c2.7-1.6,6.9-1.8,9.3-0.3l29.6,17.1
					c2.4,1.4,2.1,3.8-0.6,5.3l-29.3,16.9C1211.1,1129.8,1207,1130,1204.6,1128.6z"/>
				<path class="st18" d="M1250.2,1155l-29.6-17.1c-2.4-1.4-2.1-3.8,0.6-5.3l29.3-16.9c2.7-1.6,6.9-1.8,9.3-0.3l29.6,17.1
					c2.4,1.4,2.1,3.8-0.6,5.3l-29.3,16.9C1256.8,1156.2,1252.6,1156.3,1250.2,1155z"/>
				<path class="st18" d="M1295.9,1181.3l-29.6-17.1c-2.4-1.3-2.1-3.8,0.6-5.3l29.3-16.9c2.7-1.6,6.9-1.8,9.3-0.3l29.6,17.1
					c2.4,1.4,2.1,3.8-0.6,5.3l-29.3,16.9C1302.4,1182.5,1298.3,1182.7,1295.9,1181.3z"/>
				<path class="st18" d="M1341.5,1207.7l-29.6-17.1c-2.4-1.3-2.1-3.8,0.6-5.3l29.3-16.9c2.7-1.6,6.9-1.8,9.3-0.3l29.6,17.1
					c2.4,1.3,2.1,3.8-0.6,5.3l-29.3,16.9C1348,1208.8,1343.8,1209,1341.5,1207.7z"/>
				<path class="st18" d="M1387.1,1234l-29.6-17.1c-2.4-1.4-2.1-3.8,0.6-5.3l29.3-16.9c2.7-1.6,6.9-1.8,9.3-0.3l29.6,17.1
					c2.4,1.3,2.1,3.8-0.6,5.3l-29.3,16.9C1393.6,1235.2,1389.5,1235.4,1387.1,1234z"/>
				<path class="st18" d="M1432.8,1260.3l-29.6-17.1c-2.4-1.4-2.1-3.8,0.6-5.3l29.3-16.9c2.7-1.6,6.9-1.8,9.3-0.3l29.6,17.1
					c2.4,1.4,2.1,3.8-0.6,5.3L1442,1260C1439.3,1261.5,1435.1,1261.7,1432.8,1260.3z"/>
				<path class="st18" d="M1478.4,1286.7l-29.6-17.1c-2.4-1.4-2.1-3.8,0.6-5.3l29.3-16.9c2.7-1.6,6.9-1.8,9.3-0.3l29.6,17.1
					c2.4,1.4,2.1,3.8-0.6,5.3l-29.3,16.9C1484.9,1287.8,1480.8,1288.1,1478.4,1286.7z"/>
				<path class="st18" d="M1524,1313l-29.6-17.1c-2.4-1.4-2.1-3.8,0.6-5.3l29.3-16.9c2.7-1.6,6.9-1.8,9.3-0.3l29.6,17.1
					c2.4,1.4,2.1,3.8-0.6,5.3l-29.3,16.9C1530.5,1314.3,1526.4,1314.4,1524,1313z"/>
				<path class="st18" d="M1089.3,1010.7l-29.6-17.1c-2.4-1.3-2.1-3.8,0.6-5.3l29.3-16.9c2.7-1.6,6.9-1.8,9.3-0.3l29.6,17.1
					c2.4,1.3,2.1,3.8-0.6,5.3l-29.3,16.9C1095.8,1011.9,1091.7,1012.1,1089.3,1010.7z"/>
				<path class="st18" d="M1043.9,984.5l-29.6-17.1c-2.4-1.4-2.1-3.8,0.6-5.3l29.3-16.9c2.7-1.6,6.9-1.8,9.3-0.3l29.6,17.1
					c2.4,1.4,2.1,3.8-0.6,5.3l-29.3,16.9C1050.4,985.7,1046.3,985.9,1043.9,984.5z"/>
				<path class="st18" d="M998.5,958.3l-29.6-17.1c-2.4-1.4-2.1-3.8,0.6-5.3l29.3-16.9c2.7-1.6,6.9-1.8,9.3-0.3l29.6,17.1
					c2.4,1.4,2.1,3.8-0.6,5.3l-29.3,16.9C1005,959.5,1000.9,959.7,998.5,958.3z"/>
				<path class="st18" d="M953.1,932.1L923.6,915c-2.4-1.3-2.1-3.8,0.6-5.3l29.3-16.9c2.7-1.6,6.9-1.8,9.3-0.3l29.6,17.1
					c2.4,1.3,2.1,3.8-0.6,5.3l-29.3,16.9C959.7,933.3,955.5,933.5,953.1,932.1z"/>
				<path class="st18" d="M999.8,905.2l-29.6-17.1c-2.4-1.4-2.1-3.8,0.6-5.3l9.7-5.6c2.7-1.6,6.9-1.8,9.3-0.3l29.6,17.1
					c2.4,1.4,2.1,3.8-0.6,5.3l-9.7,5.6C1006.3,906.4,1002.2,906.5,999.8,905.2z"/>
				<path class="st18" d="M1059.1,939.4l-29.6-17.1c-2.4-1.4-2.1-3.8,0.6-5.3l9.7-5.6c2.7-1.6,6.9-1.8,9.3-0.3l29.6,17.1
					c2.4,1.3,2.1,3.8-0.6,5.3l-9.7,5.6C1065.6,940.6,1061.4,940.7,1059.1,939.4z"/>
				<path class="st18" d="M1104.2,965.4l-29.6-17.1c-2.4-1.4-2.1-3.8,0.6-5.3l9.7-5.6c2.7-1.6,6.9-1.8,9.3-0.3l29.6,17.1
					c2.4,1.4,2.1,3.8-0.6,5.3l-9.7,5.6C1110.8,966.6,1106.6,966.8,1104.2,965.4z"/>
				<path class="st18" d="M1149.5,991.6l-29.6-17.1c-2.4-1.4-2.1-3.8,0.6-5.3l9.7-5.6c2.7-1.6,6.9-1.8,9.3-0.3l29.6,17.1
					c2.4,1.4,2.1,3.8-0.6,5.3l-9.7,5.6C1156,992.8,1151.8,993,1149.5,991.6z"/>
				<path class="st18" d="M1194.7,1017.7l-29.6-17.1c-2.4-1.4-2.1-3.8,0.6-5.3l9.7-5.6c2.7-1.6,6.9-1.8,9.3-0.3l29.6,17.1
					c2.4,1.4,2.1,3.8-0.6,5.3l-9.7,5.6C1201.2,1018.9,1197.1,1019,1194.7,1017.7z"/>
				<path class="st18" d="M1447.2,1163.4l-29.6-17.1c-2.4-1.4-2.1-3.8,0.6-5.3l9.7-5.6c2.7-1.6,6.9-1.8,9.3-0.3l29.6,17.1
					c2.4,1.4,2.1,3.8-0.6,5.3l-9.7,5.6C1453.6,1164.6,1449.5,1164.8,1447.2,1163.4z"/>
				<path class="st18" d="M1492.3,1189.5l-29.6-17.1c-2.4-1.4-2.1-3.8,0.6-5.3l9.7-5.6c2.7-1.6,6.9-1.8,9.3-0.3l29.6,17.1
					c2.4,1.4,2.1,3.8-0.6,5.3l-9.7,5.6C1498.8,1190.7,1494.7,1190.9,1492.3,1189.5z"/>
				<path class="st18" d="M1537.5,1215.7l-29.6-17.1c-2.4-1.4-2.1-3.8,0.6-5.3l9.7-5.6c2.7-1.6,6.9-1.8,9.3-0.3l29.6,17.1
					c2.4,1.4,2.1,3.8-0.6,5.3l-9.7,5.6C1544.1,1216.8,1539.9,1217,1537.5,1215.7z"/>
				<path class="st18" d="M1582.8,1241.7l-29.6-17.1c-2.4-1.4-2.1-3.8,0.6-5.3l9.7-5.6c2.7-1.6,6.9-1.8,9.3-0.3l29.6,17.1
					c2.4,1.4,2.1,3.8-0.6,5.3l-9.7,5.6C1589.3,1242.9,1585.1,1243.1,1582.8,1241.7z"/>
				<path class="st18" d="M1134.9,1037.1l-29.6-17.1c-2.4-1.4-2.1-3.8,0.6-5.3l29.3-16.9c2.7-1.6,6.9-1.8,9.3-0.3l29.6,17.1
					c2.4,1.3,2.1,3.8-0.6,5.3l-29.3,16.9C1141.5,1038.3,1137.3,1038.5,1134.9,1037.1z"/>
				<path class="st18" d="M1180.6,1063.5l-29.6-17.1c-2.4-1.4-2.1-3.8,0.6-5.3l29.3-16.9c2.7-1.6,6.9-1.8,9.3-0.4l29.6,17.1
					c2.4,1.4,2.1,3.8-0.6,5.3l-29.3,16.9C1187.1,1064.7,1183,1064.8,1180.6,1063.5z"/>
				<path class="st18" d="M1226.2,1089.8l-29.6-17.1c-2.4-1.4-2.1-3.8,0.6-5.3l29.3-16.9c2.7-1.6,6.9-1.8,9.3-0.3l29.6,17.1
					c2.4,1.4,2.1,3.8-0.6,5.3l-29.3,16.9C1232.8,1091,1228.6,1091.1,1226.2,1089.8z"/>
				<path class="st18" d="M1271.9,1116.1l-29.6-17.1c-2.4-1.4-2.1-3.8,0.6-5.3l29.3-16.9c2.7-1.6,6.9-1.8,9.3-0.3l29.6,17.1
					c2.4,1.4,2.1,3.8-0.6,5.3l-29.3,16.9C1278.3,1117.3,1274.2,1117.5,1271.9,1116.1z"/>
				<path class="st18" d="M1317.4,1142.5l-29.6-17.1c-2.4-1.3-2.1-3.8,0.6-5.3l29.3-16.9c2.7-1.6,6.9-1.8,9.3-0.3l29.6,17.1
					c2.4,1.4,2.1,3.8-0.6,5.3l-29.3,16.9C1324,1143.7,1319.8,1143.8,1317.4,1142.5z"/>
				<path class="st18" d="M1363.1,1168.8l-29.6-17.1c-2.4-1.4-2.1-3.8,0.6-5.3l29.3-16.9c2.7-1.6,6.9-1.8,9.3-0.3l29.6,17.1
					c2.4,1.3,2.1,3.8-0.6,5.3l-29.3,16.9C1369.6,1170,1365.5,1170.2,1363.1,1168.8z"/>
				<path class="st18" d="M1408.7,1195.2l-29.6-17.1c-2.4-1.4-2.1-3.8,0.6-5.3l29.3-16.9c2.7-1.6,6.9-1.8,9.3-0.3l29.6,17.1
					c2.4,1.4,2.1,3.8-0.6,5.3l-29.3,16.9C1415.3,1196.3,1411.1,1196.6,1408.7,1195.2z"/>
				<path class="st18" d="M1454.4,1221.5l-29.6-17.1c-2.4-1.3-2.1-3.8,0.6-5.3l29.3-16.9c2.7-1.6,6.9-1.8,9.3-0.3l29.6,17.1
					c2.4,1.4,2.1,3.8-0.6,5.3l-29.3,16.9C1460.9,1222.7,1456.8,1222.9,1454.4,1221.5z"/>
				<path class="st18" d="M1500,1247.9l-29.6-17.1c-2.4-1.4-2.1-3.8,0.6-5.3l29.3-16.9c2.7-1.6,6.9-1.8,9.3-0.3l29.6,17.1
					c2.4,1.3,2.1,3.8-0.6,5.3l-29.3,16.9C1506.5,1249.1,1502.3,1249.2,1500,1247.9z"/>
				<path class="st18" d="M874,1040.4l-87-50.2c-2.4-1.3-2.1-3.8,0.6-5.3l29.3-16.9c2.7-1.6,6.9-1.8,9.3-0.3l87,50.2
					c2.4,1.4,2.1,3.8-0.6,5.3l-29.3,16.9C880.6,1041.6,876.4,1041.7,874,1040.4z"/>
				<path class="st18" d="M1434.7,1364l-87-50.2c-2.4-1.4-2.1-3.8,0.6-5.3l29.3-16.9c2.7-1.6,6.9-1.8,9.3-0.3l87,50.2
					c2.4,1.3,2.1,3.8-0.6,5.3l-29.3,16.9C1441.2,1365.2,1437,1365.4,1434.7,1364z"/>
				<path class="st18" d="M1252.2,1316.8l-29.6-17.1c-2.4-1.3-2.1-3.8,0.6-5.3l34.9-20.2c2.7-1.6,6.9-1.8,9.3-0.3l29.6,17.1
					c2.4,1.3,2.1,3.8-0.6,5.3l-34.9,20.2C1258.7,1318,1254.5,1318.2,1252.2,1316.8z"/>
				<path class="st18" d="M920.8,1125.6l-47.3-27.3c-2.4-1.3-2.1-3.8,0.6-5.3l34.9-20.2c2.7-1.6,6.9-1.8,9.3-0.3l47.3,27.3
					c2.4,1.4,2.1,3.8-0.6,5.3l-34.9,20.2C927.3,1126.8,923.2,1126.9,920.8,1125.6z"/>
				<path class="st18" d="M1208.2,1291.4l-47.3-27.3c-2.4-1.4-2.1-3.8,0.6-5.3l34.9-20.2c2.7-1.6,6.9-1.8,9.3-0.3l47.3,27.3
					c2.4,1.4,2.1,3.8-0.6,5.3l-34.9,20.2C1214.7,1292.6,1210.6,1292.8,1208.2,1291.4z"/>
				<path class="st18" d="M986.6,1163.5l-47.3-27.3c-2.4-1.4-2.1-3.8,0.6-5.3l34.9-20.2c2.7-1.6,6.9-1.8,9.3-0.3l47.3,27.3
					c2.4,1.4,2.1,3.8-0.6,5.3l-34.9,20.2C993.2,1164.7,989,1164.9,986.6,1163.5z"/>
				<path class="st18" d="M984.5,1110.6l205.5,118.6c2.5,1.5,2.5,3.9,0,5.3l-35.5,20.5c-2.5,1.5-6.7,1.5-9.2,0l-205.5-118.6
					L984.5,1110.6z"/>
				<path class="st18" d="M1379.7,1364.6l32.9,19c2,1.1,1.7,3.1-0.6,4.3l-14.3,8.2c-2.3,1.3-5.6,1.4-7.6,0.3l-32.9-19
					c-2-1.1-1.7-3.1,0.6-4.3l14.3-8.2C1374.4,1363.6,1377.8,1363.5,1379.7,1364.6z"/>
				<path class="st18" d="M1333.7,1338.1l32.9,19c2,1.1,1.7,3.1-0.6,4.3l-14.3,8.2c-2.3,1.3-5.6,1.4-7.6,0.3l-32.9-19
					c-2-1.1-1.7-3.1,0.6-4.3l14.3-8.2C1328.3,1337.1,1331.8,1336.9,1333.7,1338.1z"/>
				<path class="st18" d="M1288.1,1311.7l32.9,19c2,1.1,1.7,3.1-0.6,4.3l-14.3,8.2c-2.3,1.3-5.6,1.4-7.6,0.3l-32.9-19
					c-2-1.1-1.7-3.1,0.6-4.3l14.3-8.2C1282.8,1310.7,1286.1,1310.6,1288.1,1311.7z"/>
				<path class="st18" d="M1358.9,1323.5l32.9,19c2,1.1,1.7,3.1-0.6,4.3l-14.3,8.2c-2.3,1.3-5.6,1.4-7.6,0.3l-32.9-19
					c-2-1.1-1.7-3.1,0.6-4.3l14.3-8.2C1353.5,1322.5,1357,1322.4,1358.9,1323.5z"/>
			</g>
		</g>
		<g>
			<path class="st0" d="M1824.4,613.5c-2.3,0-4.6-0.6-6.9-2c-6.9-4-11.3-13.1-9.7-20.4c0.8-3.4,2.9-6.1,5.8-7.4
				c3.2-1.4,7.2-1,10.9,1.1c6.9,4,11.3,13.1,9.7,20.4l0,0c-0.8,3.4-2.9,6.1-5.8,7.4C1827.2,613.3,1825.9,613.5,1824.4,613.5z
				 M1817.7,586.2c-1,0-2,0.2-2.8,0.6c-2,0.8-3.4,2.7-3.9,5.2c-1.4,6,2.3,13.5,8.2,16.9c2.8,1.6,5.8,2,8.1,1c2-0.8,3.4-2.7,3.9-5.1
				c1.4-6-2.3-13.5-8.2-16.9C1821.2,586.7,1819.4,586.2,1817.7,586.2z"/>
			<path class="st0" d="M1862,635.2c-2.3,0-4.6-0.6-6.9-2c-7-4-11.3-13.1-9.6-20.4c0.8-3.4,2.9-6.1,5.8-7.4c3.2-1.4,7.2-1,10.9,1.1
				c6.9,4,11.3,13.1,9.6,20.4l0,0c-0.8,3.4-2.9,6.1-5.8,7.4C1864.8,635,1863.4,635.2,1862,635.2z M1855.4,607.9c-1,0-2,0.2-2.8,0.6
				c-2,0.8-3.4,2.7-3.9,5.1c-1.4,6,2.3,13.5,8.2,16.9c2.9,1.6,5.8,2,8.1,1c2-0.8,3.4-2.7,3.9-5.2l0,0c1.4-6-2.3-13.5-8.2-16.9
				C1858.9,608.4,1857.1,607.9,1855.4,607.9z"/>
			<path class="st0" d="M1908,648.4c-1.5,6.6-7.9,8.9-14.4,5.2c-6.5-3.7-10.4-12.1-8.9-18.6c1.5-6.6,7.9-8.9,14.4-5.2
				S1909.5,641.8,1908,648.4z"/>
		</g>
		<polygon class="st0" points="1186.5,233.3 1166.5,221.7 1168,212.3 1188.2,224 		"/>
		<polygon class="st0" points="1215.8,250.2 1195.7,238.5 1197.3,229.3 1217.4,240.9 		"/>
		<polygon class="st0" points="1157.6,216.6 1113.5,191.1 1115.1,181.8 1159.2,207.3 		"/>
	</g>
	<g>
		<g>
			<polygon class="st0" points="1163.2,392.1 1129.5,372.7 1130.8,364.9 1164.5,384.4 			"/>
			<polygon class="st0" points="1191.9,408.8 1175.1,399 1176.4,391.2 1193.2,401 			"/>
			<polygon class="st0" points="1170,416.1 1155.7,407.9 1157,400.1 1171.4,408.3 			"/>
			<polygon class="st0" points="1194.1,430 1177.3,420.3 1178.5,412.5 1195.4,422.2 			"/>
			<polygon class="st0" points="1218.8,464.3 1152.6,426.1 1154,418.3 1220.1,456.5 			"/>
			<polygon class="st0" points="1161.5,617.1 1095.3,578.9 1096.6,571.1 1162.7,609.3 			"/>
			<polygon class="st0" points="1186.9,631.8 1170,622.1 1171.4,614.3 1188.2,624 			"/>
			<polygon class="st0" points="1163.9,452.7 1149.6,444.4 1150.9,436.6 1165.3,444.9 			"/>
			<polygon class="st0" points="1187.9,466.5 1171.1,456.8 1172.4,449 1189.3,458.8 			"/>
			<polygon class="st0" points="1182.9,483.6 1146.5,462.6 1147.8,454.8 1184.2,475.8 			"/>
			<polygon class="st0" points="1207.3,497.7 1190.4,488 1191.7,480.2 1208.6,489.9 			"/>
			<polygon class="st0" points="1231.7,511.8 1214.9,502.1 1216.2,494.3 1233,504.1 			"/>
			<polygon class="st0" points="1271.2,534.6 1239.3,516.2 1240.7,508.4 1272.6,526.8 			"/>
			<polygon class="st0" points="1246,560.1 1229.2,550.4 1230.5,542.6 1247.3,552.3 			"/>
			<polygon class="st0" points="1285.5,582.9 1253.7,564.5 1254.9,556.7 1286.8,575.1 			"/>
			<polygon class="st0" points="1157.3,508.8 1140.4,499.1 1141.7,491.4 1158.5,501 			"/>
			<polygon class="st0" points="1181.7,523 1164.9,513.3 1166.2,505.5 1183,515.2 			"/>
			<polygon class="st0" points="1221.2,545.8 1189.3,527.4 1190.7,519.6 1222.5,538 			"/>
			<polygon class="st0" points="1273,555.7 1256.1,545.9 1257.5,538.1 1274.3,547.9 			"/>
			<polygon class="st0" points="1297.4,569.8 1280.6,560 1281.9,552.3 1298.8,562 			"/>
			<polygon class="st0" points="1337,592.6 1305.1,574.2 1306.4,566.4 1338.3,584.8 			"/>
			<polygon class="st0" points="1213.2,647 1196.4,637.3 1197.7,629.6 1214.6,639.2 			"/>
			<polygon class="st0" points="1252.8,669.9 1220.9,651.5 1222.2,643.7 1254,662.1 			"/>
			<polygon class="st0" points="1151.2,545.4 1134.3,535.7 1135.6,527.9 1152.4,537.6 			"/>
			<polygon class="st0" points="1190.6,568.2 1158.7,549.8 1160.1,542 1191.9,560.4 			"/>
			<polygon class="st0" points="1231.6,677.7 1214.8,667.9 1216,660.1 1232.9,669.9 			"/>
			<polygon class="st0" points="1271.1,700.5 1239.2,682.1 1240.6,674.3 1272.4,692.7 			"/>
			<polygon class="st0" points="1269.1,493.4 1252.3,483.6 1253.6,475.9 1270.5,485.6 			"/>
			<polygon class="st0" points="1243.7,478.7 1226.8,468.9 1228.2,461.2 1245,470.9 			"/>
			<polygon class="st0" points="1308.7,516.2 1276.8,497.8 1278.1,490 1310,508.4 			"/>
			<polygon class="st0" points="1158.7,489.7 1143.5,480.9 1144.8,473.1 1159.9,481.9 			"/>
			<polygon class="st0" points="1203.7,515.6 1166.8,494.3 1168.1,486.6 1205,507.9 			"/>
			<polygon class="st0" points="1248.8,541.6 1211.8,520.4 1213.2,512.6 1250.1,533.9 			"/>
			<polygon class="st0" points="1332.1,529.7 1316.9,520.9 1318.1,513.1 1333.4,521.9 			"/>
			<polygon class="st0" points="1377.1,555.7 1340.2,534.4 1341.5,526.6 1378.4,548 			"/>
			<polygon class="st0" points="1422.2,581.7 1385.2,560.4 1386.5,552.6 1423.5,573.9 			"/>
			<polygon class="st0" points="1174.6,538.9 1137.7,517.5 1139,509.7 1175.9,531.1 			"/>
			<polygon class="st0" points="1194.1,550.1 1182.8,543.6 1184,535.8 1195.4,542.3 			"/>
			<polygon class="st0" points="1213.6,561.4 1202.2,554.8 1203.5,547 1214.8,553.6 			"/>
			<polygon class="st0" points="1249.6,582.2 1221.7,566.1 1223.1,558.3 1250.9,574.4 			"/>
			<polygon class="st0" points="1290.1,545.5 1278.8,539 1280,531.2 1291.4,537.7 			"/>
			<polygon class="st0" points="1326.2,566.4 1298.2,550.2 1299.5,542.4 1327.4,558.6 			"/>
			<polygon class="st0" points="1333.7,570.7 1305.8,554.6 1307.1,546.8 1335,562.9 			"/>
			<polygon class="st0" points="1185.1,670.8 1148.8,649.8 1150.1,642.1 1186.5,663 			"/>
			<polygon class="st0" points="1209.5,684.9 1192.7,675.2 1194,667.4 1210.8,677.2 			"/>
			<polygon class="st0" points="1234,699.1 1217.2,689.3 1218.5,681.5 1235.3,691.3 			"/>
			<polygon class="st0" points="1273.5,721.8 1241.7,703.4 1242.9,695.7 1274.8,714.1 			"/>
			<polygon class="st0" points="1298.8,736.4 1281.9,726.7 1283.2,718.9 1300.1,728.6 			"/>
			<polygon class="st0" points="1338.3,759.3 1306.4,740.9 1307.8,733.1 1339.6,751.5 			"/>
			<polygon class="st0" points="1217.1,729.3 1200.2,719.6 1201.6,711.9 1218.4,721.5 			"/>
			<polygon class="st0" points="1256.6,752.2 1224.8,733.8 1226,726 1257.9,744.4 			"/>
			<polygon class="st0" points="1129.2,678.6 1112.3,668.8 1113.6,661 1130.4,670.8 			"/>
			<polygon class="st0" points="1153.6,692.7 1136.8,683 1138.1,675.2 1154.9,684.9 			"/>
			<polygon class="st0" points="1193.2,715.5 1161.3,697.1 1162.6,689.3 1194.4,707.7 			"/>
			<polygon class="st0" points="1160.9,676.9 1145.7,668.1 1147,660.3 1162.3,669.1 			"/>
			<polygon class="st0" points="1206,702.9 1169.1,681.6 1170.3,673.8 1207.3,695.1 			"/>
			<polygon class="st0" points="1251,728.9 1214.1,707.6 1215.4,699.8 1252.3,721.1 			"/>
			<polygon class="st0" points="1116.7,691.4 1079.8,670.1 1081.1,662.3 1118,683.6 			"/>
			<polygon class="st0" points="1136.2,702.7 1124.8,696.1 1126.2,688.3 1137.5,694.9 			"/>
			<polygon class="st0" points="1155.7,713.9 1144.3,707.4 1145.7,699.6 1157,706.1 			"/>
			<polygon class="st0" points="1191.7,734.7 1163.9,718.6 1165.2,710.8 1193.1,727 			"/>
			<polygon class="st0" points="1199.3,739.1 1171.4,723 1172.7,715.2 1200.7,731.3 			"/>
			<polygon class="st0" points="1133.3,620.9 1122,614.4 1123.3,606.6 1134.7,613.1 			"/>
			<polygon class="st0" points="1169.4,641.8 1141.5,625.6 1142.8,617.8 1170.7,634 			"/>
			<polygon class="st0" points="1206.3,663 1178.3,646.9 1179.7,639.1 1207.5,655.3 			"/>
			<polygon class="st0" points="1348.3,785 1331.4,775.3 1332.8,767.5 1349.6,777.2 			"/>
			<polygon class="st0" points="1387.7,807.9 1355.9,789.5 1357.2,781.7 1389.1,800.1 			"/>
			<polygon class="st0" points="1286.1,749.1 1258.2,733.1 1259.5,725.3 1287.4,741.3 			"/>
			<polygon class="st0" points="1322.9,770.4 1295,754.3 1296.4,746.5 1324.3,762.6 			"/>
			<polygon class="st0" points="1113.7,543.7 1102.3,537.2 1103.6,529.4 1114.9,535.9 			"/>
			<polygon class="st0" points="1149.7,564.5 1121.8,548.4 1123.1,540.6 1151,556.7 			"/>
			<polygon class="st0" points="1186.5,585.8 1158.7,569.7 1159.9,561.9 1187.9,578 			"/>
		</g>
		<path class="st19" d="M1743.3,869.6c-2.5,0-5.2-0.8-7.8-2.3L1510,737.1c-9.2-5.3-15.2-18.8-13.3-30l14.4-86c1-5.8,4-10.4,8.3-12.4
			c4-1.9,8.6-1.5,13.1,1.1L1758,740.1c9.2,5.3,15.2,18.8,13.3,30l-14.4,86c-1,5.8-4,10.4-8.3,12.4
			C1746.9,869.2,1745.1,869.6,1743.3,869.6z M1524.6,610.7c-1.3,0-2.7,0.3-3.9,0.8c-3.3,1.5-5.7,5.2-6.5,10l-14.4,86
			c-1.7,10,3.6,22,11.7,26.7l225.5,130.2c3.5,2,7.1,2.4,10.1,1c3.3-1.5,5.7-5.2,6.5-10l14.4-86c1.7-10-3.6-22-11.7-26.7
			l-225.6-130.2C1528.7,611.4,1526.6,610.7,1524.6,610.7z"/>
		<path class="st0" d="M1718.4,1017.5c-2.5,0-5.2-0.8-7.8-2.3L1485.1,885c-9.2-5.3-15.2-18.8-13.3-30l14.4-86c1-5.8,4-10.4,8.3-12.4
			c3.9-1.9,8.6-1.5,13.1,1.1L1733,888c9.2,5.3,15.2,18.8,13.3,30l-14.4,86c-1,5.8-4,10.4-8.3,12.4
			C1722.1,1017.1,1720.3,1017.5,1718.4,1017.5z M1712.2,1012.5c3.5,2,7.1,2.4,10.1,1c3.3-1.5,5.7-5.2,6.5-10l14.4-86
			c1.7-10-3.6-22-11.7-26.7L1506,760.5c-3.5-2-7.1-2.4-10.1-1c-3.3,1.5-5.7,5.2-6.5,10l-14.4,86c-1.7,10,3.6,22,11.7,26.7
			L1712.2,1012.5z"/>
		<linearGradient id="SVGID_10_" gradientUnits="userSpaceOnUse" x1="1530.15" y1="743.2499" x2="1712.8901" y2="743.2499">
			<stop  offset="0" style="stop-color:#1CD8DE"/>
			<stop  offset="0.1055" style="stop-color:#39B7BF"/>
			<stop  offset="0.2197" style="stop-color:#2D88A1"/>
			<stop  offset="0.338" style="stop-color:#256088"/>
			<stop  offset="0.4587" style="stop-color:#1C4072"/>
			<stop  offset="0.5824" style="stop-color:#242D5C"/>
			<stop  offset="0.7105" style="stop-color:#24254F"/>
			<stop  offset="0.8458" style="stop-color:#212147"/>
			<stop  offset="1" style="stop-color:#202045"/>
		</linearGradient>
		<path class="st20" d="M1530.2,727.9c4,2.3,7.6,1.5,8.8-2.2l26.3-71.8c3-8.2,15.3-0.8,17.9,10.8l16.2,72.3c1.2,5.3,4.8,10.5,9,13
			l3.9,2.3c3.8,2.2,7.2,1.5,8.6-1.6l5.3-11.4c3.3-7,14.4-0.4,17.4,10.5l0,0c1.4,5,4.8,9.8,8.8,12l3.4,2c4.1,2.4,7.7,1.4,9-2.4
			l4.9-15c2.7-8.5,15.1-1.4,17.9,10.3l16.2,66.9c1.3,5.3,5,10.4,9.1,12.7L1530.2,727.9z"/>
		<path class="st19" d="M1684.3,983.4c-4.5-2.5-8.4-8.1-9.8-13.8l-16.2-66.9c-1.8-7.1-7.5-12.6-11.5-12.8c-1.5,0-2.7,0.8-3.3,2.6
			l-4.9,15c-0.7,2.1-2,3.7-3.9,4.3c-2.1,0.8-4.8,0.4-7.4-1l-3.4-2c-4.3-2.5-8-7.6-9.5-13c-1.9-6.9-7.3-11.9-11.2-12.2
			c-1.5-0.1-2.6,0.5-3.3,2l-5.3,11.4c-0.8,1.8-2.2,3-3.9,3.5c-2.1,0.6-4.5,0.2-7-1.2l-3.9-2.3c-4.6-2.6-8.5-8.2-9.8-14l-16.2-72.3
			c-1.6-7.2-7.4-12.8-11.4-13.1c-1.7-0.1-2.7,0.7-3.4,2.5l-26.3,71.8c-0.8,2-2.1,3.4-3.9,4.1c-2.1,0.8-4.7,0.3-7.3-1.1l1.5-2.7
			c1.8,1,3.4,1.3,4.6,0.8c0.9-0.3,1.5-1,2-2.2l26.3-71.8c1.1-3.1,3.4-4.6,6.5-4.5c5.3,0.3,12.4,6.7,14.3,15.5l16.2,72.3
			c1.1,4.8,4.5,9.8,8.2,11.9l3.9,2.3c1.7,1,3.2,1.3,4.5,0.9c0.8-0.3,1.5-0.8,2-1.8l5.3-11.4c1.3-2.7,3.7-4,6.5-3.8
			c5.7,0.5,11.8,6.8,13.9,14.5c1.3,4.6,4.5,9.1,8,11.1l3.4,2c1.8,1,3.4,1.3,4.6,0.8c0.9-0.3,1.6-1.1,2-2.4l4.9-15
			c1.1-3.2,3.4-4.8,6.5-4.8c5.3,0.2,12.4,6.3,14.5,15.2l16.2,66.9c1.2,4.8,4.6,9.6,8.3,11.7L1684.3,983.4z"/>
	</g>
	<path class="st0" d="M1593.8,537.5c-3.3,0-6.7-0.9-9.9-2.8l-176.3-101.8c-10.9-6.3-17-21.4-13.6-33.8c1.7-6.3,5.6-10.8,10.7-13
		c5.1-2,10.8-1.5,16.2,1.6l176.3,101.8c10.9,6.3,17,21.4,13.6,33.8c-1.7,6.3-5.6,10.8-10.7,13
		C1598.1,537.1,1595.9,537.5,1593.8,537.5z M1411,388.1c-1.8,0-3.4,0.4-5.1,1c-4.3,1.8-7.4,5.6-8.8,10.9c-3,11,2.4,24.6,12.1,30.2
		l176.3,101.8c4.5,2.6,9.2,3.1,13.3,1.4c4.3-1.8,7.4-5.6,8.8-10.9c3-11-2.4-24.6-12.1-30.2l-176.3-101.8
		C1416.6,388.8,1413.7,388.1,1411,388.1z"/>
</g>
</svg>
