<?xml version="1.0" encoding="utf-8"?>
<!-- Generator: Adobe Illustrator 24.0.1, SVG Export Plug-In . SVG Version: 6.00 Build 0)  -->
<svg version="1.1" id="Layer_1" xmlns="http://www.w3.org/2000/svg" xmlns:xlink="http://www.w3.org/1999/xlink" x="0px" y="0px"
	 viewBox="0 0 2063.62 1780.16" style="enable-background:new 0 0 2063.62 1780.16;" xml:space="preserve">
<style type="text/css">
	.st0{fill:#6DC4CB;}
	.st1{opacity:0.5;fill:url(#SVGID_1_);enable-background:new    ;}
	.st2{opacity:0.5;fill:url(#SVGID_2_);enable-background:new    ;}
	.st3{opacity:0.4;fill:#6DC4CB;enable-background:new    ;}
	.st4{fill:url(#SVGID_3_);}
	.st5{fill:url(#SVGID_4_);}
	.st6{fill:#2C2661;}
	.st7{opacity:0.51;}
	.st8{fill:#464193;}
	.st9{fill:url(#SVGID_5_);}
	.st10{fill:url(#SVGID_6_);}
	.st11{fill:#FFFFFF;}
	.st12{opacity:0.15;}
	.st13{clip-path:url(#SVGID_8_);}
	.st14{fill:url(#SVGID_9_);}
	.st15{fill:url(#SVGID_10_);}
	.st16{opacity:0.5;}
	.st17{opacity:0.8;}
	.st18{opacity:0.5;fill:url(#SVGID_11_);enable-background:new    ;}
</style>
<g>
	<path class="st0" d="M1285.35,1772.32c-7.02,0-14.47-1.69-20.3-5.06L334.3,1229.91c-5.9-3.37-9.2-8.01-9.2-12.64
		c0-3.93,2.39-7.51,6.74-9.97l555.41-320.64c9.2-5.34,25.42-4.71,36.03,1.4l930.75,537.36c5.9,3.37,9.2,8.01,9.2,12.64
		c0,3.93-2.39,7.51-6.74,9.97l-555.41,320.64C1296.87,1771.13,1291.18,1772.32,1285.35,1772.32z M335.85,1227.17l930.75,537.36
		c9.76,5.62,24.44,6.25,32.86,1.4l555.41-320.64c3.3-1.9,5.2-4.49,5.13-7.23c0-3.44-2.81-7.09-7.65-9.9L921.66,890.79
		c-9.76-5.62-24.44-6.25-32.86-1.4l-555.41,320.64c-3.3,1.9-5.2,4.49-5.2,7.23C328.26,1220.78,331,1224.36,335.85,1227.17
		L335.85,1227.17z"/>
	<g>
		<g>
			<g>
				<path class="st0" d="M124.4,1205.68l-0.98-1.83c23.1-12.92,43.4-41.43,50.56-71l91.15-376.68c6.04-25.07,19.45-46,34.76-60.04
					l-13.97-42.98c-4.49-13.76-13.62-20.72-26.47-20.22c-25.49,0.98-61.38,33.15-72.19,77.81L96.1,1087.42
					c-7.3,30.06-28.02,59.13-51.54,72.33l-0.98-1.83c23.1-12.92,43.4-41.43,50.56-71l91.15-376.68
					c11.17-46.21,47.33-78.37,74.09-79.35c13.69-0.56,23.81,7.16,28.51,21.63l13.69,42.06c12.43-10.96,25.98-17.35,37.71-17.84
					c13.76-0.49,23.81,7.16,28.51,21.63l13.55,41.57l1.97-1.12c21.49-12.43,41.15-39.4,48.88-67.06
					c12.29-44.03,46.63-73.6,71.42-75.7c12.64-1.05,22.82,4.92,28.44,16.78l20.29,43.05c10.6-8.22,21.56-13.13,31.11-13.9
					c12.71-1.05,22.82,4.92,28.44,16.78l9.27,19.59l9.9-5.69c22.96-13.27,43.61-42.98,50.14-72.26l91.08-406.88
					c10.18-45.65,46.98-79.35,73.6-81.11c13.55-0.84,23.88,6.25,29,20.15l15.59,42.63c11.8-10.11,24.44-16.15,35.32-16.92
					c13.69-0.84,23.88,6.25,29,20.15l132.09,360.95l59.76-34.48l81.95,47.12l-76.4,44.1c-12.36,7.16-24.58,9.13-34.27,5.62
					c-7.87-2.88-13.83-9.2-17.13-18.26l-15.03-41.01l-13.48,7.79c-12.36,7.16-24.51,9.13-34.27,5.62
					c-7.87-2.88-13.83-9.2-17.13-18.26L889.56,178.79c-15.73,14.26-29.63,35.81-35.32,61.17l-91.08,406.88
					c-6.74,30.27-27.32,59.83-51.12,73.6L690.27,733c-11.87,6.88-23.6,8.99-33.08,6.04c-7.44-2.32-13.27-7.65-16.92-15.45
					l-19.94-42.2l-9.9,5.76c-11.87,6.81-23.67,8.99-33.08,6.04c-7.44-2.32-13.27-7.65-16.92-15.45l-8.78-18.54
					c-15.73,12.99-30.41,33.57-37.5,59.13c-7.87,28.16-27.88,55.62-49.79,68.33l-19.03,10.96c-12.57,7.3-24.93,9.2-34.69,5.48
					c-8.08-3.09-14.04-9.9-17.2-19.59l-13.13-40.38l-14.89,8.57c-12.57,7.3-24.93,9.2-34.69,5.48c-8.08-3.09-14.04-9.9-17.2-19.59
					l-12.71-39.04c-14.75,13.9-27.74,34.2-33.5,58.15l-91.15,376.68C168.64,1163.47,147.92,1192.55,124.4,1205.68z M381.91,742.13
					l13.27,40.8c2.95,9.06,8.5,15.38,15.94,18.26c9.2,3.51,20.86,1.62,32.94-5.34l19.03-10.95c21.49-12.43,41.15-39.4,48.88-67.06
					c7.3-26.19,22.4-47.26,38.62-60.46l-20.51-43.47c-5.27-11.24-14.4-16.64-26.4-15.66c-24.09,2.04-57.51,30.97-69.59,74.23
					c-7.87,28.16-27.88,55.62-49.86,68.33L381.91,742.13z M302.28,697.04L315.27,737c2.95,9.06,8.5,15.38,15.94,18.26
					c9.2,3.51,20.86,1.62,32.94-5.34l15.24-8.78l-13.69-41.99c-4.49-13.76-13.69-20.72-26.47-20.22
					C327.98,679.35,314.64,685.95,302.28,697.04z M621.94,680.47l20.01,42.42c3.44,7.23,8.85,12.22,15.66,14.33
					c8.92,2.81,20.08,0.7,31.46-5.83l21.77-12.57c22.96-13.27,43.61-42.98,50.14-72.26l91.08-406.88
					c5.83-26.05,20.29-48.17,36.59-62.71l-15.87-43.4c-4.85-13.13-14.04-19.66-26.9-18.82c-25.84,1.69-61.66,34.76-71.7,79.49
					l-91.08,406.88c-6.74,30.27-27.32,59.83-51.12,73.6L621.94,680.47z M553.12,657.93l8.99,18.96c3.44,7.23,8.85,12.22,15.66,14.33
					c8.92,2.81,20.08,0.7,31.46-5.83l10.04-5.83l-9.34-19.73c-5.34-11.24-14.47-16.64-26.4-15.59
					C574.19,645.01,563.44,649.85,553.12,657.93z M1087.46,541.64l15.17,41.36c3.09,8.5,8.64,14.4,15.87,17.06
					c9.06,3.3,20.65,1.33,32.51-5.48l73.24-42.28l-77.81-44.73L1087.46,541.64z M891.11,177.45l131.6,359.62
					c3.09,8.5,8.64,14.4,15.94,17.06c9.13,3.3,20.65,1.33,32.51-5.48l13.76-7.94L952.7,179.42c-4.85-13.13-14.19-19.66-26.9-18.82
					C915.06,161.3,902.7,167.41,891.11,177.45z"/>
				
					<rect x="900.12" y="93.56" transform="matrix(0.4984 -0.8669 0.8669 0.4984 330.6118 851.4611)" class="st0" width="2.04" height="92.9"/>
				<polygon class="st0" points="601.15,648.73 519.62,601.75 520.68,599.99 602.21,646.9 				"/>
				
					<rect x="312.44" y="609.42" transform="matrix(0.4977 -0.8673 0.8673 0.4977 -413.5773 602.5569)" class="st0" width="2.04" height="97.89"/>
				<path class="st0" d="M124.4,1205.68l-0.98-1.83c23.1-12.92,43.4-41.43,50.56-71l91.15-376.68c6.04-25.07,19.45-46,34.76-60.04
					l-13.97-42.98c-4.49-13.76-13.62-20.72-26.47-20.22c-25.49,0.98-61.38,33.15-72.19,77.81L96.1,1087.42
					c-7.3,30.06-28.02,59.13-51.54,72.33l-0.98-1.83c23.1-12.92,43.4-41.43,50.56-71l91.15-376.68
					c11.17-46.21,47.33-78.37,74.09-79.35c13.69-0.56,23.81,7.16,28.51,21.63l13.69,42.06c12.43-10.96,25.98-17.35,37.71-17.84
					c13.76-0.49,23.81,7.16,28.51,21.63l13.55,41.57l1.97-1.12c21.49-12.43,41.15-39.4,48.88-67.06
					c12.29-44.03,46.63-73.6,71.42-75.7c12.64-1.05,22.82,4.92,28.44,16.78l20.29,43.05c10.6-8.22,21.56-13.13,31.11-13.9
					c12.71-1.05,22.82,4.92,28.44,16.78l9.27,19.59l9.9-5.69c22.96-13.27,43.61-42.98,50.14-72.26l91.08-406.88
					c10.18-45.65,46.98-79.35,73.6-81.11c13.55-0.84,23.88,6.25,29,20.15l15.59,42.63c11.8-10.11,24.44-16.15,35.32-16.92
					c13.69-0.84,23.88,6.25,29,20.15l132.09,360.95l59.76-34.48l81.95,47.12l-76.4,44.1c-12.36,7.16-24.58,9.13-34.27,5.62
					c-7.87-2.88-13.83-9.2-17.13-18.26l-15.03-41.01l-13.48,7.79c-12.36,7.16-24.51,9.13-34.27,5.62
					c-7.87-2.88-13.83-9.2-17.13-18.26L889.56,178.79c-15.73,14.26-29.63,35.81-35.32,61.17l-91.08,406.88
					c-6.74,30.27-27.32,59.83-51.12,73.6L690.27,733c-11.87,6.88-23.6,8.99-33.08,6.04c-7.44-2.32-13.27-7.65-16.92-15.45
					l-19.94-42.2l-9.9,5.76c-11.87,6.81-23.67,8.99-33.08,6.04c-7.44-2.32-13.27-7.65-16.92-15.45l-8.78-18.54
					c-15.73,12.99-30.41,33.57-37.5,59.13c-7.87,28.16-27.88,55.62-49.79,68.33l-19.03,10.96c-12.57,7.3-24.93,9.2-34.69,5.48
					c-8.08-3.09-14.04-9.9-17.2-19.59l-13.13-40.38l-14.89,8.57c-12.57,7.3-24.93,9.2-34.69,5.48c-8.08-3.09-14.04-9.9-17.2-19.59
					l-12.71-39.04c-14.75,13.9-27.74,34.2-33.5,58.15l-91.15,376.68C168.64,1163.47,147.92,1192.55,124.4,1205.68z M381.91,742.13
					l13.27,40.8c2.95,9.06,8.5,15.38,15.94,18.26c9.2,3.51,20.86,1.62,32.94-5.34l19.03-10.95c21.49-12.43,41.15-39.4,48.88-67.06
					c7.3-26.19,22.4-47.26,38.62-60.46l-20.51-43.47c-5.27-11.24-14.4-16.64-26.4-15.66c-24.09,2.04-57.51,30.97-69.59,74.23
					c-7.87,28.16-27.88,55.62-49.86,68.33L381.91,742.13z M302.28,697.04L315.27,737c2.95,9.06,8.5,15.38,15.94,18.26
					c9.2,3.51,20.86,1.62,32.94-5.34l15.24-8.78l-13.69-41.99c-4.49-13.76-13.69-20.72-26.47-20.22
					C327.98,679.35,314.64,685.95,302.28,697.04z M621.94,680.47l20.01,42.42c3.44,7.23,8.85,12.22,15.66,14.33
					c8.92,2.81,20.08,0.7,31.46-5.83l21.77-12.57c22.96-13.27,43.61-42.98,50.14-72.26l91.08-406.88
					c5.83-26.05,20.29-48.17,36.59-62.71l-15.87-43.4c-4.85-13.13-14.04-19.66-26.9-18.82c-25.84,1.69-61.66,34.76-71.7,79.49
					l-91.08,406.88c-6.74,30.27-27.32,59.83-51.12,73.6L621.94,680.47z M553.12,657.93l8.99,18.96c3.44,7.23,8.85,12.22,15.66,14.33
					c8.92,2.81,20.08,0.7,31.46-5.83l10.04-5.83l-9.34-19.73c-5.34-11.24-14.47-16.64-26.4-15.59
					C574.19,645.01,563.44,649.85,553.12,657.93z M1087.46,541.64l15.17,41.36c3.09,8.5,8.64,14.4,15.87,17.06
					c9.06,3.3,20.65,1.33,32.51-5.48l73.24-42.28l-77.81-44.73L1087.46,541.64z M891.11,177.45l131.6,359.62
					c3.09,8.5,8.64,14.4,15.94,17.06c9.13,3.3,20.65,1.33,32.51-5.48l13.76-7.94L952.7,179.42c-4.85-13.13-14.19-19.66-26.9-18.82
					C915.06,161.3,902.7,167.41,891.11,177.45z"/>
			</g>
			
				<linearGradient id="SVGID_1_" gradientUnits="userSpaceOnUse" x1="-430.9164" y1="1144.5164" x2="671.537" y2="1144.5164" gradientTransform="matrix(-1 0 0 -1 715.5296 1780.7874)">
				<stop  offset="0" style="stop-color:#6DC4CB"/>
				<stop  offset="0.1055" style="stop-color:#39B7BF"/>
				<stop  offset="0.2197" style="stop-color:#2D88A1"/>
				<stop  offset="0.338" style="stop-color:#256088"/>
				<stop  offset="0.4587" style="stop-color:#1C4072"/>
				<stop  offset="0.5824" style="stop-color:#242D5C"/>
				<stop  offset="0.7105" style="stop-color:#24254F"/>
				<stop  offset="0.8458" style="stop-color:#212147"/>
				<stop  offset="1" style="stop-color:#202045"/>
			</linearGradient>
			<path class="st1" d="M1146.45,506.38l-74.79,43.19c-22.47,12.99-42.49,8.15-49.93-12.08L873.76,133.21
				c-16.92-46.21-85.95-4.42-100.56,60.81l-91.08,406.88c-6.67,29.71-27.25,59.41-50.63,72.89l-21.77,12.57
				c-21.14,12.22-40.24,8.71-48.6-8.92L531,613.55c-18.68-39.61-80.97-2.25-97.89,58.71l0,0c-7.87,28.16-27.46,55.06-49.37,67.7
				l-19.03,10.96c-23.03,13.27-43.47,7.87-50.42-13.55l-27.46-84.41c-15.52-47.61-84.76-7.94-100.63,57.65l-91.15,376.68
				c-7.16,29.63-27.88,58.64-51.05,71.63L1146.45,506.38z"/>
			
				<linearGradient id="SVGID_2_" gradientUnits="userSpaceOnUse" x1="40.3948" y1="1099.7772" x2="40.3948" y2="-2.6853" gradientTransform="matrix(-1 0 0 -1 715.5296 1780.7874)">
				<stop  offset="0" style="stop-color:#6DC4CB"/>
				<stop  offset="0.1055" style="stop-color:#39B7BF"/>
				<stop  offset="0.2197" style="stop-color:#2D88A1"/>
				<stop  offset="0.338" style="stop-color:#256088"/>
				<stop  offset="0.4587" style="stop-color:#1C4072"/>
				<stop  offset="0.5824" style="stop-color:#242D5C"/>
				<stop  offset="0.7105" style="stop-color:#24254F"/>
				<stop  offset="0.8458" style="stop-color:#212147"/>
				<stop  offset="1" style="stop-color:#202045"/>
			</linearGradient>
			<path class="st2" d="M1226.36,551.12l-74.79,43.19c-22.47,12.99-42.49,8.15-49.93-12.08L953.68,177.94
				c-16.92-46.21-85.95-4.42-100.56,60.81l-91.08,406.88c-6.67,29.7-27.25,59.41-50.63,72.89l-21.77,12.57
				c-21.14,12.22-40.24,8.71-48.6-8.92l-30.13-63.9c-18.68-39.61-80.97-2.25-97.89,58.71l0,0c-7.87,28.16-27.46,55.06-49.37,67.7
				l-19.03,10.96c-23.03,13.27-43.47,7.87-50.42-13.55l-27.46-84.41c-15.52-47.61-84.76-8.01-100.63,57.65l-91.15,376.68
				c-7.16,29.63-27.88,58.64-51.05,71.63L1226.36,551.12z"/>
		</g>
		<g>
			<path class="st3" d="M360.7,591.71c0,11.73,9.48,21.21,21.21,21.21s21.21-9.48,21.21-21.21s-9.48-21.21-21.21-21.21
				C370.19,570.5,360.7,579.98,360.7,591.71z"/>
			<path class="st3" d="M372.71,591.71c0,5.06,4.14,9.2,9.2,9.2c5.06,0,9.2-4.14,9.2-9.2s-4.14-9.2-9.2-9.2
				C376.86,582.51,372.71,586.65,372.71,591.71z"/>
		</g>
		<g>
			<path class="st3" d="M681.98,221.76c0,11.73,9.48,21.21,21.21,21.21s21.21-9.48,21.21-21.21c0-11.73-9.48-21.21-21.21-21.21
				S681.98,210.04,681.98,221.76z"/>
			<path class="st3" d="M693.92,221.76c0,5.06,4.14,9.2,9.2,9.2s9.2-4.14,9.2-9.2c0-5.06-4.14-9.2-9.2-9.2
				C698.06,212.56,693.92,216.64,693.92,221.76z"/>
		</g>
		<g>
			<path class="st3" d="M80.51,665.72c0,11.73,9.48,21.21,21.21,21.21s21.21-9.48,21.21-21.21s-9.48-21.21-21.21-21.21
				S80.51,654,80.51,665.72z"/>
			<path class="st3" d="M92.45,665.72c0,5.06,4.14,9.2,9.2,9.2s9.2-4.14,9.2-9.2s-4.14-9.2-9.2-9.2
				C96.59,656.52,92.45,660.67,92.45,665.72z"/>
		</g>
	</g>
	<g>
		<g>
			<g>
				<g>
					<g>
						
							<linearGradient id="SVGID_3_" gradientUnits="userSpaceOnUse" x1="-1298.6975" y1="1126.5099" x2="-212.4353" y2="1126.5099" gradientTransform="matrix(-1 0 0 -1 711.138 1780.7874)">
							<stop  offset="0" style="stop-color:#C1BEE0"/>
							<stop  offset="0.2938" style="stop-color:#C5C2E2"/>
							<stop  offset="0.6399" style="stop-color:#D4D1EA"/>
							<stop  offset="1" style="stop-color:#E9E8F5"/>
						</linearGradient>
						<path class="st4" d="M923.76,721.9l117.63-698.03l-9.48-4l14.19-8.15v0.07c2.74-1.83,6.67-1.76,10.96,0.77l940.38,542.83
							c7.72,4.42,13.55,15.87,12.22,23.88l-118.61,703.58c-0.63,3.65-2.46,6.11-4.99,7.16l0,0l-13.9,8.01l-2.39-12.99l0.77,0.21
							l-934.62-539.6C928.26,741.28,922.43,729.91,923.76,721.9z"/>
						
							<linearGradient id="SVGID_4_" gradientUnits="userSpaceOnUse" x1="-1298.7158" y1="847.8955" x2="-1112.1311" y2="847.8955" gradientTransform="matrix(-1 0 0 -1 711.138 1780.7874)">
							<stop  offset="0" style="stop-color:#515DA7"/>
							<stop  offset="0.1779" style="stop-color:#5562AA"/>
							<stop  offset="0.3876" style="stop-color:#656EB2"/>
							<stop  offset="0.6134" style="stop-color:#7E85C0"/>
							<stop  offset="0.849" style="stop-color:#A3A5D3"/>
							<stop  offset="1" style="stop-color:#BCBCDF"/>
						</linearGradient>
						<path class="st5" d="M1992.23,574.5l15.45-6.81c1.76,3.93,2.6,8.15,1.97,11.66l-118.61,703.58c-0.63,3.65-2.46,6.11-4.99,7.16
							l0,0l-13.9,8.01l-2.39-12.99l0.77,0.21l-47.26-27.32L1992.23,574.5z"/>
						<path class="st6" d="M921.24,754.21l940.31,542.91c7.23,4.21,13.48,1.76,14.75-5.76l118.61-703.58
							c1.33-8.01-4.49-19.45-12.22-23.88l-940.31-542.9c-7.23-4.21-13.48-1.76-14.75,5.76L909.02,730.33
							C907.68,738.34,913.51,749.78,921.24,754.21z"/>
						<g class="st7">
							<polygon class="st8" points="1039.21,34.12 1983.94,579.28 1864.63,1284.68 920.46,739.81 							"/>
						</g>
					</g>
					<g>
						
							<linearGradient id="SVGID_5_" gradientUnits="userSpaceOnUse" x1="-1153.1422" y1="543.9289" x2="380.9808" y2="543.9289" gradientTransform="matrix(-1 0 0 -1 711.138 1780.7874)">
							<stop  offset="0" style="stop-color:#515DA7"/>
							<stop  offset="0.1779" style="stop-color:#5562AA"/>
							<stop  offset="0.3876" style="stop-color:#656EB2"/>
							<stop  offset="0.6134" style="stop-color:#7E85C0"/>
							<stop  offset="0.849" style="stop-color:#A3A5D3"/>
							<stop  offset="1" style="stop-color:#BCBCDF"/>
						</linearGradient>
						<path class="st9" d="M330.16,1087.35l51.33,26.83l514.53-297.12c8.64-4.99,23.67-4.35,33.57,1.4l887.5,512.36
							c8.5-4.78,47.19-23.38,47.19-23.38l-18.75,30.55l-0.07-0.07c-0.77,2.18-2.46,4.21-5.27,5.83l-541.92,312.92
							c-8.64,4.99-23.67,4.35-33.57-1.4l-908.14-524.37c-4.07-2.39-6.6-5.2-7.58-8.08l-0.07,0.07L330.16,1087.35z"/>
						
							<linearGradient id="SVGID_6_" gradientUnits="userSpaceOnUse" x1="-1834.7391" y1="585.8881" x2="425.9124" y2="585.8881" gradientTransform="matrix(-1 0 0 -1 711.138 1780.7874)">
							<stop  offset="0" style="stop-color:#C1BEE0"/>
							<stop  offset="0.2938" style="stop-color:#C5C2E2"/>
							<stop  offset="0.6399" style="stop-color:#D4D1EA"/>
							<stop  offset="1" style="stop-color:#E9E8F5"/>
						</linearGradient>
						<path class="st10" d="M338.09,1095.78l930.75,537.36c10.18,5.9,25.63,6.53,34.41,1.4l555.41-320.64
							c8.85-5.13,7.72-13.97-2.46-19.87L925.45,756.66c-10.18-5.9-25.63-6.53-34.41-1.4L335.63,1075.9
							C326.79,1080.96,327.91,1089.88,338.09,1095.78z"/>
						<path class="st11" d="M338.09,1091.63l930.75,537.36c10.18,5.9,25.63,6.53,34.41,1.4l555.41-320.64
							c3.09-1.83,4.92-4.07,5.62-6.53c0.98,3.93-0.77,7.86-5.62,10.67l-555.41,320.64c-8.85,5.13-24.23,4.42-34.41-1.4
							l-930.75-537.36c-6.6-3.79-9.34-8.85-8.08-13.34C330.79,1085.67,333.46,1088.97,338.09,1091.63z"/>
					</g>
				</g>
				<g class="st12">
					<g>
						<defs>
							<polygon id="SVGID_7_" points="1983.94,579.28 1039.21,34.12 920.46,739.81 1864.63,1284.68 							"/>
						</defs>
						<clipPath id="SVGID_8_">
							<use xlink:href="#SVGID_7_"  style="overflow:visible;"/>
						</clipPath>
						<g class="st13">
							<g>
								
									<linearGradient id="SVGID_9_" gradientUnits="userSpaceOnUse" x1="-1743.0272" y1="881.5681" x2="-208.9043" y2="881.5681" gradientTransform="matrix(-1 0 0 -1 711.138 1780.7874)">
									<stop  offset="0" style="stop-color:#515DA7"/>
									<stop  offset="0.1779" style="stop-color:#5562AA"/>
									<stop  offset="0.3876" style="stop-color:#656EB2"/>
									<stop  offset="0.6134" style="stop-color:#7E85C0"/>
									<stop  offset="0.849" style="stop-color:#A3A5D3"/>
									<stop  offset="1" style="stop-color:#BCBCDF"/>
								</linearGradient>
								<path class="st14" d="M920.04,749.71l51.33,26.83l514.53-297.12c8.64-4.99,23.67-4.35,33.57,1.4l887.5,512.36
									c8.5-4.78,47.19-23.38,47.19-23.38l-18.75,30.55l-0.07-0.07c-0.77,2.18-2.46,4.21-5.27,5.83l-541.92,312.92
									c-8.64,4.99-23.67,4.35-33.57-1.4L946.45,793.25c-4.07-2.39-6.6-5.2-7.58-8.08l-0.07,0.07L920.04,749.71z"/>
								
									<linearGradient id="SVGID_10_" gradientUnits="userSpaceOnUse" x1="-1227.6172" y1="923.5272" x2="307.3118" y2="923.5272" gradientTransform="matrix(-1 0 0 -1 711.138 1780.7874)">
									<stop  offset="0" style="stop-color:#C1BEE0"/>
									<stop  offset="0.2938" style="stop-color:#C5C2E2"/>
									<stop  offset="0.6399" style="stop-color:#D4D1EA"/>
									<stop  offset="1" style="stop-color:#E9E8F5"/>
								</linearGradient>
								<path class="st15" d="M927.98,758.14l930.75,537.36c10.18,5.9,25.63,6.53,34.41,1.4l555.41-320.64
									c8.85-5.13,7.72-13.97-2.46-19.87l-930.68-537.36c-10.18-5.9-25.63-6.53-34.41-1.4L925.59,738.26
									C916.74,743.32,917.8,752.24,927.98,758.14z"/>
								<path class="st11" d="M2446.16,956.38l-930.75-537.36c-6.53-3.79-15.24-5.34-23.03-4.71c5.69,0.42,11.45,1.97,16.15,4.71
									l930.75,537.36c10.18,5.9,11.31,14.75,2.46,19.87l-555.41,320.64c-3.16,1.83-7.16,2.88-11.45,3.23
									c6.74,0.56,13.48-0.49,18.26-3.23l555.41-320.64C2457.47,971.2,2456.34,962.28,2446.16,956.38z"/>
							</g>
							<g class="st16">
								<path class="st6" d="M1415.55,665.65l-29.85-17.21c-2.39-1.4-6.46-1.26-9.06,0.28l-33.15,19.38
									c-2.6,1.54-2.74,3.86-0.35,5.27l29.85,17.2c2.39,1.4,6.46,1.26,9.06-0.28l33.15-19.38
									C1417.79,669.37,1417.93,666.99,1415.55,665.65z"/>
								<path class="st6" d="M1461.61,692.2l-29.85-17.2c-2.39-1.4-6.46-1.26-9.06,0.28l-33.15,19.38c-2.6,1.54-2.74,3.86-0.35,5.27
									l29.85,17.2c2.39,1.4,6.46,1.26,9.06-0.28l33.15-19.38C1463.86,695.99,1464,693.6,1461.61,692.2z"/>
								<path class="st6" d="M1507.68,718.81l-29.85-17.2c-2.39-1.4-6.46-1.26-9.06,0.28l-33.15,19.38
									c-2.6,1.54-2.81,3.86-0.35,5.27l29.85,17.2c2.39,1.4,6.46,1.26,9.06-0.28l33.15-19.38
									C1509.93,722.53,1510.07,720.22,1507.68,718.81z"/>
								<path class="st6" d="M1472.64,754.21l-29.85-17.2c-2.39-1.4-6.46-1.26-9.06,0.28l-27.81,16.29
									c-2.6,1.54-2.81,3.86-0.35,5.27l29.85,17.2c2.39,1.4,6.46,1.26,9.06-0.28l27.81-16.29
									C1474.82,758,1475.03,755.61,1472.64,754.21z"/>
								<path class="st6" d="M1518.71,780.82l-29.85-17.2c-2.39-1.4-6.46-1.26-9.06,0.28l-27.81,16.29
									c-2.6,1.54-2.81,3.86-0.35,5.27l29.85,17.21c2.39,1.4,6.46,1.26,9.06-0.28l27.81-16.29
									C1520.88,784.54,1521.09,782.23,1518.71,780.82z"/>
								<path class="st6" d="M1564.77,807.44l-29.85-17.21c-2.39-1.4-6.46-1.26-9.06,0.28l-27.81,16.29
									c-2.6,1.54-2.81,3.86-0.35,5.27l29.85,17.2c2.39,1.4,6.46,1.26,9.06-0.28l27.81-16.29
									C1567.02,811.16,1567.16,808.84,1564.77,807.44z"/>
								<path class="st6" d="M1610.84,834.05l-29.85-17.2c-2.39-1.4-6.46-1.26-9.06,0.28l-27.81,16.29
									c-2.6,1.54-2.74,3.86-0.35,5.27l29.85,17.2c2.39,1.4,6.46,1.26,9.06-0.28l27.81-16.29
									C1613.09,837.77,1613.23,835.39,1610.84,834.05z"/>
								<path class="st6" d="M1656.91,860.67l-29.85-17.2c-2.39-1.4-6.46-1.26-9.06,0.28l-27.81,16.29
									c-2.6,1.54-2.74,3.86-0.35,5.27l29.85,17.2c2.39,1.4,6.46,1.26,9.06-0.28l27.81-16.29
									C1659.15,864.39,1659.3,862,1656.91,860.67z"/>
								<path class="st6" d="M1702.97,887.21l-29.85-17.2c-2.39-1.4-6.46-1.26-9.06,0.28l-27.81,16.29
									c-2.6,1.54-2.81,3.86-0.35,5.27l29.85,17.2c2.39,1.4,6.46,1.26,9.06-0.28l27.81-16.29
									C1705.22,891,1705.36,888.62,1702.97,887.21z"/>
								<path class="st6" d="M1749.04,913.83l-29.85-17.21c-2.39-1.4-6.46-1.26-9.06,0.28l-27.81,16.29
									c-2.6,1.54-2.81,3.86-0.35,5.27l29.85,17.2c2.39,1.4,6.46,1.26,9.06-0.28l27.81-16.29
									C1751.29,917.55,1751.43,915.23,1749.04,913.83z"/>
								<path class="st6" d="M1795.11,940.44l-29.85-17.2c-2.39-1.4-6.46-1.26-9.06,0.28l-27.81,16.29
									c-2.6,1.54-2.81,3.86-0.35,5.27l29.85,17.2c2.39,1.4,6.46,1.26,9.06-0.28l27.81-16.29
									C1797.36,944.16,1797.5,941.85,1795.11,940.44z"/>
								<path class="st6" d="M1841.18,967.06l-29.85-17.2c-2.39-1.4-6.46-1.26-9.06,0.28l-27.81,16.29
									c-2.6,1.54-2.81,3.86-0.35,5.27l29.85,17.2c2.39,1.4,6.46,1.26,9.06-0.28l27.81-16.29
									C1843.42,970.78,1843.63,968.39,1841.18,967.06z"/>
								<path class="st6" d="M1887.31,993.67l-29.85-17.2c-2.39-1.4-6.46-1.26-9.06,0.28l-27.81,16.29
									c-2.6,1.54-2.74,3.86-0.35,5.27l29.85,17.2c2.39,1.4,6.46,1.26,9.06-0.28l27.81-16.29
									C1889.49,997.39,1889.7,995.01,1887.31,993.67z"/>
								<path class="st6" d="M1453.4,792.2l-29.85-17.2c-2.39-1.4-6.46-1.26-9.06,0.28l-27.81,16.29c-2.6,1.54-2.74,3.86-0.35,5.27
									l29.85,17.2c2.39,1.4,6.46,1.26,9.06-0.28l27.81-16.29C1455.64,795.92,1455.78,793.6,1453.4,792.2z"/>
								<path class="st6" d="M1406.63,765.23l-29.85-17.2c-2.39-1.4-6.46-1.26-9.06,0.28l-27.81,16.29
									c-2.6,1.54-2.74,3.86-0.35,5.27l29.85,17.2c2.39,1.4,6.46,1.26,9.06-0.28l27.81-16.29
									C1408.87,768.95,1409.09,766.57,1406.63,765.23z"/>
								<path class="st6" d="M1359.79,738.19l-64.26-37.08c-2.39-1.4-6.46-1.26-9.06,0.28l-27.81,16.29
									c-2.6,1.54-2.74,3.86-0.35,5.27l64.26,37.08c2.39,1.4,6.46,1.26,9.06-0.28l27.81-16.29
									C1362.03,741.92,1362.25,739.53,1359.79,738.19z"/>
								<path class="st6" d="M1305.5,755.82l-52.18-30.13c-2.39-1.4-6.46-1.26-9.06,0.28l-27.81,16.29
									c-2.6,1.54-2.74,3.86-0.35,5.27l52.18,30.13c2.39,1.4,6.46,1.26,9.06-0.28l27.81-16.29
									C1307.68,759.61,1307.89,757.23,1305.5,755.82z"/>
								<path class="st6" d="M1499.46,818.81l-29.85-17.2c-2.39-1.4-6.46-1.26-9.06,0.28l-27.81,16.29
									c-2.6,1.54-2.81,3.86-0.35,5.27l29.85,17.2c2.39,1.4,6.46,1.26,9.06-0.28l27.81-16.29
									C1501.71,822.53,1501.92,820.22,1499.46,818.81z"/>
								<path class="st6" d="M1545.53,845.43l-29.85-17.2c-2.39-1.4-6.46-1.26-9.06,0.28l-27.81,16.29
									c-2.6,1.54-2.81,3.86-0.35,5.27l29.85,17.2c2.39,1.4,6.46,1.26,9.06-0.28l27.81-16.29
									C1547.78,849.15,1547.99,846.76,1545.53,845.43z"/>
								<path class="st6" d="M1591.67,872.04l-29.85-17.2c-2.39-1.4-6.46-1.26-9.06,0.28l-27.81,16.29
									c-2.6,1.54-2.81,3.86-0.35,5.27l29.85,17.2c2.39,1.4,6.46,1.26,9.06-0.28l27.81-16.29
									C1593.85,875.76,1594.06,873.38,1591.67,872.04z"/>
								<path class="st6" d="M1637.74,898.59l-29.85-17.2c-2.39-1.4-6.46-1.26-9.06,0.28l-27.81,16.29
									c-2.6,1.54-2.74,3.86-0.35,5.27l29.85,17.2c2.39,1.4,6.46,1.26,9.06-0.28l27.81-16.29
									C1639.91,902.38,1640.12,899.99,1637.74,898.59z"/>
								<path class="st6" d="M1683.8,925.2l-29.85-17.2c-2.39-1.4-6.46-1.26-9.06,0.28l-27.81,16.29c-2.6,1.54-2.74,3.86-0.35,5.27
									l29.85,17.21c2.39,1.4,6.46,1.26,9.06-0.28l27.81-16.29C1685.98,928.92,1686.19,926.61,1683.8,925.2z"/>
								<path class="st6" d="M1729.87,951.82l-29.85-17.2c-2.39-1.4-6.46-1.26-9.06,0.28l-27.81,16.29
									c-2.6,1.54-2.74,3.86-0.35,5.27l29.85,17.2c2.39,1.4,6.46,1.26,9.06-0.28l27.81-16.29
									C1732.12,955.54,1732.26,953.22,1729.87,951.82z"/>
								<path class="st6" d="M1775.94,978.43l-29.85-17.2c-2.39-1.4-6.46-1.26-9.06,0.28l-27.81,16.29
									c-2.6,1.54-2.81,3.86-0.35,5.27l29.85,17.2c2.39,1.4,6.46,1.26,9.06-0.28l27.81-16.29
									C1778.18,982.15,1778.33,979.77,1775.94,978.43z"/>
								<path class="st6" d="M1822,1005.05l-29.85-17.2c-2.39-1.4-6.46-1.26-9.06,0.28l-27.81,16.29c-2.6,1.54-2.74,3.86-0.35,5.27
									l29.85,17.2c2.39,1.4,6.46,1.26,9.06-0.28l27.81-16.29C1824.25,1008.77,1824.39,1006.38,1822,1005.05z"/>
								<path class="st6" d="M1868.07,1031.59l-29.85-17.21c-2.39-1.4-6.46-1.26-9.06,0.28l-27.81,16.29
									c-2.6,1.55-2.74,3.86-0.35,5.27l29.85,17.2c2.39,1.4,6.46,1.26,9.06-0.28l27.81-16.29
									C1870.32,1035.38,1870.46,1033,1868.07,1031.59z"/>
								<path class="st6" d="M1950.02,1078.92l-65.1-37.57c-2.39-1.4-6.46-1.26-9.06,0.28l-27.81,16.29
									c-2.6,1.54-2.81,3.86-0.35,5.27l65.1,37.57c2.39,1.4,6.46,1.26,9.06-0.28l27.81-16.29
									C1952.2,1082.65,1952.41,1080.26,1950.02,1078.92z"/>
								<path class="st6" d="M1865.54,1128.22l-54.92-31.74c-2.39-1.4-6.46-1.26-9.06,0.28l-27.81,16.29
									c-2.6,1.54-2.74,3.86-0.35,5.27l54.92,31.74c2.39,1.4,6.46,1.26,9.06-0.28l27.81-16.29
									C1867.79,1132.01,1867.93,1129.63,1865.54,1128.22z"/>
								<path class="st6" d="M1493.07,864.18l-29.85-17.2c-2.39-1.4-6.46-1.26-9.06,0.28l-27.81,16.29
									c-2.6,1.54-2.74,3.86-0.35,5.27l29.85,17.2c2.39,1.4,6.46,1.26,9.06-0.28l27.81-16.29
									C1495.32,867.9,1495.46,865.58,1493.07,864.18z"/>
								<path class="st6" d="M1445.88,836.93l-29.85-17.2c-2.39-1.4-6.46-1.26-9.06,0.28l-27.81,16.29
									c-2.6,1.54-2.74,3.86-0.35,5.27l29.85,17.21c2.39,1.4,6.46,1.26,9.06-0.28l27.81-16.29
									C1448.13,840.65,1448.27,838.26,1445.88,836.93z"/>
								<path class="st6" d="M1398.62,809.61l-29.85-17.21c-2.39-1.4-6.46-1.26-9.06,0.28l-27.81,16.29
									c-2.6,1.54-2.81,3.86-0.35,5.27l29.85,17.2c2.39,1.4,6.46,1.26,9.06-0.28l27.81-16.29
									C1400.87,813.41,1401.08,811.02,1398.62,809.61z"/>
								<path class="st6" d="M1351.43,782.37l-29.85-17.21c-2.39-1.4-6.46-1.26-9.06,0.28l-27.81,16.29
									c-2.6,1.54-2.74,3.86-0.35,5.27l29.85,17.2c2.39,1.4,6.46,1.26,9.06-0.28l27.81-16.29
									C1353.68,786.09,1353.82,783.77,1351.43,782.37z"/>
								<path class="st6" d="M1539.14,890.79l-29.85-17.2c-2.39-1.4-6.46-1.26-9.06,0.28l-27.81,16.29
									c-2.6,1.54-2.74,3.86-0.35,5.27l29.85,17.2c2.39,1.4,6.46,1.26,9.06-0.28l27.81-16.29
									C1541.39,894.51,1541.6,892.13,1539.14,890.79z"/>
								<path class="st6" d="M1585.28,917.34l-29.85-17.2c-2.39-1.4-6.46-1.26-9.06,0.28l-27.81,16.29
									c-2.6,1.54-2.81,3.86-0.35,5.27l29.85,17.2c2.39,1.4,6.46,1.26,9.06-0.28l27.81-16.29
									C1587.46,921.13,1587.67,918.74,1585.28,917.34z"/>
								<path class="st6" d="M1631.35,943.95l-29.85-17.2c-2.39-1.4-6.46-1.26-9.06,0.28l-27.81,16.29
									c-2.6,1.54-2.81,3.86-0.35,5.27l29.85,17.2c2.39,1.4,6.46,1.26,9.06-0.28l27.81-16.29
									C1633.52,947.74,1633.73,945.36,1631.35,943.95z"/>
								<path class="st6" d="M1677.41,970.57l-29.85-17.2c-2.39-1.4-6.46-1.26-9.06,0.28l-27.81,16.29
									c-2.6,1.54-2.74,3.86-0.35,5.27l29.85,17.2c2.39,1.4,6.46,1.26,9.06-0.28l27.81-16.29
									C1679.59,974.29,1679.8,971.97,1677.41,970.57z"/>
								<path class="st6" d="M1723.48,997.18l-29.85-17.2c-2.39-1.4-6.46-1.26-9.06,0.28l-27.81,16.29
									c-2.6,1.54-2.74,3.86-0.35,5.27l29.85,17.21c2.39,1.4,6.46,1.26,9.06-0.28l27.81-16.29
									C1725.73,1000.9,1725.87,998.59,1723.48,997.18z"/>
								<path class="st6" d="M1769.55,1023.8l-29.85-17.2c-2.39-1.4-6.46-1.26-9.06,0.28l-27.81,16.29
									c-2.6,1.54-2.74,3.86-0.35,5.27l29.85,17.2c2.39,1.4,6.46,1.26,9.06-0.28l27.81-16.29
									C1771.79,1027.52,1771.94,1025.13,1769.55,1023.8z"/>
								<path class="st6" d="M1815.61,1050.34l-29.85-17.2c-2.39-1.4-6.46-1.26-9.06,0.28l-27.81,16.29
									c-2.6,1.54-2.81,3.86-0.35,5.27l29.85,17.2c2.39,1.4,6.46,1.26,9.06-0.28l27.81-16.29
									C1817.86,1054.13,1818,1051.75,1815.61,1050.34z"/>
								<path class="st6" d="M1861.68,1076.96l-29.85-17.2c-2.39-1.4-6.46-1.26-9.06,0.28l-27.81,16.29
									c-2.6,1.54-2.74,3.86-0.35,5.27l29.85,17.2c2.39,1.4,6.46,1.26,9.06-0.28l27.81-16.29
									C1863.93,1080.75,1864.07,1078.36,1861.68,1076.96z"/>
								<path class="st6" d="M1907.75,1103.57l-29.85-17.2c-2.39-1.4-6.46-1.26-9.06,0.28l-27.81,16.29
									c-2.6,1.54-2.74,3.86-0.35,5.27l29.85,17.2c2.39,1.4,6.46,1.26,9.06-0.28l27.81-16.29
									C1910,1107.29,1910.14,1104.98,1907.75,1103.57z"/>
								<path class="st6" d="M1381.77,848.94l-29.85-17.2c-2.39-1.4-6.46-1.26-9.06,0.28l-27.81,16.29
									c-2.6,1.54-2.81,3.86-0.35,5.27l29.85,17.21c2.39,1.4,6.46,1.26,9.06-0.28l27.81-16.29
									C1383.95,852.66,1384.16,850.34,1381.77,848.94z"/>
								<path class="st6" d="M1335.91,822.46l-29.85-17.2c-2.39-1.4-6.46-1.26-9.06,0.28l-27.81,16.29
									c-2.6,1.54-2.81,3.86-0.35,5.27l29.85,17.2c2.39,1.4,6.46,1.26,9.06-0.28l27.81-16.29
									C1338.16,826.19,1338.3,823.87,1335.91,822.46z"/>
								<path class="st6" d="M1290.05,795.99l-29.85-17.2c-2.39-1.4-6.46-1.26-9.06,0.28l-27.81,16.29
									c-2.6,1.54-2.81,3.86-0.35,5.27l29.85,17.2c2.39,1.4,6.46,1.26,9.06-0.28l27.81-16.29
									C1292.3,799.71,1292.44,797.39,1290.05,795.99z"/>
								<path class="st6" d="M1244.2,769.51l-29.85-17.2c-2.39-1.4-6.46-1.26-9.06,0.28l-27.81,16.29c-2.6,1.54-2.74,3.86-0.35,5.27
									l29.85,17.2c2.39,1.4,6.46,1.26,9.06-0.28l27.81-16.29C1246.45,773.24,1246.59,770.92,1244.2,769.51z"/>
								<path class="st6" d="M1199.82,795.5l-29.85-17.2c-2.39-1.4-6.46-1.26-9.06,0.28l-9.2,5.41c-2.6,1.54-2.81,3.86-0.35,5.27
									l29.85,17.2c2.39,1.4,6.46,1.26,9.06-0.28l9.2-5.41C1202.06,799.22,1202.2,796.83,1199.82,795.5z"/>
								<path class="st6" d="M1259.65,829.98l-29.85-17.2c-2.39-1.4-6.46-1.26-9.06,0.28l-9.2,5.41c-2.6,1.54-2.74,3.86-0.35,5.27
									l29.85,17.2c2.39,1.4,6.46,1.26,9.06-0.28l9.2-5.41C1261.9,833.77,1262.04,831.38,1259.65,829.98z"/>
								<path class="st6" d="M1305.29,856.38l-29.85-17.2c-2.39-1.4-6.46-1.26-9.06,0.28l-9.2,5.41c-2.6,1.54-2.81,3.86-0.35,5.27
									l29.85,17.21c2.39,1.4,6.46,1.26,9.06-0.28l9.2-5.41C1307.54,860.1,1307.68,857.72,1305.29,856.38z"/>
								<path class="st6" d="M1350.94,882.72l-29.78-17.2c-2.39-1.4-6.46-1.26-9.06,0.28l-9.2,5.41c-2.6,1.54-2.74,3.86-0.35,5.27
									l29.85,17.21c2.39,1.4,6.46,1.26,9.06-0.28l9.2-5.41C1353.19,886.44,1353.33,884.12,1350.94,882.72z"/>
								<path class="st6" d="M1396.59,909.05l-29.85-17.2c-2.39-1.4-6.46-1.26-9.06,0.28l-9.2,5.41c-2.6,1.54-2.81,3.86-0.35,5.27
									l29.85,17.2c2.39,1.4,6.46,1.26,9.06-0.28l9.2-5.41C1398.83,912.84,1399.04,910.46,1396.59,909.05z"/>
								<path class="st6" d="M1651.5,1056.24l-29.85-17.2c-2.39-1.4-6.46-1.26-9.06,0.28l-9.2,5.41c-2.6,1.55-2.74,3.86-0.35,5.27
									l29.85,17.2c2.39,1.4,6.46,1.26,9.06-0.28l9.2-5.41C1653.75,1059.96,1653.89,1057.65,1651.5,1056.24z"/>
								<path class="st6" d="M1697.15,1082.58l-29.85-17.2c-2.39-1.4-6.46-1.26-9.06,0.28l-9.2,5.41c-2.6,1.54-2.81,3.86-0.35,5.27
									l29.85,17.2c2.39,1.4,6.46,1.26,9.06-0.28l9.2-5.41C1699.39,1086.37,1699.53,1083.98,1697.15,1082.58z"/>
								<path class="st6" d="M1742.79,1108.98l-29.85-17.2c-2.39-1.4-6.46-1.26-9.06,0.28l-9.2,5.41c-2.6,1.55-2.81,3.86-0.35,5.27
									l29.85,17.2c2.39,1.4,6.46,1.26,9.06-0.28l9.2-5.41C1745.04,1112.7,1745.18,1110.31,1742.79,1108.98z"/>
								<path class="st6" d="M1788.44,1135.31l-29.85-17.2c-2.39-1.4-6.46-1.26-9.06,0.28l-9.2,5.41c-2.6,1.54-2.74,3.86-0.35,5.27
									l29.85,17.2c2.39,1.4,6.46,1.26,9.06-0.28l9.2-5.41C1790.68,1139.04,1790.83,1136.72,1788.44,1135.31z"/>
								<path class="st6" d="M1427.84,875.55l-29.85-17.21c-2.39-1.4-6.46-1.26-9.06,0.28l-27.81,16.29
									c-2.6,1.54-2.74,3.86-0.35,5.27l29.85,17.2c2.39,1.4,6.46,1.26,9.06-0.28l27.81-16.29
									C1430.08,879.28,1430.22,876.96,1427.84,875.55z"/>
								<path class="st6" d="M1473.9,902.17l-29.85-17.2c-2.39-1.4-6.46-1.26-9.06,0.28l-27.81,16.29c-2.6,1.54-2.74,3.86-0.35,5.27
									l29.85,17.2c2.39,1.4,6.46,1.26,9.06-0.28l27.81-16.29C1476.15,905.89,1476.29,903.5,1473.9,902.17z"/>
								<path class="st6" d="M1519.97,928.71l-29.85-17.2c-2.39-1.4-6.46-1.26-9.06,0.28l-27.81,16.29
									c-2.6,1.54-2.81,3.86-0.35,5.27l29.85,17.2c2.39,1.4,6.46,1.26,9.06-0.28l27.81-16.29
									C1522.22,932.51,1522.36,930.12,1519.97,928.71z"/>
								<path class="st6" d="M1566.04,955.33l-29.85-17.21c-2.39-1.4-6.46-1.26-9.06,0.28l-27.81,16.29
									c-2.6,1.54-2.74,3.86-0.35,5.27l29.85,17.2c2.39,1.4,6.46,1.26,9.06-0.28l27.81-16.29
									C1568.28,959.05,1568.42,956.73,1566.04,955.33z"/>
								<path class="st6" d="M1612.1,981.94l-29.85-17.21c-2.39-1.4-6.46-1.26-9.06,0.28l-27.81,16.29
									c-2.6,1.54-2.74,3.86-0.35,5.27l29.85,17.2c2.39,1.4,6.46,1.26,9.06-0.28l27.81-16.29
									C1614.35,985.67,1614.49,983.35,1612.1,981.94z"/>
								<path class="st6" d="M1658.17,1008.56l-29.85-17.2c-2.39-1.4-6.46-1.26-9.06,0.28l-27.81,16.29
									c-2.6,1.54-2.74,3.86-0.35,5.27l29.85,17.2c2.39,1.4,6.46,1.26,9.06-0.28l27.81-16.29
									C1660.42,1012.28,1660.63,1009.96,1658.17,1008.56z"/>
								<path class="st6" d="M1704.31,1035.17l-29.85-17.21c-2.39-1.4-6.46-1.26-9.06,0.28l-27.81,16.29
									c-2.6,1.54-2.81,3.86-0.35,5.27l29.85,17.2c2.39,1.4,6.46,1.26,9.06-0.28l27.81-16.29
									C1706.49,1038.9,1706.7,1036.51,1704.31,1035.17z"/>
								<path class="st6" d="M1750.38,1061.72l-29.85-17.2c-2.39-1.4-6.46-1.26-9.06,0.28l-27.81,16.29
									c-2.6,1.55-2.81,3.86-0.35,5.27l29.85,17.2c2.39,1.4,6.46,1.26,9.06-0.28l27.81-16.29
									C1752.55,1065.51,1752.76,1063.12,1750.38,1061.72z"/>
								<path class="st6" d="M1796.44,1088.33l-29.85-17.2c-2.39-1.4-6.46-1.26-9.06,0.28l-27.81,16.29
									c-2.6,1.54-2.74,3.86-0.35,5.27l29.85,17.2c2.39,1.4,6.46,1.26,9.06-0.28l27.81-16.29
									C1798.62,1092.06,1798.83,1089.74,1796.44,1088.33z"/>
								<path class="st6" d="M1425.66,727.1l-87.85-50.7c-2.39-1.4-6.46-1.26-9.06,0.28l-27.81,16.29c-2.6,1.54-2.74,3.86-0.35,5.27
									l87.85,50.7c2.39,1.4,6.46,1.26,9.06-0.28l27.81-16.29C1427.91,730.89,1428.05,728.5,1425.66,727.1z"/>
								<path class="st6" d="M1991.67,1053.92l-87.85-50.7c-2.39-1.4-6.46-1.26-9.06,0.28l-27.81,16.29
									c-2.6,1.54-2.81,3.86-0.35,5.27l87.85,50.7c2.39,1.4,6.46,1.26,9.06-0.28l27.81-16.29
									C1993.91,1057.65,1994.05,1055.33,1991.67,1053.92z"/>
								<path class="st6" d="M1906.2,948.94l-29.85-17.2c-2.39-1.4-6.46-1.26-9.06,0.28l-33.15,19.38c-2.6,1.54-2.81,3.86-0.35,5.27
									l29.85,17.21c2.39,1.4,6.46,1.26,9.06-0.28l33.15-19.38C1908.45,952.66,1908.66,950.34,1906.2,948.94z"/>
								<path class="st6" d="M1571.65,755.75l-47.68-27.53c-2.39-1.4-6.46-1.26-9.06,0.28l-33.15,19.38
									c-2.6,1.54-2.81,3.86-0.35,5.27l47.68,27.53c2.39,1.4,6.46,1.26,9.06-0.28l33.15-19.38
									C1573.9,759.47,1574.04,757.16,1571.65,755.75z"/>
								<path class="st6" d="M1861.82,923.31l-47.68-27.53c-2.39-1.4-6.46-1.26-9.06,0.28l-33.15,19.38
									c-2.6,1.54-2.81,3.86-0.35,5.27l47.68,27.53c2.39,1.4,6.46,1.26,9.06-0.28l33.15-19.38
									C1864.07,927.03,1864.21,924.71,1861.82,923.31z"/>
								<path class="st6" d="M1638.09,794.16l-47.68-27.53c-2.39-1.4-6.46-1.26-9.06,0.28l-33.15,19.38
									c-2.6,1.54-2.81,3.86-0.35,5.27l47.68,27.53c2.39,1.4,6.46,1.26,9.06-0.28l33.15-19.38
									C1640.33,797.89,1640.55,795.5,1638.09,794.16z"/>
								<path class="st6" d="M1548.13,791.64l207.44,119.8c2.6,1.47,6.6,1.54,9.06,0.14l33.85-19.73c2.46-1.4,2.32-3.79-0.28-5.27
									l-207.44-119.8L1548.13,791.64z"/>
								<path class="st6" d="M1991.11,1022.67l33.22,19.17c1.97,1.12,5.27,1.05,7.44-0.21l13.55-7.94c2.11-1.26,2.25-3.16,0.28-4.28
									l-33.22-19.17c-1.97-1.12-5.27-1.05-7.44,0.21l-13.55,7.94C1989.28,1019.58,1989.14,1021.55,1991.11,1022.67z"/>
								<path class="st6" d="M1944.62,995.85l33.22,19.17c1.97,1.12,5.27,1.05,7.44-0.21l13.55-7.94c2.11-1.26,2.25-3.16,0.28-4.28
									l-33.22-19.17c-1.97-1.12-5.27-1.05-7.44,0.21l-13.55,7.94C1942.79,992.76,1942.65,994.72,1944.62,995.85z"/>
								<path class="st6" d="M1898.55,969.23l33.22,19.17c1.97,1.12,5.27,1.05,7.44-0.21l13.55-7.94c2.11-1.26,2.25-3.16,0.28-4.28
									l-33.22-19.17c-1.97-1.12-5.27-1.05-7.44,0.21l-13.55,7.94C1896.72,966.14,1896.58,968.11,1898.55,969.23z"/>
								<path class="st6" d="M1920.67,1009.82l33.22,19.17c1.97,1.12,5.27,1.05,7.44-0.21l13.55-7.94c2.11-1.26,2.25-3.16,0.28-4.28
									l-33.22-19.17c-1.97-1.12-5.27-1.05-7.44,0.21l-13.55,7.94C1918.84,1006.8,1918.7,1008.7,1920.67,1009.82z"/>
							</g>
						</g>
					</g>
				</g>
			</g>
			<g class="st17">
				<path class="st6" d="M766.18,1036.3l-29.56-17.06c-2.39-1.33-2.11-3.79,0.63-5.34l34.9-20.15c2.74-1.62,6.88-1.76,9.27-0.35
					l29.56,17.06c2.39,1.4,2.11,3.79-0.63,5.34l-34.9,20.15C772.71,1037.49,768.57,1037.63,766.18,1036.3z"/>
				<path class="st6" d="M811.83,1062.63l-29.56-17.06c-2.39-1.4-2.11-3.79,0.63-5.34l34.9-20.15c2.74-1.62,6.88-1.76,9.27-0.35
					l29.56,17.06c2.39,1.4,2.11,3.79-0.63,5.34l-34.9,20.15C818.36,1063.83,814.21,1063.97,811.83,1062.63z"/>
				<path class="st6" d="M857.47,1088.97l-29.56-17.06c-2.39-1.33-2.11-3.79,0.63-5.34l34.9-20.15c2.74-1.62,6.88-1.76,9.27-0.35
					l29.56,17.06c2.39,1.4,2.11,3.79-0.63,5.34l-34.9,20.15C864,1090.16,859.86,1090.3,857.47,1088.97z"/>
				<path class="st6" d="M920.6,1067.2l-29.56-17.06c-2.39-1.4-2.11-3.79,0.63-5.34l29.28-16.92c2.74-1.62,6.88-1.76,9.27-0.35
					l29.56,17.06c2.39,1.4,2.11,3.79-0.63,5.34l-29.28,16.92C927.06,1068.39,922.92,1068.6,920.6,1067.2z"/>
				<path class="st6" d="M966.18,1093.53l-29.56-17.06c-2.39-1.4-2.11-3.79,0.63-5.34l29.28-16.92c2.74-1.62,6.88-1.76,9.27-0.35
					l29.56,17.06c2.39,1.33,2.11,3.79-0.63,5.34l-29.28,16.92C972.71,1094.72,968.57,1094.93,966.18,1093.53z"/>
				<path class="st6" d="M1011.83,1119.86l-29.56-17.06c-2.39-1.4-2.11-3.79,0.63-5.34l29.28-16.92c2.74-1.62,6.88-1.76,9.27-0.35
					l29.56,17.06c2.39,1.4,2.11,3.79-0.63,5.34l-29.28,16.92C1018.36,1121.06,1014.21,1121.27,1011.83,1119.86z"/>
				<path class="st6" d="M1057.47,1146.2l-29.56-17.06c-2.39-1.4-2.11-3.79,0.63-5.34l29.28-16.92c2.74-1.62,6.88-1.76,9.27-0.35
					l29.56,17.06c2.39,1.4,2.11,3.79-0.63,5.34l-29.28,16.92C1064,1147.46,1059.86,1147.6,1057.47,1146.2z"/>
				<path class="st6" d="M1103.12,1172.6l-29.56-17.06c-2.39-1.4-2.11-3.79,0.63-5.34l29.28-16.92c2.74-1.62,6.88-1.76,9.27-0.35
					l29.56,17.06c2.39,1.4,2.11,3.79-0.63,5.34l-29.28,16.92C1109.65,1173.8,1105.51,1173.94,1103.12,1172.6z"/>
				<path class="st6" d="M1148.76,1198.94l-29.56-17.06c-2.39-1.4-2.11-3.79,0.63-5.34l29.28-16.92c2.74-1.62,6.88-1.76,9.27-0.35
					l29.56,17.06c2.39,1.4,2.11,3.79-0.63,5.34l-29.28,16.92C1155.22,1200.13,1151.08,1200.27,1148.76,1198.94z"/>
				<path class="st6" d="M1194.34,1225.27l-29.56-17.06c-2.39-1.33-2.11-3.79,0.63-5.34l29.28-16.92c2.74-1.62,6.88-1.76,9.27-0.35
					l29.56,17.06c2.39,1.33,2.11,3.79-0.63,5.34l-29.28,16.92C1200.87,1226.47,1196.73,1226.61,1194.34,1225.27z"/>
				<path class="st6" d="M1239.98,1251.61l-29.56-17.06c-2.39-1.4-2.11-3.79,0.63-5.34l29.28-16.92c2.74-1.62,6.88-1.76,9.27-0.35
					l29.56,17.06c2.39,1.33,2.11,3.79-0.63,5.34l-29.28,16.92C1246.52,1252.8,1242.37,1253.01,1239.98,1251.61z"/>
				<path class="st6" d="M1285.63,1277.94l-29.56-17.06c-2.39-1.4-2.11-3.79,0.63-5.34l29.28-16.92c2.74-1.62,6.88-1.76,9.27-0.35
					l29.56,17.06c2.39,1.4,2.11,3.79-0.63,5.34l-29.28,16.92C1292.16,1279.13,1288.02,1279.34,1285.63,1277.94z"/>
				<path class="st6" d="M1331.28,1304.27l-29.56-17.06c-2.39-1.4-2.11-3.79,0.63-5.34l29.28-16.92c2.74-1.62,6.88-1.76,9.27-0.35
					l29.56,17.06c2.39,1.4,2.11,3.79-0.63,5.34l-29.28,16.92C1337.74,1305.47,1333.59,1305.68,1331.28,1304.27z"/>
				<path class="st6" d="M987.81,1054.7l-29.56-17.06c-2.39-1.33-2.11-3.79,0.63-5.34l29.28-16.92c2.74-1.62,6.88-1.76,9.27-0.35
					l29.56,17.06c2.39,1.33,2.11,3.79-0.63,5.34l-29.28,16.92C994.34,1055.89,990.2,1056.1,987.81,1054.7z"/>
				<path class="st6" d="M941.53,1028.01l-29.56-17.06c-2.39-1.33-2.11-3.79,0.63-5.34l29.28-16.92c2.74-1.62,6.88-1.76,9.27-0.35
					l29.56,17.06c2.39,1.4,2.11,3.79-0.63,5.34l-29.28,16.92C947.99,1029.2,943.85,1029.35,941.53,1028.01z"/>
				<path class="st6" d="M895.11,1001.19l-63.62-36.73c-2.39-1.4-2.11-3.79,0.63-5.34l29.28-16.92c2.74-1.62,6.88-1.76,9.27-0.35
					l63.62,36.73c2.39,1.33,2.11,3.79-0.63,5.34l-29.28,16.92C901.64,1002.38,897.5,1002.59,895.11,1001.19z"/>
				<path class="st6" d="M927.56,968.6l-51.61-29.85c-2.39-1.4-2.11-3.79,0.63-5.34l29.28-16.92c2.74-1.62,6.88-1.76,9.27-0.35
					l51.61,29.85c2.39,1.4,2.11,3.79-0.63,5.34l-29.28,16.92C934.09,969.87,929.94,970.01,927.56,968.6z"/>
				<path class="st6" d="M1033.45,1081.1l-29.56-17.06c-2.39-1.4-2.11-3.79,0.63-5.34l29.28-16.92c2.74-1.62,6.88-1.76,9.27-0.35
					l29.56,17.06c2.39,1.4,2.11,3.79-0.63,5.34l-29.28,16.92C1039.99,1082.29,1035.84,1082.43,1033.45,1081.1z"/>
				<path class="st6" d="M1079.1,1107.43l-29.56-17.06c-2.39-1.4-2.11-3.79,0.63-5.34l29.28-16.92c2.74-1.62,6.88-1.76,9.27-0.35
					l29.56,17.06c2.39,1.4,2.11,3.79-0.63,5.34l-29.28,16.92C1085.56,1108.63,1081.42,1108.77,1079.1,1107.43z"/>
				<path class="st6" d="M1124.68,1133.77l-29.56-17.06c-2.39-1.4-2.11-3.79,0.63-5.34l29.28-16.92c2.74-1.62,6.88-1.76,9.27-0.35
					l29.56,17.06c2.39,1.4,2.11,3.79-0.63,5.34l-29.28,16.92C1131.21,1134.96,1127.06,1135.1,1124.68,1133.77z"/>
				<path class="st6" d="M1170.32,1160.1l-29.56-17.06c-2.39-1.4-2.11-3.79,0.63-5.34l29.28-16.92c2.74-1.62,6.88-1.76,9.27-0.35
					l29.56,17.06c2.39,1.4,2.11,3.79-0.63,5.34l-29.28,16.92C1176.85,1161.3,1172.71,1161.44,1170.32,1160.1z"/>
				<path class="st6" d="M1215.97,1186.44l-29.56-17.06c-2.39-1.33-2.11-3.79,0.63-5.34l29.28-16.92c2.74-1.62,6.88-1.76,9.27-0.35
					l29.56,17.06c2.39,1.4,2.11,3.79-0.63,5.34l-29.28,16.92C1222.5,1187.63,1218.36,1187.84,1215.97,1186.44z"/>
				<path class="st6" d="M1261.61,1212.77l-29.56-17.06c-2.39-1.4-2.11-3.79,0.63-5.34l29.28-16.92c2.74-1.62,6.88-1.76,9.27-0.35
					l29.56,17.06c2.39,1.4,2.11,3.79-0.63,5.34l-29.28,16.92C1268.07,1213.97,1263.93,1214.18,1261.61,1212.77z"/>
				<path class="st6" d="M1307.19,1239.11l-29.56-17.06c-2.39-1.33-2.11-3.79,0.63-5.34l29.28-16.92c2.74-1.62,6.88-1.76,9.27-0.35
					l29.56,17.06c2.39,1.4,2.11,3.79-0.63,5.34l-29.28,16.92C1313.72,1240.37,1309.58,1240.51,1307.19,1239.11z"/>
				<path class="st6" d="M1352.84,1265.51l-29.56-17.06c-2.39-1.33-2.11-3.79,0.63-5.34l29.28-16.92c2.74-1.62,6.88-1.76,9.27-0.35
					l29.56,17.06c2.39,1.33,2.11,3.79-0.63,5.34l-29.28,16.92C1359.37,1266.7,1355.22,1266.84,1352.84,1265.51z"/>
				<path class="st6" d="M1398.48,1291.84l-29.56-17.06c-2.39-1.4-2.11-3.79,0.63-5.34l29.28-16.92c2.74-1.62,6.88-1.76,9.27-0.35
					l29.56,17.06c2.39,1.33,2.11,3.79-0.63,5.34l-29.28,16.92C1405.01,1293.04,1400.87,1293.18,1398.48,1291.84z"/>
				<path class="st6" d="M1479.59,1338.68l-64.47-37.22c-2.39-1.4-2.11-3.79,0.63-5.34l29.28-16.92c2.74-1.62,6.88-1.76,9.27-0.35
					l64.47,37.22c2.39,1.4,2.11,3.79-0.63,5.34l-29.28,16.92C1486.12,1339.88,1481.98,1340.02,1479.59,1338.68z"/>
				<path class="st6" d="M1568.42,1287.35l-54.42-31.39c-2.39-1.33-2.11-3.79,0.63-5.34l29.28-16.92c2.74-1.62,6.88-1.76,9.27-0.35
					l54.42,31.39c2.39,1.33,2.11,3.79-0.63,5.34l-29.28,16.92C1574.96,1288.54,1570.81,1288.75,1568.42,1287.35z"/>
				<path class="st6" d="M1113.37,1075.9l-29.56-17.06c-2.39-1.4-2.11-3.79,0.63-5.34l29.28-16.92c2.74-1.62,6.88-1.76,9.27-0.35
					l29.56,17.06c2.39,1.4,2.11,3.79-0.63,5.34l-29.28,16.92C1119.9,1077.1,1115.76,1077.31,1113.37,1075.9z"/>
				<path class="st6" d="M1066.6,1048.94l-29.56-17.06c-2.39-1.4-2.11-3.79,0.63-5.34l29.28-16.92c2.74-1.62,6.88-1.76,9.27-0.35
					l29.56,17.06c2.39,1.4,2.11,3.79-0.63,5.34l-29.28,16.92C1073.13,1050.13,1068.99,1050.27,1066.6,1048.94z"/>
				<path class="st6" d="M1019.83,1021.9l-29.56-17.06c-2.39-1.4-2.11-3.79,0.63-5.34l29.28-16.92c2.74-1.62,6.88-1.76,9.27-0.35
					l29.56,17.06c2.39,1.4,2.11,3.79-0.63,5.34l-29.28,16.92C1026.36,1023.1,1022.22,1023.31,1019.83,1021.9z"/>
				<path class="st6" d="M973.06,994.94l-29.56-17.06c-2.39-1.33-2.11-3.79,0.63-5.34l29.28-16.92c2.74-1.62,6.88-1.76,9.27-0.35
					l29.56,17.06c2.39,1.4,2.11,3.79-0.63,5.34l-29.28,16.92C979.59,996.13,975.45,996.27,973.06,994.94z"/>
				<path class="st6" d="M1158.95,1102.24l-29.56-17.06c-2.39-1.4-2.11-3.79,0.63-5.34l29.28-16.92c2.74-1.62,6.88-1.76,9.27-0.35
					l29.56,17.06c2.39,1.4,2.11,3.79-0.63,5.34l-29.28,16.92C1165.48,1103.43,1161.33,1103.64,1158.95,1102.24z"/>
				<path class="st6" d="M1204.59,1128.57l-29.56-17.06c-2.39-1.4-2.11-3.79,0.63-5.34l29.28-16.92c2.74-1.62,6.88-1.76,9.27-0.35
					l29.56,17.06c2.39,1.4,2.11,3.79-0.63,5.34l-29.28,16.92C1211.12,1129.84,1206.98,1129.98,1204.59,1128.57z"/>
				<path class="st6" d="M1250.24,1154.98l-29.56-17.06c-2.39-1.4-2.11-3.79,0.63-5.34l29.28-16.92c2.74-1.62,6.88-1.76,9.27-0.35
					l29.56,17.06c2.39,1.4,2.11,3.79-0.63,5.34l-29.28,16.92C1256.77,1156.17,1252.63,1156.31,1250.24,1154.98z"/>
				<path class="st6" d="M1295.88,1181.31l-29.56-17.06c-2.39-1.33-2.11-3.79,0.63-5.34l29.28-16.92c2.74-1.62,6.88-1.76,9.27-0.35
					l29.56,17.06c2.39,1.4,2.11,3.79-0.63,5.34l-29.28,16.92C1302.41,1182.5,1298.27,1182.65,1295.88,1181.31z"/>
				<path class="st6" d="M1341.53,1207.65l-29.56-17.06c-2.39-1.33-2.11-3.79,0.63-5.34l29.28-16.92c2.74-1.62,6.88-1.76,9.27-0.35
					l29.56,17.06c2.39,1.33,2.11,3.79-0.63,5.34l-29.28,16.92C1347.99,1208.84,1343.85,1208.98,1341.53,1207.65z"/>
				<path class="st6" d="M1387.11,1233.98l-29.56-17.06c-2.39-1.4-2.11-3.79,0.63-5.34l29.28-16.92c2.74-1.62,6.88-1.76,9.27-0.35
					l29.56,17.06c2.39,1.33,2.11,3.79-0.63,5.34l-29.28,16.92C1393.64,1235.17,1389.49,1235.38,1387.11,1233.98z"/>
				<path class="st6" d="M1432.75,1260.31l-29.56-17.06c-2.39-1.4-2.11-3.79,0.63-5.34l29.28-16.92c2.74-1.62,6.88-1.76,9.27-0.35
					l29.56,17.06c2.39,1.4,2.11,3.79-0.63,5.34l-29.28,16.92C1439.28,1261.51,1435.14,1261.72,1432.75,1260.31z"/>
				<path class="st6" d="M1478.4,1286.65l-29.56-17.06c-2.39-1.4-2.11-3.79,0.63-5.34l29.28-16.92c2.74-1.62,6.88-1.76,9.27-0.35
					l29.56,17.06c2.39,1.4,2.11,3.79-0.63,5.34l-29.28,16.92C1484.93,1287.84,1480.78,1288.05,1478.4,1286.65z"/>
				<path class="st6" d="M1524.04,1312.98l-29.56-17.06c-2.39-1.4-2.11-3.79,0.63-5.34l29.28-16.92c2.74-1.62,6.88-1.76,9.27-0.35
					l29.56,17.06c2.39,1.4,2.11,3.79-0.63,5.34l-29.28,16.92C1530.5,1314.25,1526.36,1314.39,1524.04,1312.98z"/>
				<path class="st6" d="M1089.35,1010.74l-29.56-17.06c-2.39-1.33-2.11-3.79,0.63-5.34l29.28-16.92c2.74-1.62,6.88-1.76,9.27-0.35
					l29.56,17.06c2.39,1.33,2.11,3.79-0.63,5.34l-29.28,16.92C1095.81,1011.93,1091.67,1012.14,1089.35,1010.74z"/>
				<path class="st6" d="M1043.92,984.54l-29.56-17.06c-2.39-1.4-2.11-3.79,0.63-5.34l29.28-16.92c2.74-1.62,6.88-1.76,9.27-0.35
					l29.56,17.06c2.39,1.4,2.11,3.79-0.63,5.34l-29.28,16.92C1050.45,985.74,1046.31,985.88,1043.92,984.54z"/>
				<path class="st6" d="M998.48,958.35l-29.56-17.06c-2.39-1.4-2.11-3.79,0.63-5.34l29.28-16.92c2.74-1.62,6.88-1.76,9.27-0.35
					l29.56,17.06c2.39,1.4,2.11,3.79-0.63,5.34L1007.75,958C1005.01,959.54,1000.87,959.68,998.48,958.35z"/>
				<path class="st6" d="M953.12,932.08l-29.56-17.06c-2.39-1.33-2.11-3.79,0.63-5.34l29.28-16.92c2.74-1.62,6.88-1.76,9.27-0.35
					l29.56,17.06c2.39,1.33,2.11,3.79-0.63,5.34l-29.28,16.92C959.65,933.28,955.51,933.49,953.12,932.08z"/>
				<path class="st6" d="M999.82,905.19l-29.56-17.06c-2.39-1.4-2.11-3.79,0.63-5.34l9.69-5.62c2.74-1.62,6.88-1.76,9.27-0.35
					l29.56,17.06c2.39,1.4,2.11,3.79-0.63,5.34l-9.69,5.62C1006.35,906.38,1002.2,906.52,999.82,905.19z"/>
				<path class="st6" d="M1059.09,939.39l-29.56-17.06c-2.39-1.4-2.11-3.79,0.63-5.34l9.69-5.62c2.74-1.62,6.88-1.76,9.27-0.35
					l29.56,17.06c2.39,1.33,2.11,3.79-0.63,5.34l-9.69,5.62C1065.55,940.58,1061.4,940.72,1059.09,939.39z"/>
				<path class="st6" d="M1104.24,965.44l-29.56-17.06c-2.39-1.4-2.11-3.79,0.63-5.34l9.69-5.62c2.74-1.62,6.88-1.76,9.27-0.35
					l29.56,17.06c2.39,1.4,2.11,3.79-0.63,5.34l-9.69,5.62C1110.77,966.63,1106.63,966.85,1104.24,965.44z"/>
				<path class="st6" d="M1149.47,991.56l-29.56-17.06c-2.39-1.4-2.11-3.79,0.63-5.34l9.69-5.62c2.74-1.62,6.88-1.76,9.27-0.35
					l29.56,17.06c2.39,1.4,2.11,3.79-0.63,5.34l-9.69,5.62C1156,992.76,1151.85,992.97,1149.47,991.56z"/>
				<path class="st6" d="M1194.69,1017.69l-29.56-17.06c-2.39-1.4-2.11-3.79,0.63-5.34l9.69-5.62c2.74-1.62,6.88-1.76,9.27-0.35
					l29.56,17.06c2.39,1.4,2.11,3.79-0.63,5.34l-9.69,5.62C1201.22,1018.88,1197.08,1019.02,1194.69,1017.69z"/>
				<path class="st6" d="M1447.15,1163.4l-29.56-17.06c-2.39-1.4-2.11-3.79,0.63-5.34l9.69-5.62c2.74-1.62,6.88-1.76,9.27-0.35
					l29.56,17.06c2.39,1.4,2.11,3.79-0.63,5.34l-9.69,5.62C1453.61,1164.6,1449.46,1164.81,1447.15,1163.4z"/>
				<path class="st6" d="M1492.3,1189.53l-29.56-17.06c-2.39-1.4-2.11-3.79,0.63-5.34l9.69-5.62c2.74-1.62,6.88-1.76,9.27-0.35
					l29.56,17.06c2.39,1.4,2.11,3.79-0.63,5.34l-9.69,5.62C1498.83,1190.72,1494.69,1190.86,1492.3,1189.53z"/>
				<path class="st6" d="M1537.53,1215.65l-29.56-17.06c-2.39-1.4-2.11-3.79,0.63-5.34l9.69-5.62c2.74-1.62,6.88-1.76,9.27-0.35
					l29.56,17.06c2.39,1.4,2.11,3.79-0.63,5.34l-9.69,5.62C1544.06,1216.84,1539.91,1216.98,1537.53,1215.65z"/>
				<path class="st6" d="M1582.75,1241.7l-29.56-17.06c-2.39-1.4-2.11-3.79,0.63-5.34l9.69-5.62c2.74-1.62,6.88-1.76,9.27-0.35
					l29.56,17.06c2.39,1.4,2.11,3.79-0.63,5.34l-9.69,5.62C1589.28,1242.9,1585.14,1243.11,1582.75,1241.7z"/>
				<path class="st6" d="M1134.93,1037.07l-29.56-17.06c-2.39-1.4-2.11-3.79,0.63-5.34l29.28-16.92c2.74-1.62,6.88-1.76,9.27-0.35
					l29.56,17.06c2.39,1.33,2.11,3.79-0.63,5.34l-29.28,16.92C1141.46,1038.26,1137.32,1038.47,1134.93,1037.07z"/>
				<path class="st6" d="M1180.57,1063.47l-29.56-17.06c-2.39-1.4-2.11-3.79,0.63-5.34l29.28-16.92c2.74-1.62,6.88-1.76,9.27-0.35
					l29.56,17.06c2.39,1.4,2.11,3.79-0.63,5.34l-29.28,16.92C1187.11,1064.67,1182.96,1064.81,1180.57,1063.47z"/>
				<path class="st6" d="M1226.22,1089.81l-29.56-17.06c-2.39-1.4-2.11-3.79,0.63-5.34l29.28-16.92c2.74-1.62,6.88-1.76,9.27-0.35
					l29.56,17.06c2.39,1.4,2.11,3.79-0.63,5.34l-29.28,16.92C1232.75,1091,1228.61,1091.14,1226.22,1089.81z"/>
				<path class="st6" d="M1271.87,1116.14l-29.56-17.06c-2.39-1.4-2.11-3.79,0.63-5.34l29.28-16.92c2.74-1.62,6.88-1.76,9.27-0.35
					l29.56,17.06c2.39,1.4,2.11,3.79-0.63,5.34l-29.28,16.92C1278.33,1117.34,1274.18,1117.48,1271.87,1116.14z"/>
				<path class="st6" d="M1317.44,1142.48l-29.56-17.06c-2.39-1.33-2.11-3.79,0.63-5.34l29.28-16.92c2.74-1.62,6.88-1.76,9.27-0.35
					l29.56,17.06c2.39,1.4,2.11,3.79-0.63,5.34l-29.28,16.92C1323.97,1143.67,1319.83,1143.81,1317.44,1142.48z"/>
				<path class="st6" d="M1363.09,1168.81l-29.56-17.06c-2.39-1.4-2.11-3.79,0.63-5.34l29.28-16.92c2.74-1.62,6.88-1.76,9.27-0.35
					l29.56,17.06c2.39,1.33,2.11,3.79-0.63,5.34l-29.28,16.92C1369.62,1170,1365.48,1170.22,1363.09,1168.81z"/>
				<path class="st6" d="M1408.73,1195.15l-29.56-17.06c-2.39-1.4-2.11-3.79,0.63-5.34l29.28-16.92c2.74-1.62,6.88-1.76,9.27-0.35
					l29.56,17.06c2.39,1.4,2.11,3.79-0.63,5.34l-29.28,16.92C1415.27,1196.34,1411.12,1196.55,1408.73,1195.15z"/>
				<path class="st6" d="M1454.38,1221.48l-29.56-17.06c-2.39-1.33-2.11-3.79,0.63-5.34l29.28-16.92c2.74-1.62,6.88-1.76,9.27-0.35
					l29.56,17.06c2.39,1.4,2.11,3.79-0.63,5.34l-29.28,16.92C1460.91,1222.67,1456.77,1222.88,1454.38,1221.48z"/>
				<path class="st6" d="M1500.03,1247.88l-29.56-17.06c-2.39-1.4-2.11-3.79,0.63-5.34l29.28-16.92c2.74-1.62,6.88-1.76,9.27-0.35
					l29.56,17.06c2.39,1.33,2.11,3.79-0.63,5.34l-29.28,16.92C1506.49,1249.08,1502.34,1249.22,1500.03,1247.88z"/>
				<path class="st6" d="M874.05,1040.37l-87.01-50.21c-2.39-1.33-2.11-3.79,0.63-5.34l29.28-16.92c2.74-1.62,6.88-1.76,9.27-0.35
					l87.01,50.21c2.39,1.4,2.11,3.79-0.63,5.34l-29.28,16.92C880.58,1041.56,876.43,1041.7,874.05,1040.37z"/>
				<path class="st6" d="M1434.65,1363.96l-87.01-50.21c-2.39-1.4-2.11-3.79,0.63-5.34l29.28-16.92c2.74-1.62,6.88-1.76,9.27-0.35
					l87.01,50.21c2.39,1.33,2.11,3.79-0.63,5.34l-29.28,16.92C1441.18,1365.23,1437.03,1365.37,1434.65,1363.96z"/>
				<path class="st6" d="M1252.2,1316.84l-29.56-17.06c-2.39-1.33-2.11-3.79,0.63-5.34l34.9-20.15c2.74-1.62,6.88-1.76,9.27-0.35
					l29.56,17.06c2.39,1.33,2.11,3.79-0.63,5.34l-34.9,20.15C1258.66,1318.04,1254.52,1318.18,1252.2,1316.84z"/>
				<path class="st6" d="M920.81,1125.55l-47.26-27.32c-2.39-1.33-2.11-3.79,0.63-5.34l34.9-20.15c2.74-1.62,6.88-1.76,9.27-0.35
					l47.26,27.25c2.39,1.4,2.11,3.79-0.63,5.34l-34.9,20.15C927.35,1126.75,923.2,1126.89,920.81,1125.55z"/>
				<path class="st6" d="M1208.24,1291.42l-47.26-27.32c-2.39-1.4-2.11-3.79,0.63-5.34l34.9-20.15c2.74-1.62,6.88-1.76,9.27-0.35
					l47.26,27.32c2.39,1.4,2.11,3.79-0.63,5.34l-34.9,20.15C1214.7,1292.62,1210.56,1292.83,1208.24,1291.42z"/>
				<path class="st6" d="M986.62,1163.54l-47.26-27.25c-2.39-1.4-2.11-3.79,0.63-5.34l34.9-20.15c2.74-1.62,6.88-1.76,9.27-0.35
					l47.26,27.25c2.39,1.4,2.11,3.79-0.63,5.34l-34.9,20.15C993.15,1164.74,989,1164.88,986.62,1163.54z"/>
				<path class="st6" d="M984.51,1110.59l205.48,118.61c2.53,1.47,2.53,3.86,0,5.34l-35.53,20.51c-2.53,1.47-6.67,1.47-9.2,0
					l-205.48-118.61L984.51,1110.59z"/>
				<path class="st6" d="M1379.73,1364.6l32.94,19.03c1.97,1.12,1.69,3.09-0.56,4.35l-14.26,8.22c-2.25,1.26-5.62,1.4-7.58,0.28
					l-32.94-19.03c-1.97-1.12-1.69-3.09,0.56-4.35l14.26-8.22C1374.39,1363.61,1377.77,1363.47,1379.73,1364.6z"/>
				<path class="st6" d="M1333.66,1338.05l32.94,19.03c1.97,1.12,1.69,3.09-0.56,4.35l-14.26,8.22c-2.25,1.26-5.62,1.4-7.58,0.28
					l-32.94-19.03c-1.97-1.12-1.69-3.09,0.56-4.35l14.26-8.22C1328.33,1337.07,1331.77,1336.93,1333.66,1338.05z"/>
				<path class="st6" d="M1288.09,1311.72l32.94,19.03c1.97,1.12,1.69,3.09-0.56,4.35l-14.26,8.22c-2.25,1.26-5.62,1.4-7.58,0.28
					l-32.94-19.03c-1.97-1.12-1.69-3.09,0.56-4.35l14.26-8.22C1282.75,1310.73,1286.12,1310.59,1288.09,1311.72z"/>
				<path class="st6" d="M1358.87,1323.52l32.94,19.03c1.97,1.12,1.69,3.09-0.56,4.35l-14.26,8.22c-2.25,1.26-5.62,1.4-7.58,0.28
					l-32.94-19.03c-1.97-1.12-1.69-3.09,0.56-4.35l14.26-8.22C1353.54,1322.53,1356.98,1322.39,1358.87,1323.52z"/>
			</g>
		</g>
		<g>
			<path class="st0" d="M1824.39,613.55c-2.25,0-4.63-0.63-6.88-1.97c-6.95-4-11.31-13.13-9.69-20.37c0.77-3.44,2.88-6.11,5.76-7.37
				c3.23-1.4,7.23-0.98,10.95,1.12c6.95,4,11.31,13.13,9.69,20.37l0,0c-0.77,3.44-2.88,6.11-5.76,7.37
				C1827.2,613.27,1825.87,613.55,1824.39,613.55z M1817.72,586.23c-0.98,0-1.97,0.21-2.81,0.56c-1.97,0.84-3.37,2.67-3.93,5.2
				c-1.4,5.97,2.32,13.48,8.15,16.92c2.81,1.62,5.83,2.04,8.08,0.98c1.97-0.84,3.37-2.67,3.93-5.13c1.4-5.97-2.32-13.55-8.15-16.92
				C1821.23,586.72,1819.41,586.23,1817.72,586.23z"/>
			<path class="st0" d="M1862.03,635.25c-2.25,0-4.63-0.63-6.88-1.97c-7.02-4-11.31-13.13-9.62-20.37c0.77-3.44,2.88-6.11,5.76-7.37
				c3.23-1.4,7.23-0.98,10.95,1.12c6.95,4,11.31,13.13,9.62,20.37l0,0c-0.77,3.44-2.88,6.11-5.76,7.37
				C1864.84,634.96,1863.44,635.25,1862.03,635.25z M1855.36,607.93c-0.98,0-1.97,0.21-2.81,0.56c-1.97,0.84-3.37,2.67-3.93,5.13
				c-1.4,5.97,2.25,13.48,8.15,16.92c2.88,1.62,5.76,1.97,8.08,0.98c1.97-0.84,3.37-2.67,3.93-5.2l0,0
				c1.4-5.97-2.32-13.55-8.15-16.92C1858.87,608.42,1857.05,607.93,1855.36,607.93z"/>
			<path class="st0" d="M1907.96,648.45c-1.54,6.6-7.94,8.92-14.4,5.2c-6.46-3.72-10.39-12.08-8.92-18.61
				c1.54-6.6,7.94-8.92,14.4-5.2C1905.5,633.56,1909.5,641.85,1907.96,648.45z"/>
		</g>
		<polygon class="st0" points="1186.54,233.28 1166.46,221.69 1168.01,212.35 1188.16,224.01 		"/>
		<polygon class="st0" points="1215.83,250.21 1195.67,238.55 1197.29,229.28 1217.37,240.87 		"/>
		<polygon class="st0" points="1157.61,216.57 1113.51,191.15 1115.06,181.81 1159.16,207.3 		"/>
	</g>
	<g>
		<g>
			<polygon class="st0" points="1163.16,392.13 1129.52,372.68 1130.79,364.95 1164.49,384.4 			"/>
			<polygon class="st0" points="1191.95,408.77 1175.1,399.01 1176.36,391.22 1193.22,400.98 			"/>
			<polygon class="st0" points="1170.04,416.15 1155.72,407.86 1156.98,400.06 1171.38,408.35 			"/>
			<polygon class="st0" points="1194.06,430.05 1177.27,420.29 1178.54,412.49 1195.39,422.25 			"/>
			<polygon class="st0" points="1218.85,464.32 1152.63,426.12 1153.96,418.32 1220.11,456.52 			"/>
			<polygon class="st0" points="1161.47,617.13 1095.25,578.93 1096.59,571.13 1162.74,609.33 			"/>
			<polygon class="st0" points="1186.9,631.8 1170.04,622.11 1171.38,614.32 1188.23,624.01 			"/>
			<polygon class="st0" points="1163.93,452.66 1149.61,444.38 1150.87,436.58 1165.27,444.87 			"/>
			<polygon class="st0" points="1187.95,466.5 1171.09,456.81 1172.43,449.01 1189.28,458.77 			"/>
			<polygon class="st0" points="1182.89,483.63 1146.52,462.63 1147.85,454.84 1184.23,475.84 			"/>
			<polygon class="st0" points="1207.26,497.68 1190.41,487.98 1191.74,480.19 1208.59,489.88 			"/>
			<polygon class="st0" points="1231.7,511.79 1214.91,502.1 1216.18,494.31 1233.03,504.07 			"/>
			<polygon class="st0" points="1271.23,534.61 1239.35,516.22 1240.69,508.42 1272.57,526.82 			"/>
			<polygon class="st0" points="1246.02,560.11 1229.17,550.41 1230.5,542.62 1247.29,552.31 			"/>
			<polygon class="st0" points="1285.49,582.93 1253.68,564.53 1254.94,556.73 1286.82,575.13 			"/>
			<polygon class="st0" points="1157.26,508.84 1140.41,499.15 1141.74,491.36 1158.52,501.05 			"/>
			<polygon class="st0" points="1181.7,522.96 1164.92,513.27 1166.18,505.47 1183.03,515.23 			"/>
			<polygon class="st0" points="1221.23,545.78 1189.35,527.38 1190.69,519.59 1222.5,537.98 			"/>
			<polygon class="st0" points="1272.99,555.68 1256.14,545.92 1257.47,538.13 1274.32,547.89 			"/>
			<polygon class="st0" points="1297.43,569.8 1280.64,560.04 1281.91,552.31 1298.76,562 			"/>
			<polygon class="st0" points="1336.96,592.62 1305.08,574.22 1306.42,566.43 1338.3,584.82 			"/>
			<polygon class="st0" points="1213.23,647.04 1196.38,637.28 1197.71,629.56 1214.56,639.25 			"/>
			<polygon class="st0" points="1252.77,669.87 1220.88,651.47 1222.22,643.67 1254.03,662.07 			"/>
			<polygon class="st0" points="1151.15,545.36 1134.3,535.67 1135.56,527.87 1152.42,537.56 			"/>
			<polygon class="st0" points="1190.62,568.18 1158.74,549.78 1160.07,541.99 1191.95,560.39 			"/>
			<polygon class="st0" points="1231.56,677.66 1214.77,667.9 1216.04,660.11 1232.89,669.87 			"/>
			<polygon class="st0" points="1271.09,700.48 1239.21,682.09 1240.55,674.29 1272.43,692.69 			"/>
			<polygon class="st0" points="1269.13,493.39 1252.34,483.63 1253.61,475.91 1270.46,485.6 			"/>
			<polygon class="st0" points="1243.71,478.72 1226.85,468.95 1228.19,461.16 1244.97,470.92 			"/>
			<polygon class="st0" points="1308.66,516.22 1276.78,497.82 1278.12,490.02 1310,508.42 			"/>
			<polygon class="st0" points="1158.67,489.67 1143.5,480.89 1144.76,473.1 1159.93,481.88 			"/>
			<polygon class="st0" points="1203.68,515.65 1166.81,494.31 1168.08,486.58 1205.01,507.86 			"/>
			<polygon class="st0" points="1248.76,541.64 1211.82,520.36 1213.16,512.56 1250.1,533.91 			"/>
			<polygon class="st0" points="1332.05,529.7 1316.88,520.92 1318.14,513.13 1333.38,521.9 			"/>
			<polygon class="st0" points="1377.13,555.68 1340.2,534.4 1341.46,526.61 1378.4,547.96 			"/>
			<polygon class="st0" points="1422.15,581.73 1385.21,560.39 1386.54,552.59 1423.48,573.94 			"/>
			<polygon class="st0" points="1174.61,538.9 1137.67,517.55 1139,509.75 1175.87,531.1 			"/>
			<polygon class="st0" points="1194.06,550.13 1182.75,543.6 1184.02,535.81 1195.39,542.34 			"/>
			<polygon class="st0" points="1213.58,561.37 1202.2,554.84 1203.54,547.04 1214.84,553.57 			"/>
			<polygon class="st0" points="1249.61,582.23 1221.73,566.07 1223.06,558.35 1250.94,574.43 			"/>
			<polygon class="st0" points="1290.05,545.5 1278.75,538.97 1280.01,531.17 1291.39,537.7 			"/>
			<polygon class="st0" points="1326.15,566.36 1298.2,550.2 1299.54,542.41 1327.41,558.56 			"/>
			<polygon class="st0" points="1333.73,570.71 1305.79,554.56 1307.12,546.83 1335,562.91 			"/>
			<polygon class="st0" points="1185.14,670.85 1148.76,649.85 1150.1,642.06 1186.47,663.05 			"/>
			<polygon class="st0" points="1209.51,684.89 1192.65,675.2 1193.99,667.41 1210.84,677.17 			"/>
			<polygon class="st0" points="1234.02,699.08 1217.16,689.32 1218.5,681.52 1235.28,691.28 			"/>
			<polygon class="st0" points="1273.48,721.83 1241.67,703.43 1242.93,695.71 1274.82,714.11 			"/>
			<polygon class="st0" points="1298.76,736.44 1281.91,726.75 1283.24,718.95 1300.1,728.64 			"/>
			<polygon class="st0" points="1338.3,759.26 1306.42,740.86 1307.75,733.07 1339.56,751.47 			"/>
			<polygon class="st0" points="1217.09,729.35 1200.24,719.59 1201.57,711.86 1218.43,721.55 			"/>
			<polygon class="st0" points="1256.63,752.17 1224.75,733.77 1226.01,725.98 1257.89,744.37 			"/>
			<polygon class="st0" points="1129.17,678.57 1112.32,668.81 1113.58,661.02 1130.43,670.78 			"/>
			<polygon class="st0" points="1153.61,692.69 1136.76,683 1138.09,675.2 1154.94,684.89 			"/>
			<polygon class="st0" points="1193.15,715.51 1161.26,697.11 1162.6,689.32 1194.41,707.72 			"/>
			<polygon class="st0" points="1160.91,676.89 1145.74,668.11 1147.01,660.32 1162.25,669.09 			"/>
			<polygon class="st0" points="1206,702.87 1169.06,681.59 1170.32,673.8 1207.26,695.08 			"/>
			<polygon class="st0" points="1251.01,728.93 1214.07,707.58 1215.41,699.78 1252.34,721.13 			"/>
			<polygon class="st0" points="1116.74,691.43 1079.8,670.08 1081.07,662.28 1118.01,683.63 			"/>
			<polygon class="st0" points="1136.19,702.66 1124.82,696.06 1126.15,688.34 1137.46,694.87 			"/>
			<polygon class="st0" points="1155.72,713.9 1144.34,707.37 1145.67,699.57 1156.98,706.1 			"/>
			<polygon class="st0" points="1191.74,734.75 1163.86,718.6 1165.2,710.81 1193.07,726.96 			"/>
			<polygon class="st0" points="1199.32,739.11 1171.45,723.03 1172.71,715.23 1200.66,731.31 			"/>
			<polygon class="st0" points="1133.31,620.92 1122.01,614.39 1123.34,606.59 1134.65,613.12 			"/>
			<polygon class="st0" points="1169.41,641.78 1141.53,625.62 1142.79,617.83 1170.74,633.98 			"/>
			<polygon class="st0" points="1206.28,663.05 1178.33,646.9 1179.66,639.11 1207.54,655.26 			"/>
			<polygon class="st0" points="1348.27,785.03 1331.42,775.34 1332.75,767.55 1349.61,777.24 			"/>
			<polygon class="st0" points="1387.74,807.86 1355.93,789.46 1357.19,781.66 1389.07,800.06 			"/>
			<polygon class="st0" points="1286.12,749.15 1258.17,733.07 1259.51,725.27 1287.39,741.35 			"/>
			<polygon class="st0" points="1322.92,770.43 1295.04,754.35 1296.38,746.55 1324.25,762.63 			"/>
			<polygon class="st0" points="1113.65,543.74 1102.27,537.21 1103.61,529.42 1114.92,535.95 			"/>
			<polygon class="st0" points="1149.68,564.53 1121.8,548.45 1123.06,540.65 1151.01,556.73 			"/>
			<polygon class="st0" points="1186.54,585.81 1158.67,569.73 1159.93,561.93 1187.88,578.01 			"/>
		</g>
		<path class="st0" d="M1743.28,869.58c-2.53,0-5.2-0.77-7.79-2.25L1510,737.14c-9.2-5.34-15.17-18.75-13.27-29.99l14.4-86.02
			c0.98-5.83,4-10.39,8.29-12.36c4-1.9,8.64-1.47,13.06,1.12l225.56,130.2c9.2,5.34,15.17,18.75,13.27,29.99l-14.4,86.02
			c-0.98,5.83-4,10.39-8.29,12.36C1746.86,869.23,1745.11,869.58,1743.28,869.58z M1524.6,610.74c-1.33,0-2.67,0.28-3.86,0.84
			c-3.3,1.54-5.69,5.2-6.46,10.04l-14.4,86.02c-1.69,10.04,3.58,21.98,11.73,26.69l225.49,130.2c3.51,2.04,7.09,2.39,10.11,0.98
			c3.3-1.54,5.69-5.2,6.46-10.04l14.4-86.02c1.69-10.04-3.58-21.98-11.73-26.69l-225.56-130.2
			C1528.68,611.37,1526.57,610.74,1524.6,610.74z"/>
		<path class="st0" d="M1718.42,1017.48c-2.53,0-5.2-0.77-7.79-2.25l-225.56-130.2c-9.2-5.34-15.17-18.75-13.27-29.99l14.4-86.02
			c0.98-5.83,4-10.39,8.29-12.36c3.93-1.9,8.57-1.47,13.06,1.12l225.49,130.2c9.2,5.34,15.17,18.75,13.27,29.99l-14.4,86.02
			c-0.98,5.83-4,10.39-8.29,12.36C1722.08,1017.06,1720.25,1017.48,1718.42,1017.48z M1712.24,1012.49
			c3.51,2.04,7.09,2.39,10.11,0.98c3.3-1.54,5.69-5.2,6.46-10.04l14.4-86.02c1.69-10.04-3.58-21.98-11.73-26.69L1506,760.53
			c-3.51-2.04-7.09-2.39-10.11-0.98c-3.3,1.54-5.69,5.2-6.46,10.04l-14.4,86.02c-1.69,10.04,3.58,21.98,11.73,26.69L1712.24,1012.49
			z"/>
		
			<linearGradient id="SVGID_11_" gradientUnits="userSpaceOnUse" x1="1547.4924" y1="1077.9843" x2="1871.5278" y2="939.3564" gradientTransform="matrix(1 0 0 -1 0 1780.7874)">
			<stop  offset="0" style="stop-color:#6DC4CB"/>
			<stop  offset="0.1055" style="stop-color:#39B7BF"/>
			<stop  offset="0.2197" style="stop-color:#2D88A1"/>
			<stop  offset="0.338" style="stop-color:#256088"/>
			<stop  offset="0.4587" style="stop-color:#1C4072"/>
			<stop  offset="0.5824" style="stop-color:#242D5C"/>
			<stop  offset="0.7105" style="stop-color:#24254F"/>
			<stop  offset="0.8458" style="stop-color:#212147"/>
			<stop  offset="1" style="stop-color:#202045"/>
		</linearGradient>
		<path class="st18" d="M1530.15,727.87c4,2.32,7.58,1.47,8.85-2.18l26.26-71.84c3.02-8.22,15.31-0.77,17.91,10.81l16.22,72.33
			c1.19,5.27,4.85,10.53,8.99,12.99l3.86,2.25c3.79,2.18,7.16,1.54,8.64-1.62l5.34-11.38c3.3-7.02,14.4-0.42,17.42,10.46l0,0
			c1.4,4.99,4.85,9.76,8.78,12.01l3.37,1.97c4.07,2.39,7.72,1.4,8.99-2.39l4.92-15.03c2.74-8.5,15.1-1.4,17.91,10.25l16.22,66.92
			c1.26,5.27,4.99,10.39,9.06,12.71L1530.15,727.87z"/>
		<path class="st0" d="M1684.29,983.42c-4.49-2.53-8.43-8.08-9.83-13.76l-16.22-66.92c-1.76-7.09-7.51-12.57-11.52-12.78
			c-1.54,0-2.74,0.77-3.3,2.6l-4.92,15.03c-0.7,2.11-2.04,3.65-3.86,4.35c-2.11,0.84-4.78,0.42-7.37-1.05l-3.37-1.97
			c-4.28-2.46-8.01-7.58-9.48-12.99c-1.9-6.88-7.3-11.87-11.17-12.15c-1.54-0.14-2.6,0.49-3.3,1.97l-5.34,11.38
			c-0.84,1.76-2.18,2.95-3.86,3.51c-2.11,0.63-4.49,0.21-7.02-1.19l-3.86-2.25c-4.56-2.6-8.5-8.22-9.76-13.97l-16.22-72.33
			c-1.62-7.16-7.37-12.78-11.45-13.06c-1.69-0.14-2.74,0.7-3.37,2.46l-26.26,71.84c-0.77,2.04-2.11,3.44-3.86,4.07
			c-2.11,0.77-4.71,0.35-7.3-1.12l1.54-2.74c1.76,0.98,3.37,1.33,4.63,0.84c0.91-0.35,1.54-1.05,1.97-2.18l26.26-71.84
			c1.12-3.09,3.44-4.63,6.53-4.49c5.34,0.35,12.36,6.67,14.33,15.52l16.22,72.33c1.12,4.85,4.49,9.76,8.22,11.94l3.86,2.25
			c1.69,0.98,3.23,1.33,4.49,0.91c0.84-0.28,1.47-0.84,1.97-1.83l5.34-11.38c1.26-2.67,3.65-4,6.46-3.79
			c5.69,0.49,11.8,6.81,13.9,14.47c1.26,4.56,4.49,9.06,8.01,11.1l3.37,1.97c1.76,1.05,3.44,1.33,4.63,0.84
			c0.91-0.35,1.62-1.12,2.04-2.39l4.92-15.03c1.05-3.16,3.44-4.78,6.46-4.85c5.27,0.21,12.36,6.32,14.47,15.17l16.22,66.92
			c1.19,4.85,4.56,9.62,8.29,11.73L1684.29,983.42z"/>
	</g>
	<path class="st0" d="M1593.78,537.49c-3.3,0-6.67-0.91-9.9-2.81l-176.33-101.83c-10.88-6.32-16.99-21.42-13.55-33.78
		c1.69-6.25,5.55-10.81,10.67-12.99c5.06-2.04,10.81-1.54,16.15,1.62l176.33,101.83c10.88,6.25,16.99,21.42,13.55,33.78
		c-1.69,6.25-5.55,10.81-10.67,12.99C1598.06,537.07,1595.95,537.49,1593.78,537.49z M1410.98,388.06c-1.76,0-3.44,0.35-5.06,0.98
		c-4.28,1.76-7.37,5.62-8.85,10.88c-3.02,11.03,2.39,24.58,12.08,30.2l176.33,101.83c4.49,2.6,9.2,3.09,13.34,1.4
		c4.28-1.76,7.37-5.62,8.85-10.88c3.02-11.03-2.39-24.58-12.08-30.2l-176.33-101.83C1416.6,388.83,1413.72,388.06,1410.98,388.06z"
		/>
</g>
</svg>
