<?xml version="1.0" encoding="UTF-8"?>
<svg xmlns="http://www.w3.org/2000/svg" id="Layer_1" data-name="Layer 1" viewBox="0 0 24 24" fill="#1CD8DE">
  <g>
    <path d="M12.765,11.187h-1.965c-.828,0-1.5-.671-1.5-1.5s.672-1.5,1.5-1.5h1.965c.828,0,1.5,.671,1.5,1.5s-.672,1.5-1.5,1.5Z"/>
    <path d="M15.592,15.124h-4.792c-.828,0-1.5-.671-1.5-1.5s.672-1.5,1.5-1.5h4.792c.828,0,1.5,.671,1.5,1.5s-.672,1.5-1.5,1.5Z"/>
    <path d="M18.419,19.062h-7.619c-.828,0-1.5-.671-1.5-1.5s.672-1.5,1.5-1.5h7.619c.828,0,1.5,.671,1.5,1.5s-.672,1.5-1.5,1.5Z"/>
    <path d="M21.246,22.999H10.8c-.828,0-1.5-.671-1.5-1.5s.672-1.5,1.5-1.5h10.446c.828,0,1.5,.671,1.5,1.5s-.672,1.5-1.5,1.5Z"/>
  </g>
  <path d="M2.073,7.429c.737,.376,1.641,.083,2.018-.655,.179-.351,.364-.663,.55-.938v15.661c0,.829,.671,1.5,1.5,1.5s1.5-.671,1.5-1.5V5.837c.185,.275,.37,.586,.549,.937,.376,.739,1.28,1.031,2.018,.655,.738-.376,1.031-1.279,.655-2.018C9.188,2.126,6.926,1.187,6.672,1.095c-.483-.174-.893-.065-1.064,0-.252,.096-2.516,1.031-4.19,4.316-.376,.738-.083,1.641,.655,2.018Z"/>
</svg>
