<?xml version="1.0" encoding="utf-8"?>
<!-- Generator: Adobe Illustrator 24.0.1, SVG Export Plug-In . SVG Version: 6.00 Build 0)  -->
<svg version="1.1" id="Ñëîé_1" xmlns="http://www.w3.org/2000/svg" xmlns:xlink="http://www.w3.org/1999/xlink" x="0px" y="0px"
	 viewBox="0 0 600 350" style="enable-background:new 0 0 600 350;" xml:space="preserve">
<style type="text/css">
	.st0{opacity:0.5;fill:url(#SVGID_1_);}
	.st1{fill:url(#SVGID_2_);}
	.st2{fill:#42E8E0;}
	.st3{fill:url(#SVGID_3_);}
	.st4{fill:url(#SVGID_4_);}
	.st5{fill:#2FD3C7;}
	.st6{fill:url(#SVGID_5_);}
	.st7{fill:url(#SVGID_6_);}
	.st8{fill:url(#SVGID_7_);}
	.st9{fill:url(#SVGID_8_);}
	.st10{fill:#393091;}
	.st11{fill:#BCBEFF;}
	.st12{fill:url(#SVGID_9_);}
	.st13{fill:url(#SVGID_10_);}
	.st14{fill:#453C9E;}
	.st15{fill:url(#SVGID_11_);}
	.st16{fill:url(#SVGID_12_);}
	.st17{fill:url(#SVGID_13_);}
	.st18{fill:url(#SVGID_14_);}
	.st19{fill:#FFFFFF;}
	.st20{opacity:0.5;fill:url(#SVGID_15_);}
	.st21{fill:#251C72;}
	.st22{opacity:0.8;fill:url(#SVGID_16_);}
	.st23{fill:url(#SVGID_17_);}
	.st24{fill:url(#SVGID_18_);}
	.st25{fill:url(#SVGID_19_);}
	.st26{opacity:0.3;}
	.st27{fill:url(#SVGID_20_);}
	.st28{opacity:0.3;fill:#0F054C;}
	.st29{fill:url(#SVGID_21_);}
	.st30{fill:#0F054C;}
	.st31{opacity:0.4;fill:#42E8E0;}
	.st32{fill:url(#SVGID_22_);}
	.st33{fill:url(#SVGID_23_);}
	.st34{fill:url(#SVGID_24_);}
	.st35{fill:#5351AF;}
	.st36{fill:url(#SVGID_25_);}
	.st37{fill:url(#SVGID_26_);}
	.st38{fill:url(#SVGID_27_);}
	.st39{fill:url(#SVGID_28_);}
	.st40{fill:url(#SVGID_29_);}
</style>
<radialGradient id="SVGID_1_" cx="290.1164" cy="8176.3574" r="90.9197" gradientTransform="matrix(1 0 0 0.5091 0 -3934.7898)" gradientUnits="userSpaceOnUse">
	<stop  offset="0" style="stop-color:#42E8E0"/>
	<stop  offset="0.1055" style="stop-color:#37B6BF"/>
	<stop  offset="0.2197" style="stop-color:#2C87A1"/>
	<stop  offset="0.338" style="stop-color:#235F87"/>
	<stop  offset="0.4587" style="stop-color:#1C3F72"/>
	<stop  offset="0.5824" style="stop-color:#162561"/>
	<stop  offset="0.7105" style="stop-color:#121355"/>
	<stop  offset="0.8458" style="stop-color:#10084E"/>
	<stop  offset="1" style="stop-color:#0F054C"/>
</radialGradient>
<ellipse class="st0" cx="290.12" cy="228.06" rx="80.85" ry="46.68"/>
<radialGradient id="SVGID_2_" cx="288.8018" cy="243.113" r="47.3679" gradientUnits="userSpaceOnUse">
	<stop  offset="0" style="stop-color:#42E8E0"/>
	<stop  offset="0.1055" style="stop-color:#37B6BF"/>
	<stop  offset="0.2197" style="stop-color:#2C87A1"/>
	<stop  offset="0.338" style="stop-color:#235F87"/>
	<stop  offset="0.4587" style="stop-color:#1C3F72"/>
	<stop  offset="0.5824" style="stop-color:#162561"/>
	<stop  offset="0.7105" style="stop-color:#121355"/>
	<stop  offset="0.8458" style="stop-color:#10084E"/>
	<stop  offset="1" style="stop-color:#0F054C"/>
</radialGradient>
<ellipse class="st1" cx="288.69" cy="223.51" rx="37.86" ry="21.86"/>
<path class="st2" d="M261.92,212.69c14.78-8.54,38.75-8.54,53.54,0c6.37,3.68,9.99,8.34,10.87,13.14
	c1.16-6.34-2.45-12.91-10.87-17.77c-14.78-8.54-38.75-8.54-53.54,0c-8.41,4.86-12.03,11.43-10.87,17.77
	C251.93,221.03,255.55,216.37,261.92,212.69z"/>
<g>
	<g>
		<g>
			
				<radialGradient id="SVGID_3_" cx="-2986.1919" cy="-1937.0072" r="26.9891" fx="-2986.1511" fy="-1935.2511" gradientTransform="matrix(-0.5036 0.7671 -1.2637 -0.8297 -3712.4563 828.5502)" gradientUnits="userSpaceOnUse">
				<stop  offset="0" style="stop-color:#C0BFF6"/>
				<stop  offset="1" style="stop-color:#393091"/>
			</radialGradient>
			<path class="st3" d="M216.46,137.51c-5.59-3.67-14.22-14.52-11.29-18.98c2.93-4.47,16.32-0.85,21.91,2.81
				c5.59,3.67,7.74,10.26,4.81,14.73C228.95,140.53,222.04,141.18,216.46,137.51z"/>
			
				<linearGradient id="SVGID_4_" gradientUnits="userSpaceOnUse" x1="-2659.6414" y1="1601.8806" x2="-2672.2759" y2="1618.7545" gradientTransform="matrix(-0.5036 0.7671 -0.9596 -0.6301 423.1171 3188.8545)">
				<stop  offset="0" style="stop-color:#42E8E0"/>
				<stop  offset="4.674554e-03" style="stop-color:#42E6DF"/>
				<stop  offset="0.1358" style="stop-color:#40B6CB"/>
				<stop  offset="0.2707" style="stop-color:#3E8DB9"/>
				<stop  offset="0.4074" style="stop-color:#3C6BAA"/>
				<stop  offset="0.5467" style="stop-color:#3B519F"/>
				<stop  offset="0.6893" style="stop-color:#3A3F97"/>
				<stop  offset="0.8375" style="stop-color:#393493"/>
				<stop  offset="1" style="stop-color:#393091"/>
			</linearGradient>
			<path class="st4" d="M216.46,137.51c-5.59-3.67-14.22-14.52-11.29-18.98c2.93-4.47,16.32-0.85,21.91,2.81
				c5.59,3.67,7.74,10.26,4.81,14.73C228.95,140.53,222.04,141.18,216.46,137.51z"/>
		</g>
		<path class="st5" d="M248.94,150.61c-0.51,0-1.02-0.15-1.47-0.45l-19.86-13.45c-1.2-0.81-1.51-2.44-0.7-3.63
			c0.81-1.2,2.44-1.51,3.63-0.7l19.86,13.45c1.2,0.81,1.51,2.44,0.7,3.63C250.61,150.21,249.78,150.61,248.94,150.61z"/>
		<path class="st5" d="M344.11,210.9c-1.04,0-2.01-0.62-2.43-1.64l-14.39-35.56c-0.54-1.34,0.1-2.87,1.44-3.41
			c1.34-0.55,2.86,0.1,3.41,1.44l14.39,35.56c0.54,1.34-0.1,2.87-1.44,3.41C344.77,210.83,344.43,210.9,344.11,210.9z"/>
		<g>
			<g>
				<g>
					
						<radialGradient id="SVGID_5_" cx="-105.3944" cy="-224.1223" r="80.6072" gradientTransform="matrix(0.981 0.1942 -0.1942 0.981 381.7609 346.3211)" gradientUnits="userSpaceOnUse">
						<stop  offset="0" style="stop-color:#C0BFF6"/>
						<stop  offset="1" style="stop-color:#393091"/>
					</radialGradient>
					<circle class="st6" cx="255.1" cy="150.6" r="13.96"/>
				</g>
			</g>
			<g>
				<g>
					
						<linearGradient id="SVGID_6_" gradientUnits="userSpaceOnUse" x1="-402.6332" y1="386.6314" x2="-374.7028" y2="386.6314" gradientTransform="matrix(0.5372 -0.8434 0.8434 0.5372 137.8088 -384.8963)">
						<stop  offset="0" style="stop-color:#42E8E0"/>
						<stop  offset="4.674554e-03" style="stop-color:#42E6DF"/>
						<stop  offset="0.1358" style="stop-color:#40B6CB"/>
						<stop  offset="0.2707" style="stop-color:#3E8DB9"/>
						<stop  offset="0.4074" style="stop-color:#3C6BAA"/>
						<stop  offset="0.5467" style="stop-color:#3B519F"/>
						<stop  offset="0.6893" style="stop-color:#3A3F97"/>
						<stop  offset="0.8375" style="stop-color:#393493"/>
						<stop  offset="1" style="stop-color:#393091"/>
					</linearGradient>
					<circle class="st7" cx="255.1" cy="150.6" r="13.96"/>
				</g>
			</g>
			<g>
				<g>
					
						<radialGradient id="SVGID_7_" cx="889.6288" cy="272.6846" r="79.6338" gradientTransform="matrix(0.7781 0 0 1.0592 -382.2604 -120.2201)" gradientUnits="userSpaceOnUse">
						<stop  offset="0" style="stop-color:#C0BFF6"/>
						<stop  offset="1" style="stop-color:#393091"/>
					</radialGradient>
					<path class="st8" d="M324.74,175.96c0,27.11-16.14,49.08-36.06,49.08s-36.06-21.97-36.06-49.08s16.14-35.23,36.06-35.23
						S324.74,148.86,324.74,175.96z"/>
				</g>
			</g>
			<g>
				<g>
					
						<linearGradient id="SVGID_8_" gradientUnits="userSpaceOnUse" x1="862.2886" y1="325.968" x2="862.2886" y2="246.3672" gradientTransform="matrix(0.7781 0 0 1.0592 -382.2604 -120.2201)">
						<stop  offset="0" style="stop-color:#42E8E0"/>
						<stop  offset="4.674554e-03" style="stop-color:#42E6DF"/>
						<stop  offset="0.1358" style="stop-color:#40B6CB"/>
						<stop  offset="0.2707" style="stop-color:#3E8DB9"/>
						<stop  offset="0.4074" style="stop-color:#3C6BAA"/>
						<stop  offset="0.5467" style="stop-color:#3B519F"/>
						<stop  offset="0.6893" style="stop-color:#3A3F97"/>
						<stop  offset="0.8375" style="stop-color:#393493"/>
						<stop  offset="1" style="stop-color:#393091"/>
					</linearGradient>
					<path class="st9" d="M324.74,175.96c0,27.11-16.14,49.08-36.06,49.08s-36.06-21.97-36.06-49.08s16.14-35.23,36.06-35.23
						S324.74,148.86,324.74,175.96z"/>
				</g>
			</g>
			<ellipse class="st10" cx="288.69" cy="155.31" rx="24.61" ry="14.21"/>
			<path class="st2" d="M271.29,149.04c9.61-5.55,25.19-5.55,34.8,0c3.97,2.29,6.29,5.17,6.98,8.15c0.98-4.24-1.34-8.68-6.98-11.94
				c-9.61-5.55-25.19-5.55-34.8,0c-5.64,3.26-7.97,7.7-6.98,11.94C264.99,154.22,267.32,151.34,271.29,149.04z"/>
			<path class="st11" d="M277.95,102.82c0,6.62-4.65,14.67-10.38,17.98c-5.73,3.31-10.38,0.63-10.38-5.99
				c0-6.62,4.65-14.67,10.38-17.98C273.3,93.51,277.95,96.2,277.95,102.82z"/>
			<g>
				<g>
					<radialGradient id="SVGID_9_" cx="313.0654" cy="115.9486" r="62.153" gradientUnits="userSpaceOnUse">
						<stop  offset="0" style="stop-color:#C0BFF6"/>
						<stop  offset="1" style="stop-color:#393091"/>
					</radialGradient>
					<circle class="st12" cx="290.12" cy="121.4" r="36.77"/>
				</g>
			</g>
			<g>
				<g>
					<linearGradient id="SVGID_10_" gradientUnits="userSpaceOnUse" x1="284.998" y1="157.8159" x2="295.2349" y2="84.9769">
						<stop  offset="0" style="stop-color:#42E8E0"/>
						<stop  offset="4.674554e-03" style="stop-color:#42E6DF"/>
						<stop  offset="0.1358" style="stop-color:#40B6CB"/>
						<stop  offset="0.2707" style="stop-color:#3E8DB9"/>
						<stop  offset="0.4074" style="stop-color:#3C6BAA"/>
						<stop  offset="0.5467" style="stop-color:#3B519F"/>
						<stop  offset="0.6893" style="stop-color:#3A3F97"/>
						<stop  offset="0.8375" style="stop-color:#393493"/>
						<stop  offset="1" style="stop-color:#393091"/>
					</linearGradient>
					<circle class="st13" cx="290.12" cy="121.4" r="36.77"/>
				</g>
			</g>
			<g>
				<path class="st10" d="M278.64,138.81c-0.94,7.23-6.4,9.5-12.19,5.07c-5.79-4.43-9.73-13.88-8.79-21.11
					c0.94-7.23,6.4-9.5,12.19-5.07C275.65,122.13,279.58,131.58,278.64,138.81z"/>
				<path class="st2" d="M273.86,132.55c-0.34,2.63-2.32,3.45-4.43,1.84c-2.11-1.61-3.54-5.05-3.19-7.67
					c0.34-2.63,2.33-3.45,4.43-1.84C272.77,126.49,274.2,129.92,273.86,132.55z"/>
				<path class="st14" d="M269.24,142.83c-5.79-4.43-9.73-13.88-8.79-21.11c0.38-2.95,1.52-5.07,3.12-6.25
					c-3.03,0.28-5.32,2.85-5.9,7.31c-0.94,7.23,3,16.68,8.79,21.11c3.43,2.62,6.74,2.9,9.07,1.18
					C273.64,145.24,271.46,144.53,269.24,142.83z"/>
				<path class="st2" d="M266.95,143.65c-5.79-4.43-9.73-13.88-8.79-21.11c0.43-3.35,1.84-5.63,3.8-6.68
					c-2.22,0.91-3.82,3.29-4.29,6.91c-0.94,7.23,3,16.68,8.79,21.11c3.11,2.38,6.12,2.82,8.39,1.6
					C272.64,146.4,269.84,145.86,266.95,143.65z"/>
			</g>
			<g>
				<g>
					
						<radialGradient id="SVGID_11_" cx="-78.4223" cy="-170.7337" r="29.1332" gradientTransform="matrix(0.981 0.1942 -0.1942 0.981 381.7609 346.3211)" gradientUnits="userSpaceOnUse">
						<stop  offset="0" style="stop-color:#C0BFF6"/>
						<stop  offset="1" style="stop-color:#393091"/>
					</radialGradient>
					<circle class="st15" cx="329.71" cy="172.72" r="13.96"/>
				</g>
			</g>
			<g>
				<g>
					
						<linearGradient id="SVGID_12_" gradientUnits="userSpaceOnUse" x1="-94.2569" y1="-149.9412" x2="-75.2811" y2="-170.4327" gradientTransform="matrix(0.981 0.1942 -0.1942 0.981 381.7609 346.3211)">
						<stop  offset="0" style="stop-color:#42E8E0"/>
						<stop  offset="4.674554e-03" style="stop-color:#42E6DF"/>
						<stop  offset="0.1358" style="stop-color:#40B6CB"/>
						<stop  offset="0.2707" style="stop-color:#3E8DB9"/>
						<stop  offset="0.4074" style="stop-color:#3C6BAA"/>
						<stop  offset="0.5467" style="stop-color:#3B519F"/>
						<stop  offset="0.6893" style="stop-color:#3A3F97"/>
						<stop  offset="0.8375" style="stop-color:#393493"/>
						<stop  offset="1" style="stop-color:#393091"/>
					</linearGradient>
					<circle class="st16" cx="329.71" cy="172.72" r="13.96"/>
				</g>
			</g>
		</g>
		
			<radialGradient id="SVGID_13_" cx="366.7075" cy="-1842.924" r="26.9908" fx="366.7481" fy="-1841.1677" gradientTransform="matrix(0.9112 0.1087 -0.1791 1.501 -308.6003 2934.2629)" gradientUnits="userSpaceOnUse">
			<stop  offset="0" style="stop-color:#C0BFF6"/>
			<stop  offset="1" style="stop-color:#393091"/>
		</radialGradient>
		<path class="st17" d="M351.98,218.98c-0.79,6.64-6.65,19.2-11.96,18.57c-5.3-0.63-8.04-14.23-7.25-20.86
			c0.79-6.64,5.73-11.5,11.04-10.87C349.12,206.46,352.77,212.35,351.98,218.98z"/>
		
			<linearGradient id="SVGID_14_" gradientUnits="userSpaceOnUse" x1="191.4427" y1="295.5877" x2="212.5221" y2="295.5877" gradientTransform="matrix(0.9112 0.1087 -0.136 1.1399 198.0732 -137.2071)">
			<stop  offset="0" style="stop-color:#42E8E0"/>
			<stop  offset="4.674554e-03" style="stop-color:#42E6DF"/>
			<stop  offset="0.1358" style="stop-color:#40B6CB"/>
			<stop  offset="0.2707" style="stop-color:#3E8DB9"/>
			<stop  offset="0.4074" style="stop-color:#3C6BAA"/>
			<stop  offset="0.5467" style="stop-color:#3B519F"/>
			<stop  offset="0.6893" style="stop-color:#3A3F97"/>
			<stop  offset="0.8375" style="stop-color:#393493"/>
			<stop  offset="1" style="stop-color:#393091"/>
		</linearGradient>
		<path class="st18" d="M351.98,218.98c-0.79,6.64-6.65,19.2-11.96,18.57c-5.3-0.63-8.04-14.23-7.25-20.86
			c0.79-6.64,5.73-11.5,11.04-10.87C349.12,206.46,352.77,212.35,351.98,218.98z"/>
	</g>
</g>
<g>
	<polygon class="st2" points="203.05,99.07 170.01,79.99 170.01,118.14 203.05,137.22 236.09,118.14 236.09,79.99 	"/>
	<polygon class="st2" points="203.05,137.22 170.01,118.14 170.01,79.99 203.05,99.07 	"/>
	<polygon class="st5" points="236.09,118.14 203.05,137.22 203.05,99.07 236.09,79.99 	"/>
	<polygon class="st2" points="203.05,99.07 170.01,79.99 203.05,60.91 236.09,79.99 	"/>
	<g>
		<path class="st19" d="M203.05,112.3c-0.04,0-0.09-0.01-0.13-0.03l-2.27-1.31c-0.12-0.07-0.16-0.22-0.09-0.34
			c0.07-0.12,0.22-0.16,0.34-0.09l2.14,1.24l2.14-1.24c0.12-0.07,0.27-0.03,0.34,0.09c0.07,0.12,0.03,0.27-0.09,0.34l-2.27,1.31
			C203.14,112.29,203.09,112.3,203.05,112.3z"/>
		<path class="st19" d="M196.15,108.32c-0.04,0-0.09-0.01-0.13-0.03l-4.64-2.68c-0.12-0.07-0.16-0.22-0.09-0.34
			c0.07-0.12,0.22-0.16,0.34-0.09l4.64,2.68c0.12,0.07,0.16,0.22,0.09,0.34C196.32,108.27,196.23,108.32,196.15,108.32z
			 M186.87,102.96c-0.04,0-0.09-0.01-0.13-0.03l-4.64-2.68c-0.12-0.07-0.16-0.22-0.09-0.34c0.07-0.12,0.22-0.16,0.34-0.09l4.64,2.68
			c0.12,0.07,0.16,0.22,0.09,0.34C187.04,102.92,186.96,102.96,186.87,102.96z M177.6,97.61c-0.04,0-0.09-0.01-0.13-0.03l-4.64-2.68
			c-0.12-0.07-0.16-0.22-0.09-0.34c0.07-0.12,0.22-0.16,0.34-0.09l4.64,2.68c0.12,0.07,0.16,0.22,0.09,0.34
			C177.77,97.56,177.69,97.61,177.6,97.61z M168.33,92.25c-0.04,0-0.09-0.01-0.13-0.03l-4.64-2.68c-0.12-0.07-0.16-0.22-0.09-0.34
			c0.07-0.12,0.22-0.16,0.34-0.09l4.64,2.68c0.12,0.07,0.16,0.22,0.09,0.34C168.5,92.21,168.41,92.25,168.33,92.25z M159.05,86.9
			c-0.04,0-0.09-0.01-0.13-0.03l-4.64-2.68c-0.12-0.07-0.16-0.22-0.09-0.34c0.07-0.12,0.22-0.16,0.34-0.09l4.64,2.68
			c0.12,0.07,0.16,0.22,0.09,0.34C159.22,86.86,159.14,86.9,159.05,86.9z"/>
		<path class="st19" d="M149.78,81.55c-0.04,0-0.09-0.01-0.13-0.03l-2.27-1.31c-0.08-0.04-0.13-0.13-0.13-0.22s0.05-0.17,0.13-0.22
			l2.27-1.31c0.12-0.07,0.27-0.03,0.34,0.09c0.07,0.12,0.03,0.27-0.09,0.34l-1.89,1.09l1.89,1.09c0.12,0.07,0.16,0.22,0.09,0.34
			C149.95,81.5,149.87,81.55,149.78,81.55z"/>
		<path class="st19" d="M154.42,76.25c-0.09,0-0.17-0.04-0.22-0.13c-0.07-0.12-0.03-0.27,0.09-0.34l4.64-2.68
			c0.12-0.07,0.27-0.03,0.34,0.09c0.07,0.12,0.03,0.27-0.09,0.34l-4.64,2.68C154.5,76.24,154.46,76.25,154.42,76.25z M163.69,70.9
			c-0.09,0-0.17-0.05-0.22-0.13c-0.07-0.12-0.03-0.27,0.09-0.34l4.64-2.68c0.12-0.07,0.27-0.03,0.34,0.09
			c0.07,0.12,0.03,0.27-0.09,0.34l-4.64,2.68C163.78,70.89,163.73,70.9,163.69,70.9z M172.96,65.54c-0.09,0-0.17-0.04-0.22-0.13
			c-0.07-0.12-0.03-0.27,0.09-0.34l4.64-2.68c0.12-0.07,0.27-0.03,0.34,0.09c0.07,0.12,0.03,0.27-0.09,0.34l-4.64,2.68
			C173.05,65.53,173.01,65.54,172.96,65.54z M182.24,60.19c-0.09,0-0.17-0.04-0.22-0.13c-0.07-0.12-0.03-0.27,0.09-0.34l4.64-2.68
			c0.12-0.07,0.27-0.03,0.34,0.09c0.07,0.12,0.03,0.27-0.09,0.34l-4.64,2.68C182.32,60.18,182.28,60.19,182.24,60.19z M191.51,54.84
			c-0.09,0-0.17-0.04-0.22-0.13c-0.07-0.12-0.03-0.27,0.09-0.34l4.64-2.68c0.12-0.07,0.27-0.03,0.34,0.09
			c0.07,0.12,0.03,0.27-0.09,0.34l-4.64,2.68C191.6,54.83,191.55,54.84,191.51,54.84z"/>
		<path class="st19" d="M205.32,49.48c-0.04,0-0.09-0.01-0.13-0.03l-2.14-1.24l-2.14,1.24c-0.12,0.07-0.27,0.03-0.34-0.09
			c-0.07-0.12-0.03-0.27,0.09-0.34l2.27-1.31c0.08-0.04,0.17-0.04,0.25,0l2.27,1.31c0.12,0.07,0.16,0.22,0.09,0.34
			C205.49,49.44,205.4,49.48,205.32,49.48z"/>
		<path class="st19" d="M251.68,76.25c-0.04,0-0.09-0.01-0.13-0.03l-4.64-2.68c-0.12-0.07-0.16-0.22-0.09-0.34
			c0.07-0.12,0.22-0.16,0.34-0.09l4.64,2.68c0.12,0.07,0.16,0.22,0.09,0.34C251.85,76.21,251.77,76.25,251.68,76.25z M242.41,70.9
			c-0.04,0-0.09-0.01-0.13-0.03l-4.64-2.68c-0.12-0.07-0.16-0.22-0.09-0.34c0.07-0.12,0.22-0.16,0.34-0.09l4.64,2.68
			c0.12,0.07,0.16,0.22,0.09,0.34C242.58,70.85,242.49,70.9,242.41,70.9z M233.14,65.54c-0.04,0-0.09-0.01-0.13-0.03l-4.64-2.68
			c-0.12-0.07-0.16-0.22-0.09-0.34c0.07-0.12,0.22-0.16,0.34-0.09l4.64,2.68c0.12,0.07,0.16,0.22,0.09,0.34
			C233.31,65.5,233.22,65.54,233.14,65.54z M223.86,60.19c-0.04,0-0.09-0.01-0.13-0.03l-4.64-2.68c-0.12-0.07-0.16-0.22-0.09-0.34
			c0.07-0.12,0.22-0.16,0.34-0.09l4.64,2.68c0.12,0.07,0.16,0.22,0.09,0.34C224.03,60.15,223.95,60.19,223.86,60.19z M214.59,54.84
			c-0.04,0-0.09-0.01-0.13-0.03l-4.64-2.68c-0.12-0.07-0.16-0.22-0.09-0.34c0.07-0.12,0.22-0.16,0.34-0.09l4.64,2.68
			c0.12,0.07,0.16,0.22,0.09,0.34C214.76,54.79,214.67,54.84,214.59,54.84z"/>
		<path class="st19" d="M256.32,81.55c-0.09,0-0.17-0.04-0.22-0.13c-0.07-0.12-0.03-0.27,0.09-0.34l1.89-1.09l-1.89-1.09
			c-0.12-0.07-0.16-0.22-0.09-0.34c0.07-0.12,0.22-0.16,0.34-0.09l2.27,1.31c0.08,0.04,0.13,0.13,0.13,0.22s-0.05,0.17-0.13,0.22
			l-2.27,1.31C256.4,81.54,256.36,81.55,256.32,81.55z"/>
		<path class="st19" d="M209.95,108.32c-0.09,0-0.17-0.04-0.22-0.13c-0.07-0.12-0.03-0.27,0.09-0.34l4.64-2.68
			c0.12-0.07,0.27-0.03,0.34,0.09c0.07,0.12,0.03,0.27-0.09,0.34l-4.64,2.68C210.04,108.31,210,108.32,209.95,108.32z
			 M219.23,102.96c-0.09,0-0.17-0.04-0.22-0.13c-0.07-0.12-0.03-0.27,0.09-0.34l4.64-2.68c0.12-0.07,0.27-0.03,0.34,0.09
			c0.07,0.12,0.03,0.27-0.09,0.34l-4.64,2.68C219.31,102.95,219.27,102.96,219.23,102.96z M228.5,97.61c-0.09,0-0.17-0.04-0.22-0.13
			c-0.07-0.12-0.03-0.27,0.09-0.34l4.64-2.68c0.12-0.07,0.27-0.03,0.34,0.09c0.07,0.12,0.03,0.27-0.09,0.34l-4.64,2.68
			C228.59,97.6,228.54,97.61,228.5,97.61z M237.77,92.25c-0.09,0-0.17-0.04-0.22-0.13c-0.07-0.12-0.03-0.27,0.09-0.34l4.64-2.68
			c0.12-0.07,0.27-0.03,0.34,0.09c0.07,0.12,0.03,0.27-0.09,0.34l-4.64,2.68C237.86,92.24,237.82,92.25,237.77,92.25z M247.05,86.9
			c-0.09,0-0.17-0.04-0.22-0.13c-0.07-0.12-0.03-0.27,0.09-0.34l4.64-2.68c0.12-0.07,0.27-0.03,0.34,0.09
			c0.07,0.12,0.03,0.27-0.09,0.34l-4.64,2.68C247.13,86.89,247.09,86.9,247.05,86.9z"/>
	</g>
	<polygon class="st19" points="203.05,99.07 170.01,79.99 170.01,81.64 203.05,100.72 236.09,81.64 236.09,79.99 	"/>
</g>
<linearGradient id="SVGID_15_" gradientUnits="userSpaceOnUse" x1="291.393" y1="245.3715" x2="291.393" y2="42.449">
	<stop  offset="0" style="stop-color:#42E8E0"/>
	<stop  offset="0.1055" style="stop-color:#37B6BF"/>
	<stop  offset="0.2197" style="stop-color:#2C87A1"/>
	<stop  offset="0.338" style="stop-color:#235F87"/>
	<stop  offset="0.4587" style="stop-color:#1C3F72"/>
	<stop  offset="0.5824" style="stop-color:#162561"/>
	<stop  offset="0.7105" style="stop-color:#121355"/>
	<stop  offset="0.8458" style="stop-color:#10084E"/>
	<stop  offset="1" style="stop-color:#0F054C"/>
</linearGradient>
<path class="st20" d="M349.03,42.45H233.76l17.08,180.72h0.01c-0.15,5.71,3.53,11.44,11.07,15.8c14.78,8.54,38.75,8.54,53.54,0
	c7.39-4.27,11.09-9.86,11.09-15.46l0,0L349.03,42.45z"/>
<polygon class="st21" points="321.15,134.85 307.83,142.54 307.83,127.16 321.15,119.47 "/>
<radialGradient id="SVGID_16_" cx="312.0065" cy="-1694.8704" r="24.5248" gradientTransform="matrix(1 0 0 1.2847 0 2282.1553)" gradientUnits="userSpaceOnUse">
	<stop  offset="0" style="stop-color:#2B237C"/>
	<stop  offset="0.31" style="stop-color:#251C72"/>
	<stop  offset="1" style="stop-color:#0F054C"/>
</radialGradient>
<polygon class="st22" points="319.17,120.61 319.17,133.78 307.83,140.32 307.83,142.54 321.15,134.85 321.15,119.47 "/>
<g>
	<polygon class="st2" points="310.38,131.36 309.18,132.05 309.18,130.67 310.38,129.98 	"/>
	<polygon class="st2" points="312.91,129.9 311.72,130.59 311.72,129.21 312.91,128.52 	"/>
	<polygon class="st2" points="315.44,128.44 314.25,129.12 314.25,127.75 315.44,127.06 	"/>
	<polygon class="st2" points="315.44,132.05 314.25,132.74 314.25,131.36 315.44,130.67 	"/>
	<polygon class="st2" points="313.92,134.83 312.72,135.52 312.72,134.14 313.92,133.45 	"/>
	<polygon class="st2" points="318.05,130.54 316.86,131.23 316.86,129.85 318.05,129.16 	"/>
</g>
<path class="st19" d="M324.74,134.79c-0.05,0-0.09-0.01-0.14-0.04l-1.13-0.73c-0.12-0.08-0.15-0.23-0.07-0.35
	c0.08-0.12,0.23-0.15,0.35-0.07l1,0.65l3.28-1.81c0.12-0.07,0.27-0.02,0.34,0.1c0.07,0.12,0.02,0.27-0.1,0.34l-3.41,1.88
	C324.82,134.78,324.78,134.79,324.74,134.79z M319.23,131.2c-0.05,0-0.09-0.01-0.14-0.04l-4.39-2.86c-0.12-0.08-0.15-0.23-0.07-0.35
	c0.08-0.12,0.23-0.15,0.35-0.07l4.39,2.86c0.12,0.08,0.15,0.23,0.07,0.35C319.39,131.16,319.31,131.2,319.23,131.2z M332.73,130.38
	c-0.09,0-0.17-0.05-0.22-0.13c-0.07-0.12-0.02-0.27,0.1-0.34l4.58-2.53c0.12-0.07,0.27-0.02,0.34,0.1c0.07,0.12,0.02,0.27-0.1,0.34
	l-4.58,2.53C332.81,130.37,332.77,130.38,332.73,130.38z M341.9,125.33c-0.09,0-0.17-0.05-0.22-0.13c-0.07-0.12-0.02-0.27,0.1-0.34
	l4.58-2.53c0.12-0.07,0.27-0.02,0.34,0.1c0.07,0.12,0.02,0.27-0.1,0.34l-4.58,2.53C341.98,125.32,341.94,125.33,341.9,125.33z
	 M351.07,120.28c-0.09,0-0.17-0.05-0.22-0.13c-0.07-0.12-0.02-0.27,0.1-0.34l4.58-2.53c0.12-0.07,0.27-0.02,0.34,0.1
	c0.07,0.12,0.02,0.27-0.1,0.34l-4.58,2.53C351.15,120.27,351.11,120.28,351.07,120.28z M360.24,115.22c-0.09,0-0.17-0.05-0.22-0.13
	c-0.07-0.12-0.02-0.27,0.1-0.34l1.76-0.97l-2.04-1.08c-0.12-0.07-0.17-0.22-0.1-0.34c0.07-0.12,0.22-0.17,0.34-0.1l2.44,1.3
	c0.08,0.04,0.13,0.13,0.13,0.22c0,0.09-0.05,0.18-0.13,0.22l-2.16,1.19C360.32,115.21,360.28,115.22,360.24,115.22z M355.33,110.27
	c-0.04,0-0.08-0.01-0.12-0.03l-4.62-2.46c-0.12-0.07-0.17-0.22-0.1-0.34c0.07-0.12,0.22-0.17,0.34-0.1l4.62,2.46
	c0.12,0.07,0.17,0.22,0.1,0.34C355.51,110.22,355.42,110.27,355.33,110.27z M346.09,105.35c-0.04,0-0.08-0.01-0.12-0.03l-4.62-2.46
	c-0.12-0.07-0.17-0.22-0.1-0.34c0.07-0.12,0.22-0.17,0.34-0.1l4.62,2.46c0.12,0.07,0.17,0.22,0.1,0.34
	C346.27,105.3,346.18,105.35,346.09,105.35z M336.86,100.43c-0.04,0-0.08-0.01-0.12-0.03l-4.62-2.46c-0.12-0.07-0.17-0.22-0.1-0.34
	c0.07-0.12,0.22-0.17,0.34-0.1l4.62,2.46c0.12,0.07,0.17,0.22,0.1,0.34C337.03,100.38,336.94,100.43,336.86,100.43z M327.62,95.5
	c-0.04,0-0.08-0.01-0.12-0.03l-4.62-2.46c-0.12-0.07-0.17-0.22-0.1-0.34c0.06-0.12,0.22-0.17,0.34-0.1l4.62,2.46
	c0.12,0.07,0.17,0.22,0.1,0.34C327.79,95.46,327.7,95.5,327.62,95.5z M318.38,90.58c-0.04,0-0.08-0.01-0.12-0.03l-4.62-2.46
	c-0.12-0.07-0.17-0.22-0.1-0.34c0.07-0.12,0.22-0.17,0.34-0.1l4.62,2.46c0.12,0.07,0.17,0.22,0.1,0.34
	C318.55,90.53,318.47,90.58,318.38,90.58z M309.14,85.66c-0.04,0-0.08-0.01-0.12-0.03l-4.62-2.46c-0.12-0.07-0.17-0.22-0.1-0.34
	c0.07-0.12,0.22-0.17,0.34-0.1l4.62,2.46c0.12,0.07,0.17,0.22,0.1,0.34C309.31,85.61,309.23,85.66,309.14,85.66z M299.9,80.74
	c-0.04,0-0.08-0.01-0.12-0.03l-4.62-2.46c-0.12-0.06-0.17-0.22-0.1-0.34c0.07-0.12,0.22-0.17,0.34-0.1l4.62,2.46
	c0.12,0.06,0.17,0.22,0.1,0.34C300.07,80.69,299.99,80.74,299.9,80.74z M290.66,75.82c-0.04,0-0.08-0.01-0.12-0.03l-4.62-2.46
	c-0.12-0.07-0.17-0.22-0.1-0.34c0.06-0.12,0.22-0.17,0.34-0.1l4.62,2.46c0.12,0.07,0.17,0.22,0.1,0.34
	C290.83,75.77,290.75,75.82,290.66,75.82z M281.42,70.9c-0.04,0-0.08-0.01-0.12-0.03l-4.62-2.46c-0.12-0.07-0.17-0.22-0.1-0.34
	c0.07-0.12,0.22-0.17,0.34-0.1l4.62,2.46c0.12,0.07,0.17,0.22,0.1,0.34C281.59,70.85,281.51,70.9,281.42,70.9z M272.18,65.97
	c-0.04,0-0.08-0.01-0.12-0.03l-4.62-2.46c-0.12-0.07-0.17-0.22-0.1-0.34c0.07-0.12,0.22-0.17,0.34-0.1l4.62,2.46
	c0.12,0.07,0.17,0.22,0.1,0.34C272.35,65.93,272.27,65.97,272.18,65.97z M230.97,63.72c-0.09,0-0.17-0.04-0.22-0.12
	c-0.07-0.12-0.03-0.27,0.09-0.34l4.52-2.63c0.12-0.07,0.27-0.03,0.34,0.09c0.07,0.12,0.03,0.27-0.09,0.34l-4.52,2.63
	C231.06,63.71,231.02,63.72,230.97,63.72z M262.94,61.05c-0.04,0-0.08-0.01-0.12-0.03l-4.62-2.46c-0.12-0.07-0.17-0.22-0.1-0.34
	c0.07-0.12,0.22-0.17,0.34-0.1l4.62,2.46c0.12,0.07,0.17,0.22,0.1,0.34C263.11,61,263.03,61.05,262.94,61.05z M240.02,58.46
	c-0.09,0-0.17-0.04-0.22-0.12c-0.07-0.12-0.03-0.27,0.09-0.34l4.52-2.63c0.12-0.07,0.27-0.03,0.34,0.09
	c0.07,0.12,0.03,0.27-0.09,0.34l-4.52,2.63C240.11,58.45,240.06,58.46,240.02,58.46z M253.7,56.13c-0.04,0-0.08-0.01-0.12-0.03
	l-4.62-2.46c-0.12-0.07-0.17-0.22-0.1-0.34c0.07-0.12,0.22-0.17,0.34-0.1l4.62,2.46c0.12,0.07,0.17,0.22,0.1,0.34
	C253.87,56.08,253.79,56.13,253.7,56.13z"/>
<g>
	<g>
		<linearGradient id="SVGID_17_" gradientUnits="userSpaceOnUse" x1="331.2936" y1="137.7597" x2="296.4224" y2="148.3637">
			<stop  offset="0" style="stop-color:#BCBEFF"/>
			<stop  offset="0.151" style="stop-color:#A3A7F5"/>
			<stop  offset="0.3866" style="stop-color:#8289E8"/>
			<stop  offset="0.6124" style="stop-color:#6A73DF"/>
			<stop  offset="0.8221" style="stop-color:#5C66D9"/>
			<stop  offset="1" style="stop-color:#5761D7"/>
		</linearGradient>
		<polygon class="st23" points="331.89,130.79 333.35,128.27 331.89,127.43 318.57,135.12 318.57,150.5 320.03,151.34 
			321.48,148.82 331.89,142.81 		"/>
		<linearGradient id="SVGID_18_" gradientUnits="userSpaceOnUse" x1="325.2577" y1="139.9724" x2="277.4742" y2="145.6651">
			<stop  offset="0" style="stop-color:#BCBEFF"/>
			<stop  offset="0.151" style="stop-color:#A3A7F5"/>
			<stop  offset="0.3866" style="stop-color:#8289E8"/>
			<stop  offset="0.6124" style="stop-color:#6A73DF"/>
			<stop  offset="0.8221" style="stop-color:#5C66D9"/>
			<stop  offset="1" style="stop-color:#5761D7"/>
		</linearGradient>
		<polygon class="st24" points="333.35,143.65 320.03,151.34 320.03,135.96 333.35,128.27 		"/>
	</g>
	<linearGradient id="SVGID_19_" gradientUnits="userSpaceOnUse" x1="318.0906" y1="154.0199" x2="342.988" y2="112.8397">
		<stop  offset="0" style="stop-color:#42E8E0"/>
		<stop  offset="0.1188" style="stop-color:#42E2DE"/>
		<stop  offset="0.2699" style="stop-color:#41D3D7"/>
		<stop  offset="0.4386" style="stop-color:#40B9CC"/>
		<stop  offset="0.6201" style="stop-color:#3E94BC"/>
		<stop  offset="0.8101" style="stop-color:#3C66A8"/>
		<stop  offset="1" style="stop-color:#393091"/>
	</linearGradient>
	<polygon class="st25" points="333.35,143.65 320.03,151.34 320.03,135.96 333.35,128.27 	"/>
</g>
<g>
	<g class="st26">
		<linearGradient id="SVGID_20_" gradientUnits="userSpaceOnUse" x1="144.5331" y1="231.1053" x2="200.9049" y2="263.6516">
			<stop  offset="0" style="stop-color:#BCBEFF"/>
			<stop  offset="0.2271" style="stop-color:#AAADF8"/>
			<stop  offset="0.6802" style="stop-color:#7C83E5"/>
			<stop  offset="1" style="stop-color:#5761D7"/>
		</linearGradient>
		<path class="st27" d="M208.51,249.6v-6.19l-1.71-0.95c-0.48,2.92-3.92,4.85-6.8,5.25l-19.58,11.45l-8.54,3.09l-27.27-14.07
			l0.63-0.36c-2.33-1.09-3.59-3.58-4.85-5.85l-1.84,1.1l-1.09,0.31v6.35h0c0,1.21,0.8,2.43,2.4,3.35l27.32,15.78
			c3.2,1.85,8.4,1.85,11.6,0l27.32-15.77c1.57-0.91,2.37-2.1,2.4-3.29C208.51,249.7,208.51,249.65,208.51,249.6L208.51,249.6z"/>
		<path class="st28" d="M200,247.7l-19.58,11.45l-7.44,2.69v8.37c2.1,0,4.2-0.46,5.8-1.39l27.32-15.77c1.57-0.91,2.37-2.1,2.4-3.29
			c0-0.05,0-0.11,0-0.16l0,0v-6.19l-1.56-0.87h-0.16C206.25,245.41,202.85,247.31,200,247.7z"/>
		<g>
			<linearGradient id="SVGID_21_" gradientUnits="userSpaceOnUse" x1="137.4647" y1="243.4077" x2="208.5143" y2="243.4077">
				<stop  offset="0" style="stop-color:#E9E9FD"/>
				<stop  offset="0.3601" style="stop-color:#D3D2F9"/>
				<stop  offset="0.7062" style="stop-color:#C5C4F7"/>
				<stop  offset="1" style="stop-color:#C0BFF6"/>
			</linearGradient>
			<path class="st29" d="M167.19,262.53l-27.32-15.78c-3.2-1.85-3.2-4.85,0-6.7l27.32-15.77c3.2-1.85,8.4-1.85,11.6,0l27.32,15.78
				c3.2,1.85,3.2,4.85,0,6.7l-27.32,15.77C175.59,264.38,170.39,264.38,167.19,262.53z"/>
		</g>
		<g class="st26">
			<path class="st30" d="M167.19,262.53l-27.32-15.78c-3.2-1.85-3.2-4.85,0-6.7l27.32-15.77c3.2-1.85,8.4-1.85,11.6,0l27.32,15.78
				c3.2,1.85,3.2,4.85,0,6.7l-27.32,15.77C175.59,264.38,170.39,264.38,167.19,262.53z"/>
		</g>
	</g>
	<g>
		<g>
			<path class="st2" d="M172.99,242.65c-1.87,0-3.73-0.41-5.15-1.23l-27.32-15.78c-1.42-0.82-2.2-1.92-2.2-3.11
				c0-1.19,0.78-2.29,2.2-3.11l27.32-15.78c2.84-1.64,7.46-1.64,10.3,0l27.32,15.78c1.42,0.82,2.2,1.92,2.2,3.11
				s-0.78,2.29-2.2,3.11l-27.32,15.78C176.72,242.24,174.86,242.65,172.99,242.65z M168.08,241c2.71,1.56,7.11,1.56,9.82,0
				l27.32-15.78c1.26-0.73,1.96-1.69,1.96-2.7s-0.7-1.97-1.96-2.7l-27.32-15.78c-2.71-1.56-7.11-1.56-9.82,0l-27.32,15.78
				c-1.26,0.73-1.96,1.69-1.96,2.7c0,1.01,0.7,1.97,1.96,2.7L168.08,241z"/>
			<g>
				<path class="st31" d="M208.51,216.48v-9.36l-1.71-0.95c-0.48,2.92-3.92,4.85-6.8,5.25l-19.58,11.45l-8.54,3.09l-27.27-14.07
					l0.63-0.36c-2.33-1.09-3.59-3.58-4.85-5.85l-1.84,1.1l-1.09,0.31v9.51h0c0,1.21,0.8,2.43,2.4,3.35l27.32,15.78
					c3.2,1.85,8.4,1.85,11.6,0l27.32-15.78c1.57-0.91,2.37-2.1,2.4-3.29C208.51,216.58,208.51,216.53,208.51,216.48L208.51,216.48z"
					/>
				<g>
					<g>
						<linearGradient id="SVGID_22_" gradientUnits="userSpaceOnUse" x1="144.5331" y1="189.6654" x2="200.9049" y2="222.2117">
							<stop  offset="0" style="stop-color:#BCBEFF"/>
							<stop  offset="0.2271" style="stop-color:#AAADF8"/>
							<stop  offset="0.6802" style="stop-color:#7C83E5"/>
							<stop  offset="1" style="stop-color:#5761D7"/>
						</linearGradient>
						<path class="st32" d="M208.51,208.16v-6.19l-1.71-0.95c-0.48,2.92-3.92,4.85-6.8,5.25l-19.58,11.45l-8.54,3.09l-27.27-14.07
							l0.63-0.36c-2.33-1.09-3.59-3.58-4.85-5.85l-1.84,1.1l-1.09,0.31v6.35l0,0c0,1.21,0.8,2.43,2.4,3.35l27.32,15.78
							c3.2,1.85,8.4,1.85,11.6,0l27.32-15.77c1.57-0.91,2.37-2.1,2.4-3.29C208.51,208.26,208.51,208.21,208.51,208.16L208.51,208.16
							z"/>
						<path class="st28" d="M200,206.26l-19.58,11.45l-7.44,2.69v8.37c2.1,0,4.2-0.46,5.8-1.39l27.32-15.77
							c1.57-0.91,2.37-2.1,2.4-3.29c0-0.05,0-0.11,0-0.16l0,0v-6.19l-1.56-0.87h-0.16C206.25,203.97,202.85,205.87,200,206.26z"/>
						<linearGradient id="SVGID_23_" gradientUnits="userSpaceOnUse" x1="219.8119" y1="217.3217" x2="155.4667" y2="212.1703">
							<stop  offset="0" style="stop-color:#42E8E0"/>
							<stop  offset="4.674554e-03" style="stop-color:#42E6DF"/>
							<stop  offset="0.1358" style="stop-color:#40B6CB"/>
							<stop  offset="0.2707" style="stop-color:#3E8DB9"/>
							<stop  offset="0.4074" style="stop-color:#3C6BAA"/>
							<stop  offset="0.5467" style="stop-color:#3B519F"/>
							<stop  offset="0.6893" style="stop-color:#3A3F97"/>
							<stop  offset="0.8375" style="stop-color:#393493"/>
							<stop  offset="1" style="stop-color:#393091"/>
						</linearGradient>
						<path class="st33" d="M200,206.26l-19.58,11.45l-7.44,2.69v8.37c2.1,0,4.2-0.46,5.8-1.39l27.32-15.77
							c1.57-0.91,2.37-2.1,2.4-3.29c0-0.05,0-0.11,0-0.16l0,0v-6.19l-1.56-0.87h-0.16C206.25,203.97,202.85,205.87,200,206.26z"/>
						<g>
							<linearGradient id="SVGID_24_" gradientUnits="userSpaceOnUse" x1="137.4647" y1="201.9678" x2="208.5143" y2="201.9678">
								<stop  offset="0" style="stop-color:#E9E9FD"/>
								<stop  offset="0.3601" style="stop-color:#D3D2F9"/>
								<stop  offset="0.7062" style="stop-color:#C5C4F7"/>
								<stop  offset="1" style="stop-color:#C0BFF6"/>
							</linearGradient>
							<path class="st34" d="M167.19,221.09l-27.32-15.78c-3.2-1.85-3.2-4.85,0-6.7l27.32-15.77c3.2-1.85,8.4-1.85,11.6,0
								l27.32,15.78c3.2,1.85,3.2,4.85,0,6.7l-27.32,15.77C175.59,222.94,170.39,222.94,167.19,221.09z"/>
						</g>
						<g>
							<path class="st35" d="M172.99,218.23c-1.68,0-3.37-0.37-4.65-1.11l-21.35-12.32c-1.29-0.74-1.99-1.75-1.99-2.82
								s0.71-2.08,1.99-2.82l21.35-12.32c2.57-1.48,6.74-1.48,9.31,0l21.35,12.32c1.29,0.74,1.99,1.75,1.99,2.82
								s-0.71,2.08-1.99,2.82l-21.35,12.32C176.36,217.86,174.67,218.23,172.99,218.23z M172.99,186.18c-1.6,0-3.2,0.35-4.41,1.05
								l-21.35,12.32c-1.13,0.65-1.76,1.51-1.76,2.41s0.62,1.76,1.76,2.41l21.35,12.32c2.43,1.4,6.39,1.4,8.83,0l21.35-12.32
								c1.13-0.65,1.75-1.51,1.75-2.41s-0.62-1.76-1.75-2.41l-21.35-12.32C176.19,186.53,174.59,186.18,172.99,186.18z"/>
						</g>
						<g>
							<path class="st19" d="M206.12,205.32l-27.32,15.77c-3.2,1.85-8.4,1.85-11.6,0l-27.32-15.78c-1.43-0.83-2.22-1.88-2.37-2.96
								c-0.19,1.34,0.6,2.71,2.37,3.74l27.32,15.78c3.2,1.85,8.4,1.85,11.6,0l27.32-15.77c1.77-1.02,2.56-2.4,2.37-3.74
								C208.33,203.44,207.54,204.49,206.12,205.32z"/>
						</g>
					</g>
				</g>
			</g>
		</g>
	</g>
</g>
<g>
	<g class="st26">
		<linearGradient id="SVGID_25_" gradientUnits="userSpaceOnUse" x1="371.0448" y1="179.569" x2="427.4165" y2="212.1152">
			<stop  offset="0" style="stop-color:#BCBEFF"/>
			<stop  offset="0.2271" style="stop-color:#AAADF8"/>
			<stop  offset="0.6802" style="stop-color:#7C83E5"/>
			<stop  offset="1" style="stop-color:#5761D7"/>
		</linearGradient>
		<path class="st36" d="M435.03,198.06v-6.19l-1.71-0.95c-0.48,2.92-3.92,4.85-6.8,5.25l-19.58,11.45l-8.54,3.09l-27.27-14.07
			l0.63-0.36c-2.33-1.09-3.59-3.58-4.85-5.85l-1.84,1.1l-1.09,0.31v6.35l0,0c0,1.21,0.8,2.43,2.4,3.35l27.32,15.78
			c3.2,1.85,8.4,1.85,11.6,0l27.32-15.77c1.57-0.91,2.37-2.1,2.4-3.29C435.03,198.17,435.02,198.11,435.03,198.06L435.03,198.06z"/>
		<path class="st28" d="M426.52,196.17l-19.58,11.45l-7.44,2.69v8.37c2.1,0,4.2-0.46,5.8-1.39l27.32-15.77
			c1.57-0.91,2.37-2.1,2.4-3.29c0-0.05,0-0.11,0-0.16l0,0v-6.19l-1.56-0.87h-0.16C432.76,193.88,429.36,195.77,426.52,196.17z"/>
		<g>
			<linearGradient id="SVGID_26_" gradientUnits="userSpaceOnUse" x1="363.9763" y1="191.8714" x2="435.026" y2="191.8714">
				<stop  offset="0" style="stop-color:#E9E9FD"/>
				<stop  offset="0.3601" style="stop-color:#D3D2F9"/>
				<stop  offset="0.7062" style="stop-color:#C5C4F7"/>
				<stop  offset="1" style="stop-color:#C0BFF6"/>
			</linearGradient>
			<path class="st37" d="M393.7,211l-27.32-15.78c-3.2-1.85-3.2-4.85,0-6.7l27.32-15.77c3.2-1.85,8.4-1.85,11.6,0l27.32,15.78
				c3.2,1.85,3.2,4.85,0,6.7L405.3,211C402.1,212.84,396.9,212.84,393.7,211z"/>
		</g>
		<g class="st26">
			<path class="st30" d="M393.7,211l-27.32-15.78c-3.2-1.85-3.2-4.85,0-6.7l27.32-15.77c3.2-1.85,8.4-1.85,11.6,0l27.32,15.78
				c3.2,1.85,3.2,4.85,0,6.7L405.3,211C402.1,212.84,396.9,212.84,393.7,211z"/>
		</g>
	</g>
	<g>
		<g>
			<path class="st2" d="M399.5,191.11c-1.87,0-3.73-0.41-5.15-1.23l-27.32-15.78c-1.42-0.82-2.2-1.92-2.2-3.11s0.78-2.29,2.2-3.11
				l27.32-15.77c2.84-1.64,7.46-1.64,10.3,0l27.32,15.78c1.42,0.82,2.2,1.92,2.2,3.11s-0.78,2.29-2.2,3.11l-27.32,15.77
				C403.23,190.7,401.37,191.11,399.5,191.11z M399.5,151.35c-1.78,0-3.56,0.39-4.91,1.17l-27.32,15.77
				c-1.26,0.73-1.96,1.69-1.96,2.7c0,1.01,0.7,1.97,1.96,2.7l27.32,15.78c2.71,1.56,7.11,1.56,9.82,0l27.32-15.77
				c1.26-0.73,1.96-1.69,1.96-2.7c0-1.01-0.7-1.97-1.96-2.7l-27.32-15.78C403.06,151.74,401.28,151.35,399.5,151.35z"/>
			<g>
				<path class="st31" d="M435.03,164.94v-9.36l-1.71-0.95c-0.48,2.92-3.92,4.85-6.8,5.25l-19.58,11.45l-8.54,3.09l-27.27-14.07
					l0.63-0.36c-2.33-1.09-3.59-3.58-4.85-5.85l-1.84,1.1l-1.09,0.31v9.51l0,0c0,1.21,0.8,2.43,2.4,3.35l27.32,15.78
					c3.2,1.85,8.4,1.85,11.6,0l27.32-15.77c1.57-0.91,2.37-2.1,2.4-3.29C435.03,165.04,435.02,164.99,435.03,164.94L435.03,164.94z"
					/>
				<g>
					<g>
						<linearGradient id="SVGID_27_" gradientUnits="userSpaceOnUse" x1="371.0448" y1="138.129" x2="427.4166" y2="170.6753">
							<stop  offset="0" style="stop-color:#BCBEFF"/>
							<stop  offset="0.2271" style="stop-color:#AAADF8"/>
							<stop  offset="0.6802" style="stop-color:#7C83E5"/>
							<stop  offset="1" style="stop-color:#5761D7"/>
						</linearGradient>
						<path class="st38" d="M435.03,156.62v-6.19l-1.71-0.95c-0.48,2.92-3.92,4.85-6.8,5.25l-19.58,11.45l-8.54,3.09l-27.27-14.07
							l0.63-0.36c-2.33-1.09-3.59-3.58-4.85-5.85l-1.84,1.1l-1.09,0.31v6.35l0,0c0,1.21,0.8,2.43,2.4,3.35l27.32,15.78
							c3.2,1.85,8.4,1.85,11.6,0l27.32-15.77c1.57-0.91,2.37-2.1,2.4-3.29C435.03,156.73,435.02,156.67,435.03,156.62L435.03,156.62
							z"/>
						<linearGradient id="SVGID_28_" gradientUnits="userSpaceOnUse" x1="371.0448" y1="138.129" x2="427.4166" y2="170.6753">
							<stop  offset="0" style="stop-color:#42E8E0"/>
							<stop  offset="4.674554e-03" style="stop-color:#42E6DF"/>
							<stop  offset="0.1358" style="stop-color:#40B6CB"/>
							<stop  offset="0.2707" style="stop-color:#3E8DB9"/>
							<stop  offset="0.4074" style="stop-color:#3C6BAA"/>
							<stop  offset="0.5467" style="stop-color:#3B519F"/>
							<stop  offset="0.6893" style="stop-color:#3A3F97"/>
							<stop  offset="0.8375" style="stop-color:#393493"/>
							<stop  offset="1" style="stop-color:#393091"/>
						</linearGradient>
						<path class="st39" d="M435.03,156.62v-6.19l-1.71-0.95c-0.48,2.92-3.92,4.85-6.8,5.25l-19.58,11.45l-8.54,3.09l-27.27-14.07
							l0.63-0.36c-2.33-1.09-3.59-3.58-4.85-5.85l-1.84,1.1l-1.09,0.31v6.35l0,0c0,1.21,0.8,2.43,2.4,3.35l27.32,15.78
							c3.2,1.85,8.4,1.85,11.6,0l27.32-15.77c1.57-0.91,2.37-2.1,2.4-3.29C435.03,156.73,435.02,156.67,435.03,156.62L435.03,156.62
							z"/>
						<path class="st28" d="M426.52,154.73l-19.58,11.45l-7.44,2.69v8.37c2.1,0,4.2-0.46,5.8-1.39l27.32-15.77
							c1.57-0.91,2.37-2.1,2.4-3.29c0-0.05,0-0.11,0-0.16l0,0v-6.19l-1.56-0.87h-0.16C432.76,152.44,429.36,154.33,426.52,154.73z"
							/>
						<g>
							<linearGradient id="SVGID_29_" gradientUnits="userSpaceOnUse" x1="363.9763" y1="150.4314" x2="435.026" y2="150.4314">
								<stop  offset="0" style="stop-color:#E9E9FD"/>
								<stop  offset="0.3601" style="stop-color:#D3D2F9"/>
								<stop  offset="0.7062" style="stop-color:#C5C4F7"/>
								<stop  offset="1" style="stop-color:#C0BFF6"/>
							</linearGradient>
							<path class="st40" d="M393.7,169.56l-27.32-15.78c-3.2-1.85-3.2-4.85,0-6.7l27.32-15.77c3.2-1.85,8.4-1.85,11.6,0
								l27.32,15.78c3.2,1.85,3.2,4.85,0,6.7l-27.32,15.77C402.1,171.4,396.9,171.4,393.7,169.56z"/>
						</g>
						<g>
							<path class="st35" d="M399.5,166.69c-1.68,0-3.37-0.37-4.65-1.11l-21.35-12.33c-1.29-0.74-1.99-1.75-1.99-2.82
								c0-1.08,0.71-2.08,1.99-2.82l21.35-12.33c2.57-1.48,6.74-1.48,9.31,0l21.35,12.32c1.29,0.74,1.99,1.75,1.99,2.82
								s-0.71,2.08-1.99,2.82l-21.35,12.32C402.87,166.32,401.19,166.69,399.5,166.69z M395.09,165.17c2.43,1.4,6.39,1.4,8.83,0
								l21.35-12.32c1.13-0.65,1.75-1.51,1.75-2.41s-0.62-1.76-1.76-2.41l-21.35-12.32c-2.43-1.4-6.39-1.41-8.83,0l-21.35,12.33
								c-1.13,0.65-1.76,1.51-1.76,2.41c0,0.9,0.62,1.76,1.76,2.41L395.09,165.17z"/>
						</g>
						<g>
							<path class="st19" d="M432.63,153.78l-27.32,15.77c-3.2,1.85-8.4,1.85-11.6,0l-27.32-15.78c-1.43-0.83-2.22-1.88-2.37-2.96
								c-0.19,1.34,0.6,2.71,2.37,3.74l27.32,15.78c3.2,1.85,8.4,1.85,11.6,0l27.32-15.78c1.77-1.02,2.56-2.4,2.37-3.74
								C434.85,151.9,434.06,152.96,432.63,153.78z"/>
						</g>
					</g>
				</g>
			</g>
		</g>
	</g>
</g>
</svg>
