<?xml version="1.0" encoding="utf-8"?>
<!-- Generator: Adobe Illustrator 24.0.1, SVG Export Plug-In . SVG Version: 6.00 Build 0)  -->
<svg version="1.1" id="Ñëîé_1" xmlns="http://www.w3.org/2000/svg" xmlns:xlink="http://www.w3.org/1999/xlink" x="0px" y="0px"
	 viewBox="0 0 600 450" style="enable-background:new 0 0 600 450;" xml:space="preserve">
<style type="text/css">
	.st0{fill:#42E8E0;}
	.st1{fill:url(#SVGID_1_);}
	.st2{fill:#BCBEFF;}
	.st3{fill:#FFFFFF;}
	.st4{fill:#0F054C;}
	.st5{opacity:0.5;fill:url(#SVGID_2_);}
	.st6{opacity:0.5;fill:url(#SVGID_3_);}
	.st7{opacity:0.5;fill:url(#SVGID_4_);}
	.st8{opacity:0.5;fill:url(#SVGID_5_);}
	.st9{opacity:0.5;fill:#42E8E0;}
	.st10{opacity:0.5;fill:url(#SVGID_6_);}
	.st11{opacity:0.5;fill:url(#SVGID_7_);}
	.st12{opacity:0.8;fill:#42E8E0;}
	.st13{opacity:0.3;}
	.st14{fill:url(#SVGID_8_);}
	.st15{fill:url(#SVGID_9_);}
	.st16{fill:url(#SVGID_10_);}
	.st17{fill:#393091;}
	.st18{fill:#453C9E;}
	.st19{fill:url(#SVGID_11_);}
	.st20{fill:url(#SVGID_12_);}
	.st21{fill:url(#SVGID_13_);}
	.st22{fill:url(#SVGID_14_);}
	.st23{fill:url(#SVGID_15_);}
	.st24{fill:url(#SVGID_16_);}
	.st25{fill:url(#SVGID_17_);}
	.st26{fill:url(#SVGID_18_);}
	.st27{fill:url(#SVGID_19_);}
	.st28{fill:url(#SVGID_20_);}
	.st29{opacity:0.5;}
	.st30{opacity:0.5;fill:url(#SVGID_21_);}
	.st31{opacity:0.8;fill:url(#SVGID_22_);}
	.st32{opacity:0.8;fill:url(#SVGID_23_);}
</style>
<g>
	<g>
		<path class="st0" d="M290.09,263.01c-0.63,0-1.32-0.2-2.02-0.61l-12.95-7.48c-0.25-0.15-0.34-0.47-0.19-0.72
			c0.15-0.25,0.47-0.34,0.72-0.19l12.95,7.48c0.88,0.51,1.68,0.61,2.25,0.28c0.57-0.33,0.89-1.07,0.89-2.09v-3.12
			c0-1.41,0.5-2.48,1.42-3c0.91-0.53,2.09-0.43,3.31,0.28l2.7,1.56c0.25,0.15,0.34,0.47,0.19,0.72c-0.14,0.25-0.47,0.34-0.72,0.19
			l-2.7-1.56c-0.88-0.51-1.68-0.61-2.25-0.28c-0.57,0.33-0.89,1.07-0.89,2.09v3.12c0,1.41-0.5,2.48-1.42,3
			C290.99,262.9,290.56,263.01,290.09,263.01z"/>
		<path class="st0" d="M285.05,265.91c-0.63,0-1.32-0.21-2.02-0.61l-12.95-7.47c-0.25-0.15-0.34-0.47-0.19-0.72
			c0.15-0.25,0.47-0.34,0.72-0.19l12.95,7.47c0.88,0.51,1.68,0.61,2.25,0.28c0.57-0.33,0.89-1.07,0.89-2.09v-3.12
			c0-1.41,0.5-2.48,1.42-3c0.91-0.53,2.09-0.43,3.31,0.27l2.7,1.56c0.25,0.15,0.34,0.47,0.19,0.72c-0.15,0.25-0.47,0.34-0.72,0.19
			l-2.7-1.56c-0.88-0.51-1.68-0.61-2.25-0.28c-0.57,0.33-0.89,1.07-0.89,2.09v3.12c0,1.41-0.5,2.48-1.42,3
			C285.95,265.8,285.52,265.91,285.05,265.91z"/>
		<path class="st0" d="M280.02,268.8c-0.63,0-1.32-0.2-2.02-0.61l-12.95-7.48c-0.25-0.15-0.34-0.47-0.19-0.72
			c0.15-0.25,0.47-0.34,0.72-0.19l12.95,7.48c0.88,0.51,1.68,0.61,2.25,0.28c0.57-0.33,0.89-1.07,0.89-2.09v-3.12
			c0-1.41,0.5-2.48,1.42-3c0.91-0.53,2.09-0.43,3.31,0.28l2.7,1.56c0.25,0.15,0.34,0.47,0.19,0.72c-0.15,0.25-0.47,0.34-0.72,0.19
			l-2.7-1.56c-0.88-0.51-1.68-0.61-2.25-0.28c-0.57,0.33-0.89,1.07-0.89,2.09v3.12c0,1.41-0.5,2.48-1.42,3
			C280.92,268.69,280.48,268.8,280.02,268.8z"/>
		<path class="st0" d="M274.98,271.7c-0.63,0-1.32-0.21-2.02-0.61l-12.95-7.47c-0.25-0.15-0.34-0.47-0.19-0.72
			c0.15-0.25,0.47-0.34,0.72-0.19l12.95,7.47c0.88,0.51,1.68,0.61,2.25,0.28c0.57-0.33,0.89-1.07,0.89-2.09v-3.12
			c0-1.41,0.5-2.48,1.42-3c0.91-0.53,2.09-0.43,3.31,0.27l2.7,1.56c0.25,0.15,0.34,0.47,0.19,0.72c-0.15,0.25-0.47,0.34-0.72,0.19
			l-2.7-1.56c-0.88-0.51-1.68-0.61-2.25-0.28c-0.57,0.33-0.89,1.07-0.89,2.09v3.12c0,1.41-0.5,2.48-1.42,3
			C275.88,271.59,275.45,271.7,274.98,271.7z"/>
		<path class="st0" d="M269.95,274.6c-0.63,0-1.32-0.2-2.02-0.61l-12.95-7.48c-0.25-0.15-0.34-0.47-0.19-0.72
			c0.15-0.25,0.47-0.34,0.72-0.19l12.95,7.48c0.88,0.51,1.68,0.61,2.25,0.28c0.57-0.33,0.89-1.07,0.89-2.09v-3.12
			c0-1.41,0.5-2.48,1.42-3c0.91-0.53,2.09-0.43,3.31,0.28l2.7,1.56c0.25,0.15,0.34,0.47,0.19,0.72c-0.15,0.25-0.47,0.34-0.72,0.19
			l-2.7-1.56c-0.88-0.51-1.68-0.61-2.25-0.28c-0.57,0.33-0.89,1.07-0.89,2.09v3.12c0,1.41-0.5,2.48-1.42,3
			C270.85,274.49,270.41,274.6,269.95,274.6z"/>
		<path class="st0" d="M264.91,277.49c-0.63,0-1.32-0.2-2.02-0.61l-12.95-7.48c-0.25-0.15-0.34-0.47-0.19-0.72
			c0.15-0.25,0.47-0.34,0.72-0.19l12.95,7.48c0.88,0.51,1.68,0.61,2.25,0.28c0.57-0.33,0.89-1.07,0.89-2.09v-3.12
			c0-1.41,0.5-2.48,1.42-3c0.91-0.53,2.09-0.43,3.31,0.27l2.7,1.56c0.25,0.15,0.34,0.47,0.19,0.72c-0.15,0.25-0.47,0.34-0.72,0.19
			l-2.7-1.56c-0.88-0.51-1.68-0.61-2.25-0.28c-0.57,0.33-0.89,1.07-0.89,2.09v3.12c0,1.41-0.5,2.48-1.42,3
			C265.81,277.38,265.38,277.49,264.91,277.49z"/>
		<path class="st0" d="M259.88,280.39c-0.63,0-1.32-0.2-2.02-0.61l-12.95-7.48c-0.25-0.15-0.34-0.47-0.19-0.72
			c0.15-0.25,0.47-0.34,0.72-0.19l12.95,7.48c0.88,0.51,1.68,0.61,2.25,0.28c0.57-0.33,0.89-1.07,0.89-2.09v-3.12
			c0-1.41,0.5-2.48,1.42-3c0.91-0.53,2.09-0.43,3.31,0.27l2.7,1.56c0.25,0.15,0.34,0.47,0.19,0.72c-0.15,0.25-0.47,0.34-0.72,0.19
			l-2.7-1.56c-0.88-0.51-1.68-0.61-2.25-0.28c-0.57,0.33-0.89,1.07-0.89,2.09v3.12c0,1.41-0.5,2.48-1.42,3
			C260.78,280.28,260.34,280.39,259.88,280.39z"/>
		<path class="st0" d="M254.84,283.29c-0.63,0-1.32-0.2-2.02-0.61l-12.95-7.48c-0.25-0.15-0.34-0.47-0.19-0.72
			c0.15-0.25,0.47-0.34,0.72-0.19l12.95,7.48c0.88,0.51,1.68,0.61,2.25,0.28c0.57-0.33,0.89-1.07,0.89-2.09v-3.12
			c0-1.41,0.5-2.48,1.42-3c0.91-0.53,2.09-0.43,3.31,0.27l2.7,1.56c0.25,0.15,0.34,0.47,0.19,0.72c-0.15,0.25-0.47,0.34-0.72,0.19
			l-2.7-1.56c-0.88-0.51-1.68-0.61-2.25-0.28c-0.57,0.33-0.89,1.07-0.89,2.09v3.12c0,1.41-0.5,2.48-1.42,3
			C255.74,283.18,255.3,283.29,254.84,283.29z"/>
		<path class="st0" d="M249.8,286.19c-0.63,0-1.32-0.2-2.02-0.61l-12.95-7.48c-0.25-0.15-0.34-0.47-0.19-0.72
			c0.15-0.25,0.47-0.34,0.72-0.19l12.95,7.48c0.88,0.51,1.68,0.61,2.25,0.28c0.57-0.33,0.89-1.07,0.89-2.09v-3.12
			c0-1.41,0.5-2.48,1.42-3c0.91-0.53,2.09-0.43,3.31,0.27l2.7,1.56c0.25,0.15,0.34,0.47,0.19,0.72c-0.15,0.25-0.47,0.34-0.72,0.19
			l-2.7-1.56c-0.88-0.51-1.68-0.61-2.25-0.28c-0.57,0.33-0.89,1.07-0.89,2.09v3.12c0,1.41-0.5,2.48-1.42,3
			C250.7,286.08,250.27,286.19,249.8,286.19z"/>
		<path class="st0" d="M244.77,289.08c-0.63,0-1.32-0.2-2.02-0.61L229.8,281c-0.25-0.15-0.34-0.47-0.19-0.72
			c0.15-0.25,0.47-0.34,0.72-0.19l12.95,7.48c0.88,0.51,1.68,0.61,2.25,0.28c0.57-0.33,0.89-1.07,0.89-2.09v-3.12
			c0-1.41,0.5-2.48,1.42-3c0.91-0.53,2.09-0.43,3.31,0.27l2.7,1.56c0.25,0.15,0.34,0.47,0.19,0.72c-0.15,0.25-0.47,0.34-0.72,0.19
			l-2.7-1.56c-0.88-0.51-1.68-0.61-2.25-0.28c-0.57,0.33-0.89,1.07-0.89,2.09v3.12c0,1.41-0.5,2.48-1.42,3
			C245.67,288.97,245.23,289.08,244.77,289.08z"/>
		<path class="st0" d="M239.73,291.98c-0.63,0-1.32-0.21-2.02-0.61l-12.95-7.47c-0.25-0.15-0.34-0.47-0.19-0.72
			c0.15-0.25,0.47-0.34,0.72-0.19l12.95,7.47c0.88,0.51,1.68,0.61,2.25,0.28c0.57-0.33,0.89-1.07,0.89-2.09v-3.12
			c0-1.41,0.5-2.48,1.42-3c0.91-0.53,2.09-0.43,3.31,0.27l2.7,1.56c0.25,0.15,0.34,0.47,0.19,0.72c-0.15,0.25-0.47,0.34-0.72,0.19
			l-2.7-1.56c-0.88-0.51-1.68-0.61-2.25-0.28c-0.57,0.33-0.89,1.07-0.89,2.09v3.12c0,1.41-0.5,2.48-1.42,3
			C240.63,291.87,240.2,291.98,239.73,291.98z"/>
		<path class="st0" d="M234.7,294.88c-0.63,0-1.32-0.2-2.02-0.61l-12.95-7.48c-0.25-0.15-0.34-0.47-0.19-0.72
			c0.15-0.25,0.47-0.34,0.72-0.19l12.95,7.48c0.88,0.51,1.68,0.61,2.25,0.28c0.57-0.33,0.89-1.07,0.89-2.09v-3.12
			c0-1.41,0.5-2.48,1.42-3c0.91-0.53,2.09-0.43,3.31,0.28l2.7,1.56c0.25,0.15,0.34,0.47,0.19,0.72c-0.15,0.25-0.47,0.34-0.72,0.19
			l-2.7-1.56c-0.88-0.51-1.68-0.61-2.25-0.28c-0.57,0.33-0.89,1.07-0.89,2.09v3.12c0,1.41-0.5,2.48-1.42,3
			C235.6,294.77,235.16,294.88,234.7,294.88z"/>
		<path class="st0" d="M229.66,297.77c-0.63,0-1.32-0.21-2.02-0.61l-12.95-7.47c-0.25-0.15-0.34-0.47-0.19-0.72
			c0.15-0.25,0.47-0.34,0.72-0.19l12.95,7.47c0.88,0.51,1.68,0.61,2.25,0.28c0.57-0.33,0.89-1.07,0.89-2.09v-3.12
			c0-1.41,0.5-2.48,1.42-3c0.91-0.53,2.09-0.43,3.31,0.27l2.7,1.56c0.25,0.15,0.34,0.47,0.19,0.72c-0.15,0.25-0.47,0.34-0.72,0.19
			l-2.7-1.56c-0.88-0.51-1.68-0.61-2.25-0.28c-0.57,0.33-0.89,1.07-0.89,2.09v3.12c0,1.41-0.5,2.48-1.42,3
			C230.56,297.66,230.13,297.77,229.66,297.77z"/>
		<path class="st0" d="M224.62,300.67c-0.63,0-1.32-0.2-2.02-0.61l-12.95-7.48c-0.25-0.15-0.34-0.47-0.19-0.72
			c0.15-0.25,0.47-0.34,0.72-0.19l12.95,7.48c0.88,0.51,1.68,0.61,2.25,0.28c0.57-0.33,0.89-1.07,0.89-2.09v-3.12
			c0-1.41,0.5-2.48,1.42-3c0.91-0.53,2.09-0.43,3.31,0.28l2.7,1.56c0.25,0.15,0.34,0.47,0.19,0.72c-0.15,0.25-0.47,0.34-0.72,0.19
			l-2.7-1.56c-0.88-0.51-1.68-0.61-2.25-0.28c-0.57,0.33-0.89,1.07-0.89,2.09v3.12c0,1.41-0.5,2.48-1.42,3
			C225.52,300.56,225.09,300.67,224.62,300.67z"/>
		<path class="st0" d="M219.59,303.57c-0.63,0-1.32-0.21-2.02-0.61l-12.95-7.47c-0.25-0.15-0.34-0.47-0.19-0.72
			c0.15-0.25,0.47-0.34,0.72-0.19l12.95,7.47c0.88,0.51,1.68,0.61,2.25,0.28c0.57-0.33,0.89-1.07,0.89-2.09v-3.12
			c0-1.41,0.5-2.48,1.42-3c0.91-0.53,2.09-0.43,3.31,0.27l2.7,1.56c0.25,0.15,0.34,0.47,0.19,0.72c-0.15,0.25-0.47,0.34-0.72,0.19
			l-2.7-1.56c-0.88-0.51-1.68-0.61-2.25-0.28c-0.57,0.33-0.89,1.07-0.89,2.09v3.12c0,1.41-0.5,2.48-1.42,3
			C220.49,303.46,220.05,303.57,219.59,303.57z"/>
		<path class="st0" d="M214.55,306.46c-0.63,0-1.32-0.2-2.02-0.61l-12.95-7.48c-0.25-0.15-0.34-0.47-0.19-0.72
			c0.15-0.25,0.47-0.34,0.72-0.19l12.95,7.48c0.88,0.51,1.68,0.61,2.25,0.28c0.57-0.33,0.89-1.07,0.89-2.09V300
			c0-1.41,0.5-2.48,1.42-3c0.91-0.53,2.09-0.43,3.31,0.28l2.7,1.56c0.25,0.15,0.34,0.47,0.19,0.72c-0.15,0.25-0.47,0.34-0.72,0.19
			l-2.7-1.56c-0.88-0.51-1.68-0.61-2.25-0.28c-0.57,0.33-0.89,1.07-0.89,2.09v3.12c0,1.41-0.5,2.48-1.42,3
			C215.45,306.35,215.02,306.46,214.55,306.46z"/>
		<path class="st0" d="M209.52,309.36c-0.63,0-1.32-0.21-2.02-0.61l-12.95-7.47c-0.25-0.15-0.34-0.47-0.19-0.72
			c0.15-0.25,0.47-0.34,0.72-0.19l12.95,7.47c0.88,0.51,1.68,0.61,2.25,0.28c0.57-0.33,0.89-1.07,0.89-2.09v-3.12
			c0-1.41,0.5-2.48,1.42-3c0.91-0.53,2.09-0.43,3.31,0.27l2.7,1.56c0.25,0.15,0.34,0.47,0.19,0.72c-0.15,0.25-0.47,0.34-0.72,0.19
			l-2.7-1.56c-0.88-0.51-1.68-0.61-2.25-0.28c-0.57,0.33-0.89,1.07-0.89,2.09v3.12c0,1.41-0.5,2.48-1.42,3
			C210.41,309.25,209.98,309.36,209.52,309.36z"/>
		<path class="st0" d="M204.48,312.26c-0.63,0-1.32-0.2-2.02-0.61l-12.95-7.48c-0.25-0.15-0.34-0.47-0.19-0.72
			c0.15-0.25,0.47-0.34,0.72-0.19l12.95,7.48c0.88,0.51,1.68,0.61,2.25,0.28c0.57-0.33,0.89-1.07,0.89-2.09v-3.12
			c0-1.41,0.5-2.48,1.42-3c0.91-0.53,2.09-0.43,3.31,0.28l2.7,1.56c0.25,0.15,0.34,0.47,0.19,0.72c-0.15,0.25-0.47,0.34-0.72,0.19
			l-2.7-1.56c-0.88-0.51-1.68-0.61-2.25-0.28c-0.57,0.33-0.89,1.07-0.89,2.09v3.12c0,1.41-0.5,2.48-1.42,3
			C205.38,312.15,204.94,312.26,204.48,312.26z"/>
		<path class="st0" d="M199.44,315.15c-0.63,0-1.32-0.2-2.02-0.61l-12.95-7.48c-0.25-0.15-0.34-0.47-0.19-0.72
			c0.15-0.25,0.47-0.34,0.72-0.19l12.95,7.48c0.88,0.51,1.68,0.61,2.25,0.28c0.57-0.33,0.89-1.07,0.89-2.09v-3.12
			c0-1.41,0.5-2.48,1.42-3c0.91-0.53,2.09-0.43,3.31,0.27l2.7,1.56c0.25,0.15,0.34,0.47,0.19,0.72c-0.15,0.25-0.47,0.34-0.72,0.19
			l-2.7-1.56c-0.88-0.51-1.68-0.61-2.25-0.28c-0.57,0.33-0.89,1.07-0.89,2.09v3.12c0,1.41-0.5,2.48-1.42,3
			C200.34,315.04,199.91,315.15,199.44,315.15z"/>
		<path class="st0" d="M194.41,318.05c-0.63,0-1.32-0.2-2.02-0.61l-12.95-7.48c-0.25-0.15-0.34-0.47-0.19-0.72
			c0.15-0.25,0.47-0.34,0.72-0.19l12.95,7.48c0.88,0.51,1.68,0.61,2.25,0.28c0.57-0.33,0.89-1.07,0.89-2.09v-3.12
			c0-1.41,0.5-2.48,1.42-3c0.91-0.53,2.09-0.43,3.31,0.27l2.7,1.56c0.25,0.15,0.34,0.47,0.19,0.72c-0.15,0.25-0.47,0.34-0.72,0.19
			l-2.7-1.56c-0.88-0.51-1.68-0.61-2.25-0.28c-0.57,0.33-0.89,1.07-0.89,2.09v3.12c0,1.41-0.5,2.48-1.42,3
			C195.31,317.94,194.87,318.05,194.41,318.05z"/>
	</g>
	<g>
		<path class="st0" d="M310.73,263.25c-0.47,0-0.9-0.11-1.29-0.33c-0.91-0.53-1.42-1.59-1.42-3v-3.12c0-1.02-0.32-1.76-0.89-2.09
			c-0.57-0.33-1.37-0.23-2.25,0.28l-2.7,1.56c-0.26,0.15-0.58,0.06-0.72-0.19c-0.15-0.25-0.06-0.58,0.19-0.72l2.7-1.56
			c1.22-0.7,2.4-0.8,3.31-0.27c0.91,0.53,1.42,1.59,1.42,3v3.12c0,1.02,0.32,1.76,0.89,2.09c0.57,0.33,1.37,0.23,2.25-0.28
			l12.95-7.48c0.26-0.15,0.58-0.06,0.72,0.19c0.15,0.25,0.06,0.58-0.19,0.72l-12.95,7.48C312.04,263.04,311.36,263.25,310.73,263.25
			z"/>
		<path class="st0" d="M315.76,266.14c-0.46,0-0.9-0.11-1.29-0.33c-0.91-0.53-1.42-1.59-1.42-3v-3.12c0-1.02-0.32-1.76-0.89-2.09
			c-0.58-0.33-1.37-0.23-2.25,0.28l-2.7,1.56c-0.26,0.14-0.58,0.06-0.72-0.19c-0.15-0.25-0.06-0.58,0.19-0.72l2.7-1.56
			c1.22-0.7,2.4-0.8,3.31-0.27c0.91,0.53,1.42,1.59,1.42,3v3.12c0,1.02,0.32,1.76,0.89,2.09c0.57,0.33,1.37,0.23,2.25-0.28
			l12.95-7.48c0.25-0.15,0.57-0.06,0.72,0.19c0.15,0.25,0.06,0.58-0.19,0.72l-12.95,7.47C317.08,265.94,316.39,266.14,315.76,266.14
			z"/>
		<path class="st0" d="M320.8,269.04c-0.46,0-0.9-0.11-1.29-0.33c-0.91-0.53-1.42-1.59-1.42-3v-3.12c0-1.02-0.32-1.76-0.89-2.09
			c-0.57-0.33-1.37-0.23-2.25,0.28l-2.7,1.56c-0.26,0.15-0.58,0.06-0.72-0.19c-0.15-0.25-0.06-0.58,0.19-0.72l2.7-1.56
			c1.22-0.7,2.4-0.8,3.31-0.27c0.91,0.53,1.42,1.59,1.42,3v3.12c0,1.02,0.32,1.76,0.89,2.09c0.57,0.33,1.37,0.23,2.25-0.28
			l12.95-7.48c0.26-0.15,0.58-0.06,0.72,0.19c0.15,0.25,0.06,0.58-0.19,0.72l-12.95,7.48C322.12,268.84,321.43,269.04,320.8,269.04z
			"/>
		<path class="st0" d="M325.83,271.94c-0.47,0-0.9-0.11-1.29-0.33c-0.91-0.53-1.42-1.59-1.42-3v-3.12c0-1.02-0.32-1.76-0.89-2.09
			c-0.57-0.33-1.37-0.23-2.25,0.28l-2.71,1.56c-0.25,0.14-0.57,0.06-0.72-0.19c-0.15-0.25-0.06-0.58,0.19-0.72l2.71-1.56
			c1.22-0.7,2.4-0.8,3.31-0.28c0.91,0.53,1.42,1.59,1.42,3v3.12c0,1.02,0.32,1.76,0.89,2.09c0.57,0.33,1.38,0.23,2.25-0.28
			l12.95-7.48c0.25-0.15,0.58-0.06,0.72,0.19c0.15,0.25,0.06,0.58-0.19,0.72l-12.95,7.47C327.15,271.73,326.46,271.94,325.83,271.94
			z"/>
		<path class="st0" d="M330.87,274.83c-0.47,0-0.9-0.11-1.29-0.33c-0.91-0.53-1.42-1.59-1.42-3v-3.12c0-1.02-0.32-1.76-0.89-2.09
			c-0.57-0.33-1.38-0.23-2.25,0.28l-2.7,1.56c-0.26,0.15-0.58,0.06-0.72-0.19c-0.15-0.25-0.06-0.58,0.19-0.72l2.7-1.56
			c1.22-0.7,2.4-0.8,3.31-0.28c0.91,0.53,1.42,1.59,1.42,3v3.12c0,1.02,0.32,1.76,0.89,2.09c0.57,0.33,1.37,0.23,2.25-0.28
			l12.95-7.48c0.26-0.15,0.58-0.06,0.72,0.19c0.15,0.25,0.06,0.58-0.19,0.72l-12.95,7.48C332.19,274.63,331.5,274.83,330.87,274.83z
			"/>
		<path class="st0" d="M335.9,277.73c-0.46,0-0.9-0.11-1.29-0.33c-0.91-0.53-1.42-1.59-1.42-3v-3.12c0-1.02-0.32-1.76-0.89-2.09
			c-0.57-0.33-1.37-0.23-2.25,0.28l-2.7,1.56c-0.26,0.15-0.58,0.06-0.72-0.19c-0.15-0.25-0.06-0.58,0.19-0.72l2.7-1.56
			c1.22-0.7,2.4-0.8,3.31-0.27c0.91,0.53,1.42,1.59,1.42,3v3.12c0,1.02,0.32,1.76,0.89,2.09c0.57,0.33,1.37,0.23,2.25-0.28
			l12.95-7.48c0.25-0.15,0.57-0.06,0.72,0.19c0.15,0.25,0.06,0.58-0.19,0.72l-12.95,7.47C337.22,277.53,336.54,277.73,335.9,277.73z
			"/>
		<path class="st0" d="M340.94,280.63c-0.47,0-0.9-0.11-1.29-0.34c-0.91-0.53-1.42-1.59-1.42-3v-3.12c0-1.02-0.32-1.76-0.89-2.09
			c-0.57-0.33-1.37-0.23-2.25,0.28l-2.71,1.56c-0.25,0.15-0.58,0.06-0.72-0.19c-0.15-0.25-0.06-0.58,0.19-0.72l2.7-1.56
			c1.22-0.7,2.4-0.8,3.31-0.28c0.91,0.53,1.42,1.59,1.42,3v3.12c0,1.02,0.32,1.76,0.89,2.09c0.57,0.33,1.38,0.23,2.25-0.28
			l12.95-7.48c0.26-0.15,0.58-0.06,0.72,0.19c0.15,0.25,0.06,0.58-0.19,0.72l-12.95,7.48C342.26,280.42,341.57,280.63,340.94,280.63
			z"/>
		<path class="st0" d="M345.98,283.53c-0.46,0-0.9-0.11-1.29-0.33c-0.91-0.53-1.42-1.59-1.42-3v-3.12c0-1.02-0.32-1.76-0.89-2.09
			c-0.58-0.33-1.37-0.23-2.25,0.28l-2.7,1.56c-0.26,0.15-0.58,0.06-0.72-0.19c-0.15-0.25-0.06-0.58,0.19-0.72l2.7-1.56
			c1.22-0.7,2.4-0.8,3.31-0.27c0.91,0.53,1.42,1.59,1.42,3v3.12c0,1.02,0.32,1.76,0.89,2.09c0.57,0.33,1.37,0.23,2.25-0.28
			l12.95-7.47c0.25-0.15,0.58-0.06,0.72,0.19c0.15,0.25,0.06,0.58-0.19,0.72L348,282.91C347.3,283.32,346.61,283.53,345.98,283.53z"
			/>
		<path class="st0" d="M351.01,286.42c-0.47,0-0.9-0.11-1.29-0.33c-0.91-0.53-1.42-1.59-1.42-3v-3.12c0-1.02-0.32-1.76-0.89-2.09
			c-0.57-0.33-1.38-0.23-2.25,0.28l-2.7,1.56c-0.25,0.15-0.58,0.06-0.72-0.19c-0.15-0.25-0.06-0.58,0.19-0.72l2.7-1.56
			c1.22-0.7,2.4-0.8,3.31-0.28c0.91,0.53,1.42,1.59,1.42,3v3.12c0,1.02,0.32,1.76,0.89,2.09c0.57,0.33,1.37,0.23,2.25-0.28
			l12.95-7.48c0.26-0.15,0.58-0.06,0.72,0.19c0.15,0.25,0.06,0.58-0.19,0.72l-12.95,7.48C352.33,286.22,351.64,286.42,351.01,286.42
			z"/>
		<path class="st0" d="M356.05,289.32c-0.46,0-0.9-0.11-1.29-0.34c-0.91-0.53-1.42-1.59-1.42-3v-3.12c0-1.02-0.32-1.76-0.89-2.09
			c-0.57-0.33-1.37-0.23-2.25,0.28l-2.71,1.56c-0.25,0.15-0.58,0.06-0.72-0.19c-0.15-0.25-0.06-0.58,0.19-0.72l2.71-1.56
			c1.22-0.7,2.39-0.8,3.31-0.28c0.91,0.53,1.42,1.59,1.42,3v3.12c0,1.02,0.32,1.76,0.89,2.09c0.57,0.33,1.37,0.23,2.25-0.28
			l12.95-7.48c0.25-0.15,0.58-0.06,0.72,0.19c0.15,0.25,0.06,0.58-0.19,0.72l-12.95,7.47C357.37,289.11,356.68,289.32,356.05,289.32
			z"/>
		<path class="st0" d="M361.08,292.22c-0.46,0-0.9-0.11-1.29-0.33c-0.91-0.53-1.42-1.59-1.42-3v-3.12c0-1.02-0.32-1.76-0.89-2.09
			c-0.57-0.33-1.37-0.23-2.25,0.28l-2.71,1.56c-0.25,0.15-0.58,0.06-0.72-0.19c-0.15-0.25-0.06-0.58,0.19-0.72l2.7-1.56
			c1.22-0.7,2.4-0.8,3.31-0.28c0.91,0.53,1.42,1.59,1.42,3v3.12c0,1.02,0.32,1.76,0.89,2.09c0.57,0.33,1.37,0.23,2.25-0.28
			l12.95-7.48c0.26-0.15,0.58-0.06,0.72,0.19c0.15,0.25,0.06,0.58-0.19,0.72l-12.95,7.48C362.4,292.01,361.72,292.22,361.08,292.22z
			"/>
		<path class="st0" d="M366.12,295.11c-0.47,0-0.9-0.11-1.29-0.33c-0.91-0.53-1.42-1.59-1.42-3v-3.12c0-1.02-0.32-1.76-0.89-2.09
			c-0.57-0.33-1.37-0.23-2.25,0.28l-2.7,1.56c-0.26,0.14-0.58,0.06-0.72-0.19c-0.15-0.25-0.06-0.58,0.19-0.72l2.7-1.56
			c1.22-0.7,2.4-0.8,3.31-0.27c0.91,0.53,1.42,1.59,1.42,3v3.12c0,1.02,0.32,1.76,0.89,2.09c0.57,0.33,1.37,0.23,2.25-0.28
			l12.95-7.48c0.26-0.15,0.58-0.06,0.72,0.19c0.15,0.25,0.06,0.58-0.19,0.72l-12.95,7.48C367.44,294.91,366.75,295.11,366.12,295.11
			z"/>
		<path class="st0" d="M371.16,298.01c-0.47,0-0.9-0.11-1.29-0.34c-0.91-0.53-1.42-1.59-1.42-3v-3.12c0-1.02-0.32-1.76-0.89-2.09
			c-0.57-0.33-1.38-0.23-2.25,0.28l-2.7,1.56c-0.26,0.15-0.58,0.06-0.72-0.19c-0.15-0.25-0.06-0.58,0.19-0.72l2.7-1.56
			c1.22-0.7,2.4-0.8,3.31-0.27c0.91,0.53,1.42,1.59,1.42,3v3.12c0,1.02,0.32,1.76,0.89,2.09c0.57,0.33,1.38,0.23,2.25-0.28
			l12.95-7.48c0.26-0.15,0.58-0.06,0.72,0.19c0.15,0.25,0.06,0.58-0.19,0.72l-12.95,7.48C372.48,297.81,371.79,298.01,371.16,298.01
			z"/>
		<path class="st0" d="M376.19,300.91c-0.47,0-0.9-0.11-1.29-0.33c-0.91-0.53-1.42-1.59-1.42-3v-3.12c0-1.02-0.32-1.76-0.89-2.09
			c-0.57-0.33-1.37-0.23-2.25,0.28l-2.7,1.56c-0.26,0.15-0.58,0.06-0.72-0.19c-0.15-0.25-0.06-0.58,0.19-0.72l2.7-1.56
			c1.22-0.7,2.4-0.8,3.31-0.27c0.91,0.53,1.42,1.59,1.42,3v3.12c0,1.02,0.32,1.76,0.89,2.09c0.57,0.33,1.37,0.23,2.25-0.28
			l12.95-7.48c0.25-0.15,0.58-0.06,0.72,0.19c0.15,0.25,0.06,0.58-0.19,0.72l-12.95,7.48C377.51,300.7,376.82,300.91,376.19,300.91z
			"/>
		<path class="st0" d="M381.23,303.8c-0.47,0-0.9-0.11-1.29-0.33c-0.91-0.53-1.42-1.59-1.42-3v-3.12c0-1.02-0.32-1.76-0.89-2.09
			c-0.58-0.33-1.37-0.23-2.25,0.28l-2.7,1.56c-0.26,0.14-0.58,0.06-0.72-0.19c-0.15-0.25-0.06-0.58,0.19-0.72l2.7-1.56
			c1.22-0.7,2.4-0.8,3.31-0.27c0.91,0.53,1.42,1.59,1.42,3v3.12c0,1.02,0.32,1.76,0.89,2.09c0.57,0.33,1.38,0.23,2.25-0.28
			l12.95-7.48c0.26-0.15,0.58-0.06,0.72,0.19c0.15,0.25,0.06,0.58-0.19,0.72l-12.95,7.48C382.55,303.6,381.86,303.8,381.23,303.8z"
			/>
		<path class="st0" d="M386.26,306.7c-0.46,0-0.9-0.11-1.29-0.33c-0.91-0.53-1.42-1.59-1.42-3v-3.12c0-1.02-0.32-1.76-0.89-2.09
			c-0.57-0.33-1.37-0.23-2.25,0.28l-2.7,1.56c-0.26,0.15-0.58,0.06-0.72-0.19c-0.15-0.25-0.06-0.58,0.19-0.72l2.7-1.56
			c1.22-0.7,2.4-0.8,3.31-0.27c0.91,0.53,1.42,1.59,1.42,3v3.12c0,1.02,0.32,1.76,0.89,2.09c0.57,0.33,1.37,0.23,2.25-0.28
			l12.95-7.48c0.26-0.15,0.58-0.06,0.72,0.19c0.15,0.25,0.06,0.58-0.19,0.72l-12.95,7.48C387.58,306.5,386.9,306.7,386.26,306.7z"/>
		<path class="st0" d="M391.3,309.6c-0.47,0-0.9-0.11-1.29-0.33c-0.91-0.53-1.42-1.59-1.42-3v-3.12c0-1.02-0.32-1.76-0.89-2.09
			c-0.57-0.33-1.37-0.23-2.25,0.28l-2.71,1.56c-0.25,0.14-0.57,0.06-0.72-0.19c-0.15-0.25-0.06-0.58,0.19-0.72l2.71-1.56
			c1.22-0.7,2.4-0.8,3.31-0.28c0.91,0.53,1.42,1.59,1.42,3v3.12c0,1.02,0.32,1.76,0.89,2.09c0.57,0.33,1.38,0.23,2.25-0.28
			l12.95-7.48c0.25-0.15,0.57-0.06,0.72,0.19c0.15,0.25,0.06,0.58-0.19,0.72l-12.95,7.47C392.62,309.39,391.93,309.6,391.3,309.6z"
			/>
		<path class="st0" d="M396.34,312.49c-0.46,0-0.9-0.11-1.29-0.33c-0.91-0.53-1.42-1.59-1.42-3v-3.12c0-1.02-0.32-1.76-0.89-2.09
			c-0.57-0.33-1.38-0.23-2.25,0.28l-2.7,1.56c-0.26,0.15-0.58,0.06-0.72-0.19c-0.15-0.25-0.06-0.58,0.19-0.72l2.7-1.56
			c1.22-0.7,2.4-0.8,3.31-0.28c0.91,0.53,1.42,1.59,1.42,3v3.12c0,1.02,0.32,1.76,0.89,2.09c0.57,0.33,1.37,0.23,2.25-0.28
			l12.95-7.48c0.25-0.15,0.58-0.06,0.72,0.19c0.15,0.25,0.06,0.58-0.19,0.72l-12.95,7.48C397.66,312.29,396.97,312.49,396.34,312.49
			z"/>
		<path class="st0" d="M401.37,315.39c-0.46,0-0.9-0.11-1.29-0.33c-0.91-0.53-1.42-1.59-1.42-3v-3.12c0-1.02-0.32-1.76-0.89-2.09
			c-0.57-0.33-1.37-0.23-2.25,0.28l-2.7,1.56c-0.26,0.15-0.58,0.06-0.72-0.19c-0.15-0.25-0.06-0.58,0.19-0.72l2.7-1.56
			c1.22-0.7,2.4-0.8,3.31-0.27c0.91,0.53,1.42,1.59,1.42,3v3.12c0,1.02,0.32,1.76,0.89,2.09c0.57,0.33,1.37,0.23,2.25-0.28
			l12.95-7.48c0.25-0.15,0.58-0.06,0.72,0.19c0.15,0.25,0.06,0.58-0.19,0.72l-12.95,7.47C402.69,315.19,402,315.39,401.37,315.39z"
			/>
		<path class="st0" d="M406.41,318.29c-0.47,0-0.9-0.11-1.29-0.33c-0.91-0.53-1.42-1.59-1.42-3v-3.12c0-1.02-0.32-1.76-0.89-2.09
			c-0.57-0.33-1.37-0.23-2.25,0.28l-2.7,1.56c-0.26,0.15-0.58,0.06-0.72-0.19c-0.15-0.25-0.06-0.58,0.19-0.72l2.7-1.56
			c1.22-0.71,2.4-0.8,3.31-0.28c0.91,0.53,1.42,1.59,1.42,3v3.12c0,1.02,0.32,1.76,0.89,2.09c0.57,0.33,1.37,0.23,2.25-0.28
			l12.95-7.48c0.26-0.15,0.58-0.06,0.72,0.19c0.15,0.25,0.06,0.58-0.19,0.72l-12.95,7.48C407.73,318.08,407.04,318.29,406.41,318.29
			z"/>
	</g>
	<g>
		<g>
			<linearGradient id="SVGID_1_" gradientUnits="userSpaceOnUse" x1="151.7615" y1="346.7078" x2="406.7506" y2="346.7078">
				<stop  offset="0" style="stop-color:#5761D7"/>
				<stop  offset="0.1645" style="stop-color:#5E67DA"/>
				<stop  offset="0.4051" style="stop-color:#727AE2"/>
				<stop  offset="0.6924" style="stop-color:#9297EE"/>
				<stop  offset="1" style="stop-color:#BCBEFF"/>
			</linearGradient>
			<polygon class="st1" points="399.94,312.24 399.94,323.74 300.45,381.18 200.96,323.73 200.96,312.24 			"/>
			<polygon class="st2" points="300.45,369.68 200.96,312.24 300.45,254.8 399.94,312.24 			"/>
			<polygon class="st3" points="300.45,368.34 202.12,311.57 200.96,312.24 300.45,369.68 399.94,312.24 398.78,311.57 			"/>
		</g>
		<g>
			<polygon class="st4" points="300.45,356.43 223.93,312.25 300.45,268.07 376.97,312.25 			"/>
			<g>
				<linearGradient id="SVGID_2_" gradientUnits="userSpaceOnUse" x1="223.9239" y1="312.2515" x2="376.975" y2="312.2515">
					<stop  offset="0" style="stop-color:#42E8E0"/>
					<stop  offset="0.1507" style="stop-color:#43E3E0"/>
					<stop  offset="0.3285" style="stop-color:#45D5DF"/>
					<stop  offset="0.5199" style="stop-color:#49BDDD"/>
					<stop  offset="0.7209" style="stop-color:#4E9CDB"/>
					<stop  offset="0.9274" style="stop-color:#5472D8"/>
					<stop  offset="1" style="stop-color:#5761D7"/>
				</linearGradient>
				<polygon class="st5" points="300.45,356.43 223.92,312.25 300.45,268.07 376.98,312.25 				"/>
				<g>
					<linearGradient id="SVGID_3_" gradientUnits="userSpaceOnUse" x1="300.4483" y1="284.5898" x2="376.975" y2="284.5898">
						<stop  offset="0" style="stop-color:#42E8E0"/>
						<stop  offset="0.1507" style="stop-color:#43E3E0"/>
						<stop  offset="0.3285" style="stop-color:#45D5DF"/>
						<stop  offset="0.5199" style="stop-color:#49BDDD"/>
						<stop  offset="0.7209" style="stop-color:#4E9CDB"/>
						<stop  offset="0.9274" style="stop-color:#5472D8"/>
						<stop  offset="1" style="stop-color:#5761D7"/>
					</linearGradient>
					<polygon class="st6" points="300.45,256.93 376.98,301.11 376.98,312.25 300.45,268.07 					"/>
					<linearGradient id="SVGID_4_" gradientUnits="userSpaceOnUse" x1="223.9239" y1="284.5891" x2="300.4506" y2="284.5891">
						<stop  offset="0" style="stop-color:#42E8E0"/>
						<stop  offset="0.1507" style="stop-color:#43E3E0"/>
						<stop  offset="0.3285" style="stop-color:#45D5DF"/>
						<stop  offset="0.5199" style="stop-color:#49BDDD"/>
						<stop  offset="0.7209" style="stop-color:#4E9CDB"/>
						<stop  offset="0.9274" style="stop-color:#5472D8"/>
						<stop  offset="1" style="stop-color:#5761D7"/>
					</linearGradient>
					<polygon class="st7" points="300.45,268.07 223.92,312.25 223.92,301.11 300.45,256.93 					"/>
					<linearGradient id="SVGID_5_" gradientUnits="userSpaceOnUse" x1="223.9239" y1="301.1101" x2="376.975" y2="301.1101">
						<stop  offset="0" style="stop-color:#42E8E0"/>
						<stop  offset="0.1507" style="stop-color:#43E3E0"/>
						<stop  offset="0.3285" style="stop-color:#45D5DF"/>
						<stop  offset="0.5199" style="stop-color:#49BDDD"/>
						<stop  offset="0.7209" style="stop-color:#4E9CDB"/>
						<stop  offset="0.9274" style="stop-color:#5472D8"/>
						<stop  offset="1" style="stop-color:#5761D7"/>
					</linearGradient>
					<polygon class="st8" points="300.45,345.29 223.92,301.11 300.45,256.93 376.98,301.11 					"/>
					<polygon class="st9" points="300.45,318.76 269.87,301.11 300.45,283.46 331.03,301.11 					"/>
					<polygon class="st9" points="300.45,285.08 329.62,301.92 331.03,301.11 300.45,283.46 269.87,301.11 271.28,301.92 					"/>
					<linearGradient id="SVGID_6_" gradientUnits="userSpaceOnUse" x1="300.4506" y1="328.7719" x2="376.975" y2="328.7719">
						<stop  offset="0" style="stop-color:#42E8E0"/>
						<stop  offset="0.1507" style="stop-color:#43E3E0"/>
						<stop  offset="0.3285" style="stop-color:#45D5DF"/>
						<stop  offset="0.5199" style="stop-color:#49BDDD"/>
						<stop  offset="0.7209" style="stop-color:#4E9CDB"/>
						<stop  offset="0.9274" style="stop-color:#5472D8"/>
						<stop  offset="1" style="stop-color:#5761D7"/>
					</linearGradient>
					<polygon class="st10" points="300.45,345.29 300.45,356.43 376.98,312.25 376.98,301.11 					"/>
				</g>
				<linearGradient id="SVGID_7_" gradientUnits="userSpaceOnUse" x1="223.9239" y1="328.7712" x2="300.4506" y2="328.7712">
					<stop  offset="0" style="stop-color:#42E8E0"/>
					<stop  offset="0.1507" style="stop-color:#43E3E0"/>
					<stop  offset="0.3285" style="stop-color:#45D5DF"/>
					<stop  offset="0.5199" style="stop-color:#49BDDD"/>
					<stop  offset="0.7209" style="stop-color:#4E9CDB"/>
					<stop  offset="0.9274" style="stop-color:#5472D8"/>
					<stop  offset="1" style="stop-color:#5761D7"/>
				</linearGradient>
				<polygon class="st11" points="223.92,301.11 223.92,312.25 300.45,356.43 300.45,345.29 				"/>
			</g>
			<polygon class="st12" points="300.45,344.08 224.98,300.5 223.92,301.11 300.45,345.29 376.98,301.11 375.92,300.5 			"/>
		</g>
	</g>
	<g>
		<path class="st0" d="M325.43,395.04c-0.09,0-0.18-0.02-0.26-0.07l-12.95-7.47c-2.35-1.36-4.2-4.55-4.2-7.27v-3.12
			c0-2.34-1.65-5.19-3.67-6.35l-2.71-1.56c-0.25-0.15-0.34-0.47-0.19-0.72c0.15-0.25,0.47-0.34,0.72-0.19l2.7,1.56
			c2.35,1.36,4.2,4.55,4.2,7.27v3.12c0,2.34,1.65,5.19,3.67,6.35l12.95,7.47c0.25,0.15,0.34,0.47,0.19,0.72
			C325.79,394.95,325.61,395.04,325.43,395.04z"/>
		<path class="st0" d="M330.47,392.14c-0.09,0-0.18-0.02-0.26-0.07l-12.95-7.48c-2.35-1.36-4.2-4.55-4.2-7.27v-3.12
			c0-2.34-1.65-5.19-3.67-6.35l-2.7-1.56c-0.25-0.15-0.34-0.47-0.19-0.72c0.15-0.25,0.46-0.34,0.72-0.19l2.7,1.56
			c2.35,1.36,4.2,4.55,4.2,7.27v3.12c0,2.34,1.65,5.19,3.67,6.35l12.95,7.48c0.25,0.15,0.34,0.47,0.19,0.72
			C330.83,392.05,330.65,392.14,330.47,392.14z"/>
		<path class="st0" d="M335.5,389.24c-0.09,0-0.18-0.02-0.26-0.07l-12.95-7.48c-2.35-1.36-4.2-4.55-4.2-7.27v-3.12
			c0-2.34-1.65-5.19-3.67-6.36l-2.7-1.56c-0.25-0.15-0.34-0.47-0.19-0.72c0.15-0.25,0.47-0.34,0.72-0.19l2.7,1.56
			c2.35,1.36,4.2,4.55,4.2,7.27v3.12c0,2.34,1.65,5.19,3.67,6.35l12.95,7.48c0.25,0.15,0.34,0.47,0.19,0.72
			C335.86,389.15,335.68,389.24,335.5,389.24z"/>
		<path class="st0" d="M340.54,386.34c-0.09,0-0.18-0.02-0.26-0.07l-12.95-7.48c-2.35-1.36-4.2-4.55-4.2-7.27v-3.12
			c0-2.34-1.65-5.19-3.67-6.35l-2.7-1.56c-0.25-0.15-0.34-0.47-0.19-0.72c0.15-0.25,0.47-0.34,0.72-0.19l2.71,1.56
			c2.35,1.36,4.2,4.55,4.2,7.27v3.12c0,2.34,1.65,5.19,3.67,6.35l12.95,7.48c0.25,0.15,0.34,0.47,0.19,0.72
			C340.9,386.24,340.72,386.34,340.54,386.34z"/>
		<path class="st0" d="M345.57,383.44c-0.09,0-0.18-0.02-0.26-0.07l-12.95-7.48c-2.35-1.36-4.2-4.55-4.2-7.27v-3.12
			c0-2.34-1.65-5.19-3.67-6.36l-2.7-1.56c-0.25-0.15-0.34-0.47-0.19-0.72c0.15-0.25,0.47-0.34,0.72-0.19l2.7,1.56
			c2.35,1.36,4.2,4.55,4.2,7.27v3.12c0,2.34,1.65,5.19,3.67,6.35l12.95,7.48c0.25,0.15,0.34,0.47,0.19,0.72
			C345.93,383.34,345.76,383.44,345.57,383.44z"/>
		<path class="st0" d="M350.61,380.54c-0.09,0-0.18-0.02-0.26-0.07l-12.95-7.47c-2.35-1.36-4.2-4.55-4.2-7.27v-3.12
			c0-2.34-1.65-5.19-3.67-6.35l-2.71-1.56c-0.25-0.15-0.34-0.47-0.19-0.72c0.15-0.25,0.46-0.34,0.72-0.19l2.7,1.56
			c2.35,1.36,4.2,4.55,4.2,7.27v3.12c0,2.34,1.65,5.19,3.67,6.36l12.95,7.47c0.25,0.15,0.34,0.47,0.19,0.72
			C350.97,380.44,350.79,380.54,350.61,380.54z"/>
		<path class="st0" d="M355.65,377.63c-0.09,0-0.18-0.02-0.26-0.07l-12.95-7.48c-2.35-1.36-4.2-4.55-4.2-7.27v-3.12
			c0-2.34-1.65-5.19-3.67-6.35l-2.71-1.56c-0.25-0.15-0.34-0.47-0.19-0.72c0.15-0.25,0.46-0.34,0.72-0.19l2.7,1.56
			c2.35,1.36,4.2,4.55,4.2,7.27v3.12c0,2.34,1.65,5.19,3.67,6.35l12.95,7.48c0.25,0.15,0.34,0.47,0.19,0.72
			C356.01,377.54,355.83,377.63,355.65,377.63z"/>
		<path class="st0" d="M360.68,374.73c-0.09,0-0.18-0.02-0.26-0.07l-12.95-7.48c-2.35-1.36-4.2-4.55-4.2-7.27v-3.12
			c0-2.34-1.65-5.19-3.67-6.36l-2.7-1.56c-0.25-0.15-0.34-0.47-0.19-0.72c0.15-0.25,0.46-0.34,0.72-0.19l2.7,1.56
			c2.35,1.36,4.2,4.55,4.2,7.27v3.12c0,2.34,1.65,5.19,3.67,6.35l12.95,7.48c0.25,0.15,0.34,0.47,0.19,0.72
			C361.04,374.64,360.86,374.73,360.68,374.73z"/>
		<path class="st0" d="M365.72,371.83c-0.09,0-0.18-0.02-0.26-0.07l-12.95-7.47c-2.35-1.36-4.2-4.55-4.2-7.27v-3.12
			c0-2.34-1.65-5.19-3.67-6.35l-2.7-1.56c-0.25-0.15-0.34-0.47-0.19-0.72c0.15-0.25,0.47-0.34,0.72-0.19l2.7,1.56
			c2.35,1.36,4.2,4.55,4.2,7.27v3.12c0,2.34,1.65,5.19,3.67,6.36l12.95,7.47c0.25,0.15,0.34,0.47,0.19,0.72
			C366.08,371.73,365.9,371.83,365.72,371.83z"/>
		<path class="st0" d="M370.75,368.93c-0.09,0-0.18-0.02-0.26-0.07l-12.95-7.48c-2.35-1.36-4.2-4.55-4.2-7.27v-3.12
			c0-2.34-1.65-5.19-3.67-6.35l-2.7-1.56c-0.25-0.15-0.34-0.47-0.19-0.72c0.15-0.25,0.47-0.34,0.72-0.19l2.71,1.56
			c2.35,1.36,4.2,4.55,4.2,7.27v3.12c0,2.34,1.65,5.19,3.67,6.35l12.95,7.48c0.25,0.15,0.34,0.47,0.19,0.72
			C371.11,368.83,370.94,368.93,370.75,368.93z"/>
		<path class="st0" d="M375.79,366.03c-0.09,0-0.18-0.02-0.26-0.07l-12.95-7.48c-2.35-1.36-4.2-4.55-4.2-7.27v-3.12
			c0-2.34-1.65-5.19-3.67-6.36l-2.7-1.56c-0.25-0.15-0.34-0.47-0.19-0.72c0.15-0.25,0.47-0.34,0.72-0.19l2.7,1.56
			c2.35,1.36,4.2,4.55,4.2,7.27v3.12c0,2.34,1.65,5.19,3.67,6.35l12.95,7.48c0.25,0.15,0.34,0.47,0.19,0.72
			C376.15,365.93,375.97,366.03,375.79,366.03z"/>
		<path class="st0" d="M380.83,363.12c-0.09,0-0.18-0.02-0.26-0.07l-12.95-7.47c-2.35-1.36-4.2-4.55-4.2-7.27v-3.12
			c0-2.34-1.65-5.19-3.67-6.35l-2.7-1.56c-0.25-0.15-0.34-0.47-0.19-0.72c0.15-0.25,0.46-0.34,0.72-0.19l2.7,1.56
			c2.35,1.36,4.2,4.55,4.2,7.27v3.12c0,2.34,1.65,5.19,3.67,6.36l12.95,7.47c0.25,0.15,0.34,0.47,0.19,0.72
			C381.19,363.03,381.01,363.12,380.83,363.12z"/>
		<path class="st0" d="M385.86,360.22c-0.09,0-0.18-0.02-0.26-0.07l-12.95-7.48c-2.35-1.36-4.2-4.55-4.2-7.27v-3.12
			c0-2.34-1.65-5.19-3.67-6.35l-2.71-1.56c-0.25-0.15-0.34-0.47-0.19-0.72c0.15-0.25,0.47-0.34,0.72-0.19l2.7,1.56
			c2.35,1.36,4.2,4.55,4.2,7.27v3.12c0,2.34,1.65,5.19,3.67,6.35l12.95,7.48c0.25,0.15,0.34,0.47,0.19,0.72
			C386.22,360.13,386.04,360.22,385.86,360.22z"/>
		<path class="st0" d="M390.9,357.32c-0.09,0-0.18-0.02-0.26-0.07l-12.95-7.48c-2.35-1.36-4.2-4.55-4.2-7.27v-3.12
			c0-2.34-1.65-5.19-3.67-6.36l-2.7-1.56c-0.25-0.15-0.34-0.47-0.19-0.72c0.15-0.25,0.47-0.34,0.72-0.19l2.7,1.56
			c2.35,1.36,4.2,4.55,4.2,7.27v3.12c0,2.34,1.65,5.19,3.67,6.35l12.95,7.48c0.25,0.15,0.34,0.47,0.19,0.72
			C391.26,357.22,391.08,357.32,390.9,357.32z"/>
		<path class="st0" d="M395.93,354.42c-0.09,0-0.18-0.02-0.26-0.07l-12.95-7.47c-2.35-1.36-4.2-4.55-4.2-7.27v-3.12
			c0-2.34-1.65-5.19-3.67-6.35l-2.7-1.56c-0.25-0.15-0.34-0.47-0.19-0.72c0.15-0.25,0.47-0.34,0.72-0.19l2.7,1.56
			c2.35,1.36,4.2,4.55,4.2,7.27v3.12c0,2.34,1.65,5.19,3.67,6.36l12.95,7.47c0.25,0.15,0.34,0.47,0.19,0.72
			C396.29,354.32,396.12,354.42,395.93,354.42z"/>
		<path class="st0" d="M400.97,351.52c-0.09,0-0.18-0.02-0.26-0.07l-12.95-7.48c-2.35-1.36-4.2-4.55-4.2-7.27v-3.12
			c0-2.34-1.65-5.19-3.67-6.35l-2.7-1.56c-0.25-0.15-0.34-0.47-0.19-0.72c0.15-0.25,0.46-0.34,0.72-0.19l2.7,1.56
			c2.35,1.36,4.2,4.55,4.2,7.27v3.12c0,2.34,1.65,5.19,3.67,6.35l12.95,7.48c0.25,0.15,0.34,0.47,0.19,0.72
			C401.33,351.42,401.15,351.52,400.97,351.52z"/>
		<path class="st0" d="M406.01,348.61c-0.09,0-0.18-0.02-0.26-0.07l-12.95-7.48c-2.35-1.36-4.2-4.55-4.2-7.27v-3.12
			c0-2.34-1.65-5.19-3.67-6.36l-2.7-1.56c-0.25-0.15-0.34-0.47-0.19-0.72c0.15-0.25,0.47-0.34,0.72-0.19l2.71,1.56
			c2.35,1.36,4.2,4.55,4.2,7.27v3.12c0,2.34,1.65,5.19,3.67,6.35l12.95,7.48c0.25,0.15,0.34,0.47,0.19,0.72
			C406.37,348.52,406.19,348.61,406.01,348.61z"/>
		<path class="st0" d="M411.04,345.71c-0.09,0-0.18-0.02-0.26-0.07l-12.95-7.47c-2.35-1.36-4.2-4.55-4.2-7.27v-3.12
			c0-2.34-1.65-5.19-3.67-6.35l-2.71-1.56c-0.25-0.15-0.34-0.47-0.19-0.72c0.15-0.25,0.47-0.34,0.72-0.19l2.7,1.56
			c2.35,1.36,4.2,4.55,4.2,7.27v3.12c0,2.34,1.65,5.19,3.67,6.36l12.95,7.47c0.25,0.15,0.34,0.47,0.19,0.72
			C411.4,345.62,411.22,345.71,411.04,345.71z"/>
		<path class="st0" d="M416.08,342.81c-0.09,0-0.18-0.02-0.26-0.07l-12.95-7.48c-2.35-1.36-4.2-4.55-4.2-7.27v-3.12
			c0-2.34-1.65-5.19-3.67-6.35l-2.71-1.56c-0.25-0.15-0.34-0.47-0.19-0.72c0.15-0.25,0.47-0.34,0.72-0.19l2.7,1.56
			c2.35,1.36,4.2,4.55,4.2,7.27v3.12c0,2.34,1.65,5.19,3.67,6.35l12.95,7.48c0.25,0.15,0.34,0.47,0.19,0.72
			C416.44,342.71,416.26,342.81,416.08,342.81z"/>
		<path class="st0" d="M421.11,339.91c-0.09,0-0.18-0.02-0.26-0.07l-12.95-7.48c-2.35-1.36-4.2-4.55-4.2-7.27v-3.12
			c0-2.34-1.65-5.19-3.67-6.36l-2.7-1.56c-0.25-0.15-0.34-0.47-0.19-0.72c0.15-0.25,0.47-0.34,0.72-0.19l2.7,1.56
			c2.35,1.36,4.2,4.55,4.2,7.27v3.12c0,2.34,1.65,5.19,3.67,6.35l12.95,7.48c0.25,0.15,0.34,0.47,0.19,0.72
			C421.47,339.81,421.3,339.91,421.11,339.91z"/>
	</g>
	<g>
		<path class="st0" d="M275.12,395.04c-0.18,0-0.36-0.09-0.46-0.26c-0.15-0.25-0.06-0.58,0.19-0.72l12.95-7.47
			c2.02-1.17,3.67-4.02,3.67-6.35v-3.12c0-2.72,1.84-5.91,4.2-7.27l2.7-1.56c0.25-0.14,0.58-0.06,0.72,0.19
			c0.15,0.25,0.06,0.58-0.19,0.72l-2.7,1.56c-2.02,1.17-3.67,4.02-3.67,6.35v3.12c0,2.72-1.84,5.91-4.2,7.27l-12.95,7.48
			C275.3,395.02,275.21,395.04,275.12,395.04z"/>
		<path class="st0" d="M270.08,392.14c-0.18,0-0.36-0.09-0.46-0.26c-0.15-0.25-0.06-0.58,0.19-0.72l12.95-7.48
			c2.02-1.17,3.67-4.02,3.67-6.35v-3.12c0-2.72,1.84-5.91,4.2-7.27l2.7-1.56c0.25-0.15,0.58-0.06,0.72,0.19
			c0.15,0.25,0.06,0.58-0.19,0.72l-2.7,1.56c-2.02,1.17-3.67,4.02-3.67,6.35v3.12c0,2.72-1.84,5.91-4.2,7.27l-12.95,7.48
			C270.26,392.12,270.17,392.14,270.08,392.14z"/>
		<path class="st0" d="M265.04,389.24c-0.18,0-0.36-0.09-0.46-0.26c-0.15-0.25-0.06-0.58,0.19-0.72l12.95-7.48
			c2.02-1.17,3.67-4.02,3.67-6.35v-3.12c0-2.72,1.84-5.91,4.2-7.27l2.7-1.56c0.25-0.15,0.58-0.06,0.72,0.19
			c0.15,0.25,0.06,0.58-0.19,0.72l-2.7,1.56c-2.02,1.17-3.67,4.02-3.67,6.36v3.12c0,2.72-1.84,5.91-4.2,7.27l-12.95,7.48
			C265.23,389.22,265.13,389.24,265.04,389.24z"/>
		<path class="st0" d="M260.01,386.34c-0.18,0-0.36-0.09-0.46-0.26c-0.15-0.25-0.06-0.58,0.19-0.72l12.95-7.48
			c2.02-1.17,3.67-4.02,3.67-6.35v-3.12c0-2.72,1.84-5.91,4.2-7.27l2.7-1.56c0.25-0.15,0.58-0.06,0.72,0.19
			c0.15,0.25,0.06,0.58-0.19,0.72l-2.7,1.56c-2.02,1.17-3.67,4.02-3.67,6.35v3.12c0,2.72-1.84,5.91-4.2,7.27l-12.95,7.48
			C260.19,386.32,260.1,386.34,260.01,386.34z"/>
		<path class="st0" d="M254.97,383.44c-0.18,0-0.36-0.09-0.46-0.26c-0.15-0.25-0.06-0.58,0.19-0.72l12.95-7.48
			c2.02-1.17,3.67-4.02,3.67-6.35v-3.12c0-2.72,1.84-5.91,4.2-7.27l2.7-1.56c0.25-0.15,0.58-0.06,0.72,0.19
			c0.15,0.25,0.06,0.58-0.19,0.72l-2.7,1.56c-2.02,1.17-3.67,4.02-3.67,6.35v3.12c0,2.72-1.84,5.91-4.2,7.27l-12.95,7.48
			C255.15,383.41,255.06,383.44,254.97,383.44z"/>
		<path class="st0" d="M249.94,380.54c-0.18,0-0.36-0.09-0.46-0.26c-0.15-0.25-0.06-0.58,0.19-0.72l12.95-7.47
			c2.02-1.17,3.67-4.02,3.67-6.36v-3.12c0-2.72,1.84-5.91,4.2-7.27l2.7-1.56c0.25-0.14,0.58-0.06,0.72,0.19
			c0.15,0.25,0.06,0.58-0.19,0.72l-2.7,1.56c-2.02,1.17-3.67,4.02-3.67,6.35v3.12c0,2.72-1.84,5.91-4.2,7.27l-12.95,7.48
			C250.12,380.51,250.03,380.54,249.94,380.54z"/>
		<path class="st0" d="M244.9,377.63c-0.18,0-0.36-0.09-0.46-0.26c-0.15-0.25-0.06-0.58,0.19-0.72l12.95-7.48
			c2.02-1.17,3.67-4.02,3.67-6.35v-3.12c0-2.72,1.84-5.91,4.2-7.27l2.7-1.56c0.25-0.14,0.58-0.06,0.72,0.19
			c0.15,0.25,0.06,0.58-0.19,0.72l-2.7,1.56c-2.02,1.17-3.67,4.02-3.67,6.35v3.12c0,2.72-1.84,5.91-4.2,7.27l-12.95,7.48
			C245.08,377.61,244.99,377.63,244.9,377.63z"/>
		<path class="st0" d="M239.86,374.73c-0.18,0-0.36-0.09-0.46-0.26c-0.15-0.25-0.06-0.58,0.19-0.72l12.95-7.48
			c2.02-1.17,3.67-4.02,3.67-6.35v-3.12c0-2.72,1.84-5.91,4.2-7.27l2.7-1.56c0.25-0.14,0.58-0.06,0.72,0.19
			c0.15,0.25,0.06,0.58-0.19,0.72l-2.7,1.56c-2.02,1.17-3.67,4.02-3.67,6.36v3.12c0,2.72-1.84,5.91-4.2,7.27l-12.95,7.48
			C240.05,374.71,239.95,374.73,239.86,374.73z"/>
		<path class="st0" d="M234.83,371.83c-0.18,0-0.36-0.09-0.46-0.26c-0.15-0.25-0.06-0.58,0.19-0.72l12.95-7.47
			c2.02-1.17,3.67-4.02,3.67-6.36v-3.12c0-2.72,1.84-5.91,4.2-7.27l2.7-1.56c0.25-0.15,0.58-0.06,0.72,0.19
			c0.15,0.25,0.06,0.58-0.19,0.72l-2.7,1.56c-2.02,1.17-3.67,4.02-3.67,6.35v3.12c0,2.72-1.84,5.91-4.2,7.27l-12.95,7.48
			C235.01,371.81,234.92,371.83,234.83,371.83z"/>
		<path class="st0" d="M229.79,368.93c-0.18,0-0.36-0.09-0.46-0.26c-0.15-0.25-0.06-0.58,0.19-0.72l12.95-7.48
			c2.02-1.17,3.67-4.02,3.67-6.35v-3.12c0-2.72,1.84-5.91,4.2-7.27l2.7-1.56c0.25-0.15,0.58-0.06,0.72,0.19
			c0.15,0.25,0.06,0.58-0.19,0.72l-2.7,1.56c-2.02,1.17-3.67,4.02-3.67,6.35v3.12c0,2.72-1.84,5.91-4.2,7.27l-12.95,7.48
			C229.97,368.91,229.88,368.93,229.79,368.93z"/>
		<path class="st0" d="M224.76,366.03c-0.18,0-0.36-0.09-0.46-0.26c-0.15-0.25-0.06-0.58,0.19-0.72l12.95-7.48
			c2.02-1.17,3.67-4.02,3.67-6.35v-3.12c0-2.72,1.84-5.91,4.2-7.27l2.7-1.56c0.25-0.15,0.58-0.06,0.72,0.19
			c0.15,0.25,0.06,0.58-0.19,0.72l-2.7,1.56c-2.02,1.17-3.67,4.02-3.67,6.36v3.12c0,2.72-1.84,5.91-4.2,7.27l-12.95,7.48
			C224.94,366,224.85,366.03,224.76,366.03z"/>
		<path class="st0" d="M219.72,363.12c-0.18,0-0.36-0.09-0.46-0.26c-0.15-0.25-0.06-0.58,0.19-0.72l12.95-7.47
			c2.02-1.17,3.67-4.02,3.67-6.36v-3.12c0-2.72,1.84-5.91,4.2-7.27l2.7-1.56c0.25-0.14,0.58-0.06,0.72,0.19
			c0.15,0.25,0.06,0.58-0.19,0.72l-2.7,1.56c-2.02,1.17-3.67,4.02-3.67,6.35v3.12c0,2.72-1.84,5.91-4.2,7.27l-12.95,7.48
			C219.9,363.1,219.81,363.12,219.72,363.12z"/>
		<path class="st0" d="M214.68,360.22c-0.18,0-0.36-0.09-0.46-0.26c-0.15-0.25-0.06-0.58,0.19-0.72l12.95-7.48
			c2.02-1.17,3.67-4.02,3.67-6.35v-3.12c0-2.72,1.84-5.91,4.2-7.27l2.7-1.56c0.25-0.14,0.58-0.06,0.72,0.19
			c0.15,0.25,0.06,0.58-0.19,0.72l-2.7,1.56c-2.02,1.17-3.67,4.02-3.67,6.35v3.12c0,2.72-1.84,5.91-4.2,7.27l-12.95,7.48
			C214.87,360.2,214.77,360.22,214.68,360.22z"/>
		<path class="st0" d="M209.65,357.32c-0.18,0-0.36-0.09-0.46-0.26c-0.15-0.25-0.06-0.58,0.19-0.72l12.95-7.48
			c2.02-1.17,3.67-4.02,3.67-6.35v-3.12c0-2.72,1.84-5.91,4.2-7.27l2.7-1.56c0.25-0.15,0.58-0.06,0.72,0.19
			c0.15,0.25,0.06,0.58-0.19,0.72l-2.7,1.56c-2.02,1.17-3.67,4.02-3.67,6.36v3.12c0,2.72-1.84,5.91-4.2,7.27l-12.95,7.48
			C209.83,357.3,209.74,357.32,209.65,357.32z"/>
		<path class="st0" d="M204.61,354.42c-0.18,0-0.36-0.09-0.46-0.26c-0.15-0.25-0.06-0.58,0.19-0.72l12.95-7.47
			c2.02-1.17,3.67-4.02,3.67-6.36v-3.12c0-2.72,1.84-5.91,4.2-7.27l2.7-1.56c0.25-0.15,0.58-0.06,0.72,0.19
			c0.15,0.25,0.06,0.58-0.19,0.72l-2.7,1.56c-2.02,1.17-3.67,4.02-3.67,6.35v3.12c0,2.72-1.84,5.91-4.2,7.27l-12.95,7.48
			C204.79,354.39,204.7,354.42,204.61,354.42z"/>
		<path class="st0" d="M199.58,351.52c-0.18,0-0.36-0.09-0.46-0.26c-0.15-0.25-0.06-0.58,0.19-0.72l12.95-7.48
			c2.02-1.17,3.67-4.02,3.67-6.35v-3.12c0-2.72,1.84-5.91,4.2-7.27l2.7-1.56c0.25-0.15,0.58-0.06,0.72,0.19
			c0.15,0.25,0.06,0.58-0.19,0.72l-2.7,1.56c-2.02,1.17-3.67,4.02-3.67,6.35v3.12c0,2.72-1.84,5.91-4.2,7.27l-12.95,7.48
			C199.76,351.49,199.67,351.52,199.58,351.52z"/>
		<path class="st0" d="M194.54,348.61c-0.18,0-0.36-0.09-0.46-0.26c-0.15-0.25-0.06-0.58,0.19-0.72l12.95-7.48
			c2.02-1.17,3.67-4.02,3.67-6.35v-3.12c0-2.72,1.84-5.91,4.2-7.27l2.7-1.56c0.25-0.15,0.58-0.06,0.72,0.19
			c0.15,0.25,0.06,0.58-0.19,0.72l-2.7,1.56c-2.02,1.17-3.67,4.02-3.67,6.36v3.12c0,2.72-1.84,5.91-4.2,7.27l-12.95,7.48
			C194.72,348.59,194.63,348.61,194.54,348.61z"/>
		<path class="st0" d="M189.5,345.71c-0.18,0-0.36-0.09-0.46-0.26c-0.15-0.25-0.06-0.58,0.19-0.72l12.95-7.47
			c2.02-1.17,3.67-4.02,3.67-6.36v-3.12c0-2.72,1.84-5.91,4.2-7.27l2.7-1.56c0.25-0.15,0.58-0.06,0.72,0.19
			c0.15,0.25,0.06,0.58-0.19,0.72l-2.7,1.56c-2.02,1.17-3.67,4.02-3.67,6.35v3.12c0,2.72-1.84,5.91-4.2,7.27l-12.95,7.48
			C189.69,345.69,189.59,345.71,189.5,345.71z"/>
		<path class="st0" d="M184.47,342.81c-0.18,0-0.36-0.09-0.46-0.26c-0.15-0.25-0.06-0.58,0.19-0.72l12.95-7.48
			c2.02-1.17,3.67-4.02,3.67-6.35v-3.12c0-2.72,1.84-5.91,4.2-7.27l2.7-1.56c0.25-0.15,0.58-0.06,0.72,0.19
			c0.15,0.25,0.06,0.58-0.19,0.72l-2.7,1.56c-2.02,1.17-3.67,4.02-3.67,6.35v3.12c0,2.72-1.84,5.91-4.2,7.27l-12.95,7.48
			C184.65,342.79,184.56,342.81,184.47,342.81z"/>
		<path class="st0" d="M179.43,339.91c-0.18,0-0.36-0.09-0.46-0.26c-0.15-0.25-0.06-0.58,0.19-0.72l12.95-7.48
			c2.02-1.17,3.67-4.02,3.67-6.35v-3.12c0-2.72,1.84-5.91,4.2-7.27l2.7-1.56c0.25-0.15,0.58-0.06,0.72,0.19
			c0.15,0.25,0.06,0.58-0.19,0.72l-2.7,1.56c-2.02,1.17-3.67,4.02-3.67,6.36v3.12c0,2.72-1.84,5.91-4.2,7.27l-12.95,7.48
			C179.61,339.88,179.52,339.91,179.43,339.91z"/>
	</g>
</g>
<g class="st13">
	<path class="st0" d="M394,153.55c0.89,5.05,4.64,17.74,20.1,26.52c22,10.16,37.24,23.52,42.35,38.43c0.36,0.98,0.86,2.28,1.33,3.21
		c0.55-0.9,0.55-0.9,0.55-3.09v-25.04c-0.01-14.7-0.83-17.94-1.88-22.04c-5.11-14.91-20.35-28.27-42.35-38.43
		C396.54,127.45,392.29,143.9,394,153.55L394,153.55z"/>
	<path class="st0" d="M232.66,123.51c23.29-6.76,50.85-10.56,80.26-10.32c3.88,0.03,7.72,0.13,11.53,0.3
		c25.83,2.36,35.01,29.63,19.44,41.57c-7.15,5.48-15.76,5.42-19.44,5.39c-3.8-0.17-7.64-0.27-11.53-0.3
		c-29.41-0.24-56.97,3.56-80.26,10.32c-23.52,5.73-24.91-18.17-16.68-32.79C218.74,132.76,223.88,126.31,232.66,123.51
		L232.66,123.51z"/>
	<path class="st0" d="M162.36,229.63c0.64-7.44,1.15-13.32,8.73-23.58c15.98-23.57,12.75-50.97,3.92-49.71
		c-1.42,0.2-2.9,1.74-3.92,2.75c-5.36,6.99-8.41,14.5-8.7,22.35c-0.02,0.41-0.02,0.83-0.02,1.24V229.63L162.36,229.63z"/>
</g>
<g>
	
		<rect x="357.75" y="234.73" transform="matrix(0.927 -0.3752 0.3752 0.927 -70.5185 154.0987)" class="st0" width="5.49" height="46.84"/>
	<g>
		<g>
			<g>
				
					<radialGradient id="SVGID_8_" cx="-87.5502" cy="-172.8302" r="98.4089" gradientTransform="matrix(0.981 0.1942 -0.1942 0.981 391.4709 347.2711)" gradientUnits="userSpaceOnUse">
					<stop  offset="0" style="stop-color:#C0BFF6"/>
					<stop  offset="1" style="stop-color:#393091"/>
				</radialGradient>
				<circle class="st14" cx="257.6" cy="215.19" r="17.05"/>
			</g>
		</g>
		<g>
			<g>
				
					<radialGradient id="SVGID_9_" cx="912.2921" cy="334.7897" r="97.2202" gradientTransform="matrix(0.7781 0 0 1.0592 -382.2604 -123.1801)" gradientUnits="userSpaceOnUse">
					<stop  offset="0" style="stop-color:#C0BFF6"/>
					<stop  offset="1" style="stop-color:#393091"/>
				</radialGradient>
				<path class="st15" d="M345.64,240.41c0,33.09-19.71,59.92-44.02,59.92s-44.02-26.83-44.02-59.92s19.71-43.01,44.02-43.01
					S345.64,207.31,345.64,240.41z"/>
			</g>
		</g>
		<g>
			<g>
				
					<linearGradient id="SVGID_10_" gradientUnits="userSpaceOnUse" x1="878.9139" y1="399.8403" x2="878.9139" y2="302.6604" gradientTransform="matrix(0.7781 0 0 1.0592 -382.2604 -123.1801)">
					<stop  offset="0" style="stop-color:#42E8E0"/>
					<stop  offset="4.674554e-03" style="stop-color:#42E6DF"/>
					<stop  offset="0.1358" style="stop-color:#40B6CB"/>
					<stop  offset="0.2707" style="stop-color:#3E8DB9"/>
					<stop  offset="0.4074" style="stop-color:#3C6BAA"/>
					<stop  offset="0.5467" style="stop-color:#3B519F"/>
					<stop  offset="0.6893" style="stop-color:#3A3F97"/>
					<stop  offset="0.8375" style="stop-color:#393493"/>
					<stop  offset="1" style="stop-color:#393091"/>
				</linearGradient>
				<path class="st16" d="M345.64,240.41c0,33.09-19.71,59.92-44.02,59.92s-44.02-26.83-44.02-59.92s19.71-43.01,44.02-43.01
					S345.64,207.31,345.64,240.41z"/>
			</g>
		</g>
		<ellipse class="st17" cx="301.62" cy="215.19" rx="30.04" ry="17.34"/>
		<path class="st18" d="M280.38,207.55c11.73-6.77,30.75-6.77,42.48,0c4.85,2.8,7.68,6.31,8.53,9.95c1.2-5.17-1.64-10.6-8.53-14.57
			c-11.73-6.77-30.75-6.77-42.48,0c-6.89,3.98-9.72,9.4-8.53,14.57C272.7,213.86,275.53,210.34,280.38,207.55z"/>
		<radialGradient id="SVGID_11_" cx="257.3022" cy="104.106" r="53.2713" gradientUnits="userSpaceOnUse">
			<stop  offset="0" style="stop-color:#C0BFF6"/>
			<stop  offset="1" style="stop-color:#393091"/>
		</radialGradient>
		<path class="st19" d="M266.95,173.97l5.43-9.36c3.2-3.32,5.75-7.72,7.05-12.15l5.5-9.48l-7.92-4.54
			c-0.25-0.17-0.52-0.32-0.79-0.46l0,0v0c-2.25-1.07-5.24-0.78-8.53,1.12c-7,4.04-12.67,13.87-12.67,21.95
			c0,4.04,1.42,6.88,3.71,8.2v0l0,0c0,0,0,0,0,0L266.95,173.97z"/>
		<ellipse transform="matrix(0.5 -0.866 0.866 0.5 0.721 318.0941)" class="st2" cx="275.85" cy="158.42" rx="17.92" ry="10.35"/>
		<g>
			<g>
				<radialGradient id="SVGID_12_" cx="331.3854" cy="167.1411" r="75.879" gradientUnits="userSpaceOnUse">
					<stop  offset="0" style="stop-color:#C0BFF6"/>
					<stop  offset="1" style="stop-color:#393091"/>
				</radialGradient>
				<circle class="st20" cx="303.37" cy="173.79" r="44.89"/>
			</g>
		</g>
		<g>
			<g>
				<linearGradient id="SVGID_13_" gradientUnits="userSpaceOnUse" x1="297.1196" y1="218.2545" x2="309.6172" y2="129.3296">
					<stop  offset="0" style="stop-color:#42E8E0"/>
					<stop  offset="4.674554e-03" style="stop-color:#42E6DF"/>
					<stop  offset="0.1358" style="stop-color:#40B6CB"/>
					<stop  offset="0.2707" style="stop-color:#3E8DB9"/>
					<stop  offset="0.4074" style="stop-color:#3C6BAA"/>
					<stop  offset="0.5467" style="stop-color:#3B519F"/>
					<stop  offset="0.6893" style="stop-color:#3A3F97"/>
					<stop  offset="0.8375" style="stop-color:#393493"/>
					<stop  offset="1" style="stop-color:#393091"/>
				</linearGradient>
				<circle class="st21" cx="303.37" cy="173.79" r="44.89"/>
			</g>
		</g>
		<radialGradient id="SVGID_14_" cx="330.778" cy="166.3339" r="36.0354" gradientUnits="userSpaceOnUse">
			<stop  offset="0" style="stop-color:#C0BFF6"/>
			<stop  offset="1" style="stop-color:#393091"/>
		</radialGradient>
		<path class="st22" d="M328.49,204.15l5.43-9.36c3.2-3.32,5.75-7.72,7.05-12.15l5.5-9.48l-7.92-4.54
			c-0.25-0.17-0.52-0.32-0.79-0.46l0,0l0,0c-2.25-1.07-5.24-0.78-8.53,1.12c-7,4.04-12.67,13.87-12.67,21.95
			c0,4.04,1.42,6.88,3.71,8.2l0,0l0,0c0,0,0,0,0,0L328.49,204.15z"/>
		<ellipse transform="matrix(0.5 -0.866 0.866 0.5 5.3574 386.4821)" class="st2" cx="337.39" cy="188.6" rx="17.92" ry="10.35"/>
		<path class="st3" d="M325.3,196.02c0-8.08,5.67-17.91,12.67-21.95c2.42-1.4,4.69-1.92,6.62-1.67c-2.04-0.45-4.52,0.02-7.2,1.56
			c-7,4.04-12.67,13.87-12.67,21.95c0,5.28,2.42,8.51,6.06,8.98C327.47,204.17,325.3,201.01,325.3,196.02z"/>
		<ellipse transform="matrix(0.5 -0.866 0.866 0.5 5.3568 386.4812)" class="st17" cx="337.39" cy="188.6" rx="12.81" ry="7.39"/>
		<path class="st18" d="M342.6,177.04c0.94,1.11,1.48,2.76,1.48,4.88c0,5.78-4.05,12.8-9.06,15.69c-1.94,1.12-3.73,1.45-5.2,1.1
			c1.62,1.91,4.4,2.18,7.57,0.35c5-2.89,9.06-9.91,9.06-15.69C346.45,179.83,344.92,177.59,342.6,177.04z"/>
		<g>
			
				<ellipse transform="matrix(0.9232 -0.3843 0.3843 0.9232 -49.9594 120.5052)" class="st17" cx="276.56" cy="185.26" rx="11.4" ry="19.74"/>
			<path class="st0" d="M283.52,187.41c-0.42,3.21-2.84,4.22-5.41,2.25c-2.57-1.97-4.32-6.16-3.9-9.37
				c0.42-3.21,2.84-4.22,5.41-2.25C282.19,180.01,283.94,184.2,283.52,187.41z"/>
			<path class="st18" d="M277.88,199.96c-7.07-5.41-11.88-16.95-10.73-25.78c0.47-3.6,1.85-6.19,3.81-7.63
				c-3.7,0.35-6.5,3.48-7.2,8.92c-1.15,8.83,3.66,20.37,10.73,25.78c4.19,3.2,8.23,3.54,11.08,1.44
				C283.25,202.91,280.59,202.04,277.88,199.96z"/>
			<path class="st0" d="M275.09,200.96c-7.07-5.41-11.88-16.95-10.73-25.78c0.53-4.09,2.25-6.87,4.63-8.15
				c-2.71,1.11-4.67,4.01-5.24,8.44c-1.15,8.83,3.66,20.37,10.73,25.78c3.8,2.9,7.47,3.44,10.24,1.96
				C282.03,204.31,278.61,203.66,275.09,200.96z"/>
		</g>
		<g>
			<g>
				
					<radialGradient id="SVGID_15_" cx="-52.7782" cy="-113.867" r="35.5672" gradientTransform="matrix(0.981 0.1942 -0.1942 0.981 391.4709 347.2711)" gradientUnits="userSpaceOnUse">
					<stop  offset="0" style="stop-color:#C0BFF6"/>
					<stop  offset="1" style="stop-color:#393091"/>
				</radialGradient>
				<circle class="st23" cx="351.71" cy="236.44" r="17.05"/>
			</g>
		</g>
		<g>
			<g>
				
					<linearGradient id="SVGID_16_" gradientUnits="userSpaceOnUse" x1="-72.1098" y1="-88.4826" x2="-48.9433" y2="-113.4995" gradientTransform="matrix(0.981 0.1942 -0.1942 0.981 391.4709 347.2711)">
					<stop  offset="0" style="stop-color:#42E8E0"/>
					<stop  offset="4.674554e-03" style="stop-color:#42E6DF"/>
					<stop  offset="0.1358" style="stop-color:#40B6CB"/>
					<stop  offset="0.2707" style="stop-color:#3E8DB9"/>
					<stop  offset="0.4074" style="stop-color:#3C6BAA"/>
					<stop  offset="0.5467" style="stop-color:#3B519F"/>
					<stop  offset="0.6893" style="stop-color:#3A3F97"/>
					<stop  offset="0.8375" style="stop-color:#393493"/>
					<stop  offset="1" style="stop-color:#393091"/>
				</linearGradient>
				<circle class="st24" cx="351.71" cy="236.44" r="17.05"/>
			</g>
		</g>
	</g>
	
		<radialGradient id="SVGID_17_" cx="309.0921" cy="-1700.7673" r="32.9505" fx="309.1418" fy="-1698.6234" gradientTransform="matrix(0.9112 0.1087 -0.1791 1.501 -202.9199 2798.709)" gradientUnits="userSpaceOnUse">
		<stop  offset="0" style="stop-color:#C0BFF6"/>
		<stop  offset="1" style="stop-color:#393091"/>
	</radialGradient>
	<path class="st25" d="M378.9,292.93c-0.97,8.1-8.12,23.45-14.6,22.67c-6.48-0.77-9.82-17.37-8.85-25.47
		c0.97-8.1,7-14.04,13.47-13.27C375.4,277.64,379.86,284.83,378.9,292.93z"/>
	
		<linearGradient id="SVGID_18_" gradientUnits="userSpaceOnUse" x1="219.0021" y1="364.2697" x2="244.7367" y2="364.2697" gradientTransform="matrix(0.9112 0.1087 -0.136 1.1399 204.8732 -144.2021)">
		<stop  offset="0" style="stop-color:#42E8E0"/>
		<stop  offset="4.674554e-03" style="stop-color:#42E6DF"/>
		<stop  offset="0.1358" style="stop-color:#40B6CB"/>
		<stop  offset="0.2707" style="stop-color:#3E8DB9"/>
		<stop  offset="0.4074" style="stop-color:#3C6BAA"/>
		<stop  offset="0.5467" style="stop-color:#3B519F"/>
		<stop  offset="0.6893" style="stop-color:#3A3F97"/>
		<stop  offset="0.8375" style="stop-color:#393493"/>
		<stop  offset="1" style="stop-color:#393091"/>
	</linearGradient>
	<path class="st26" d="M378.9,292.93c-0.97,8.1-8.12,23.45-14.6,22.67c-6.48-0.77-9.82-17.37-8.85-25.47
		c0.97-8.1,7-14.04,13.47-13.27C375.4,277.64,379.86,284.83,378.9,292.93z"/>
	<path class="st0" d="M212.49,240.81c-0.99,0-1.94-0.54-2.43-1.47c-0.7-1.34-0.18-3,1.16-3.7l35.2-18.42c1.34-0.7,3-0.18,3.7,1.16
		c0.7,1.34,0.18,3-1.16,3.7l-35.2,18.42C213.36,240.71,212.92,240.81,212.49,240.81z"/>
	
		<radialGradient id="SVGID_19_" cx="-2238.8237" cy="-2254.4065" r="32.9505" fx="-2238.7742" fy="-2252.2625" gradientTransform="matrix(0.4411 0.8047 -1.3256 0.7266 -1766.7273 3670.4304)" gradientUnits="userSpaceOnUse">
		<stop  offset="0" style="stop-color:#C0BFF6"/>
		<stop  offset="1" style="stop-color:#393091"/>
	</radialGradient>
	<path class="st27" d="M213.11,251.04c-7.15,3.92-23.8,7.02-26.93,1.3c-3.13-5.72,8.43-18.09,15.58-22.01
		c7.15-3.92,15.5-2.47,18.63,3.25C223.52,239.3,220.27,247.11,213.11,251.04z"/>
	
		<linearGradient id="SVGID_20_" gradientUnits="userSpaceOnUse" x1="-2685.1921" y1="-155.6409" x2="-2700.6169" y2="-135.0406" gradientTransform="matrix(0.4411 0.8047 -1.0067 0.5518 1247.8903 2489.1328)">
		<stop  offset="0" style="stop-color:#42E8E0"/>
		<stop  offset="4.674554e-03" style="stop-color:#42E6DF"/>
		<stop  offset="0.1358" style="stop-color:#40B6CB"/>
		<stop  offset="0.2707" style="stop-color:#3E8DB9"/>
		<stop  offset="0.4074" style="stop-color:#3C6BAA"/>
		<stop  offset="0.5467" style="stop-color:#3B519F"/>
		<stop  offset="0.6893" style="stop-color:#3A3F97"/>
		<stop  offset="0.8375" style="stop-color:#393493"/>
		<stop  offset="1" style="stop-color:#393091"/>
	</linearGradient>
	<path class="st28" d="M213.11,251.04c-7.15,3.92-23.8,7.02-26.93,1.3c-3.13-5.72,8.43-18.09,15.58-22.01
		c7.15-3.92,15.5-2.47,18.63,3.25C223.52,239.3,220.27,247.11,213.11,251.04z"/>
</g>
<g class="st29">
	<g>
		<path class="st0" d="M179.56,243.4c-1.07,8.62-5.54,13.75-10.24,7.33c-6.03-8.23-6.61-16.28-6.96-21.09v-46.96
			c0,7.35,2.44,14.44,6.96,21.09C179.25,220.2,180.43,236.41,179.56,243.4L179.56,243.4z"/>
		<path class="st0" d="M318.98,252.01c-3.71,0.1-7.45,0.14-11.22,0.1c-29.53-0.24-56.88-4.53-79.71-11.71
			c-22.81-6.09-24.18,17.77-16.22,32.51c5.67,10.49,13.34,13.37,16.22,14.45c22.83,7.19,50.19,11.47,79.71,11.71
			c3.77,0.03,7.51,0,11.22-0.1c26.8-1.97,33.81-27.71,21.29-39.72C336.77,255.89,330.24,251.92,318.98,252.01L318.98,252.01z"/>
		<path class="st0" d="M458.3,214.56c-0.13,20.31-1.32,24-2.83,28.68c-6.28,14.81-22.55,27.89-45.34,37.66
			c-19.95,5.89-25.46-14.84-17.34-30.21c5.52-10.46,14.11-15.03,17.34-16.75c22.79-9.77,39.06-22.85,45.34-37.66
			c0.46-0.98,1.11-2.29,1.72-3.18c0.15-0.02,0.36-0.05,0.51-0.07c0.39,1.09,0.55,1.53,0.6,7.08V214.56L458.3,214.56z"/>
	</g>
</g>
<linearGradient id="SVGID_21_" gradientUnits="userSpaceOnUse" x1="303.5299" y1="365.0607" x2="303.5299" y2="83.7171">
	<stop  offset="0" style="stop-color:#42E8E0"/>
	<stop  offset="0.1205" style="stop-color:#39BDC0"/>
	<stop  offset="0.2841" style="stop-color:#2F899A"/>
	<stop  offset="0.4453" style="stop-color:#265F7B"/>
	<stop  offset="0.6004" style="stop-color:#1F3D62"/>
	<stop  offset="0.7478" style="stop-color:#1A2550"/>
	<stop  offset="0.8845" style="stop-color:#171746"/>
	<stop  offset="1" style="stop-color:#161242"/>
</linearGradient>
<polygon class="st30" points="415.03,300.68 415.03,83.72 192.02,83.72 192.02,300.68 303.53,365.06 "/>
<linearGradient id="SVGID_22_" gradientUnits="userSpaceOnUse" x1="378.6538" y1="229.6574" x2="378.6538" y2="87.1879">
	<stop  offset="0" style="stop-color:#161242"/>
	<stop  offset="0.1155" style="stop-color:#171746"/>
	<stop  offset="0.2522" style="stop-color:#1A2550"/>
	<stop  offset="0.3996" style="stop-color:#1F3D62"/>
	<stop  offset="0.5547" style="stop-color:#265F7B"/>
	<stop  offset="0.7159" style="stop-color:#2F899A"/>
	<stop  offset="0.8795" style="stop-color:#39BDC0"/>
	<stop  offset="1" style="stop-color:#42E8E0"/>
</linearGradient>
<path class="st31" d="M378.65,229.66L378.65,229.66c-2.17,0-3.94-1.76-3.94-3.94V91.12c0-2.17,1.76-3.94,3.94-3.94l0,0
	c2.17,0,3.94,1.76,3.94,3.94v134.6C382.59,227.9,380.83,229.66,378.65,229.66z"/>
<linearGradient id="SVGID_23_" gradientUnits="userSpaceOnUse" x1="223.4325" y1="172.2429" x2="223.4325" y2="47.7358">
	<stop  offset="0" style="stop-color:#161242"/>
	<stop  offset="0.1155" style="stop-color:#171746"/>
	<stop  offset="0.2522" style="stop-color:#1A2550"/>
	<stop  offset="0.3996" style="stop-color:#1F3D62"/>
	<stop  offset="0.5547" style="stop-color:#265F7B"/>
	<stop  offset="0.7159" style="stop-color:#2F899A"/>
	<stop  offset="0.8795" style="stop-color:#39BDC0"/>
	<stop  offset="1" style="stop-color:#42E8E0"/>
</linearGradient>
<path class="st32" d="M223.43,172.24L223.43,172.24c-1.16,0-2.11-0.94-2.11-2.11V49.85c0-1.16,0.94-2.11,2.11-2.11l0,0
	c1.16,0,2.11,0.94,2.11,2.11v120.29C225.54,171.3,224.6,172.24,223.43,172.24z"/>
</svg>
